<?xml version="1.0" encoding="utf-8"?>
<!-- Generator: Adobe Illustrator 27.5.0, SVG Export Plug-In . SVG Version: 6.00 Build 0)  -->
<svg version="1.1" xmlns="http://www.w3.org/2000/svg" xmlns:xlink="http://www.w3.org/1999/xlink" x="0px" y="0px"
	 viewBox="0 0 750 500" style="enable-background:new 0 0 750 500;" xml:space="preserve">
<g id="Background_Simple">
	<g>
		<path style="fill:#92E3A9;" d="M733.337,251.043c-4.588-95.289-69.568-176.718-161.483-202.264
			c-48.917-13.595-107.891-23.775-165.225-18.147C271.401,43.906,58.189,236.377,48.234,262.095
			c-9.955,25.718-0.83,184.175-0.83,184.175h642.953c0,0,48.118-71.347,43.14-191.641
			C733.447,253.426,733.394,252.231,733.337,251.043z"/>
		<path style="opacity:0.7;fill:#FFFFFF;" d="M733.337,251.043c-4.588-95.289-69.568-176.718-161.483-202.264
			c-48.917-13.595-107.891-23.775-165.225-18.147C271.401,43.906,58.189,236.377,48.234,262.095
			c-9.955,25.718-0.83,184.175-0.83,184.175h642.953c0,0,48.118-71.347,43.14-191.641
			C733.447,253.426,733.394,252.231,733.337,251.043z"/>
	</g>
</g>
<g id="Plant_2">
	<g>
		<path style="fill:#92E3A9;stroke:#263238;stroke-linecap:round;stroke-linejoin:round;stroke-miterlimit:10;" d="M628.787,322.96
			c0,0-2.336,6.425-7.301,7.301c-4.965,0.876-13.726-8.761-8.177-13.726C618.858,311.57,626.451,319.456,628.787,322.96z"/>
		<path style="fill:#92E3A9;stroke:#263238;stroke-linecap:round;stroke-linejoin:round;stroke-miterlimit:10;" d="M636.38,291.419
			c0,0-7.301,17.815-4.381,26.576c2.92,8.761,21.027,15.186,26.284,3.797c5.257-11.39-6.425-27.452-10.806-30.957
			C643.097,287.33,637.841,288.499,636.38,291.419z"/>
		<path style="fill:#92E3A9;stroke:#263238;stroke-linecap:round;stroke-linejoin:round;stroke-miterlimit:10;" d="M679.019,299.012
			c0,0-12.558,11.39-14.018,22.78c-1.46,11.39,7.009,15.478,15.771,14.018c8.761-1.46,13.142-23.656,10.514-33.877
			C688.657,291.711,679.019,299.012,679.019,299.012z"/>
		<path style="fill:#92E3A9;stroke:#263238;stroke-linecap:round;stroke-linejoin:round;stroke-miterlimit:10;" d="M681.356,362.094
			c0,0-14.018,0.584-14.602,7.301c-0.584,6.717,6.133,8.177,12.85,2.336S687.196,362.386,681.356,362.094z"/>
		<path style="fill:#92E3A9;stroke:#263238;stroke-linecap:round;stroke-linejoin:round;stroke-miterlimit:10;" d="M646.602,376.113
			c0,0-1.46,7.009-6.717,9.637c-5.257,2.629-14.602-2.92-9.638-11.39C635.212,365.891,643.974,372.608,646.602,376.113z"/>
		<path style="fill:#92E3A9;stroke:#263238;stroke-linecap:round;stroke-linejoin:round;stroke-miterlimit:10;" d="M634.336,354.209
			c0,0-2.628-5.841-12.85-2.044c-10.222,3.797-14.31,9.638-7.885,11.682C620.026,365.891,634.336,354.209,634.336,354.209z"/>
		<path style="fill:#92E3A9;stroke:#263238;stroke-linecap:round;stroke-linejoin:round;stroke-miterlimit:10;" d="M663.541,284.118
			c0,0,1.752,4.089,5.257,3.213c3.504-0.876,4.381-6.133,9.93-4.673c5.549,1.46,10.222,7.885,10.222,4.965
			c0-2.921-7.009-10.514-14.894-10.514C666.169,277.109,663.833,280.321,663.541,284.118z"/>
		<path style="fill:none;stroke:#263238;stroke-linecap:round;stroke-linejoin:round;stroke-miterlimit:10;" d="M649.093,328.23
			c0,0,6.109,17.892,7.419,33.166c1.309,15.274,0,39.712,0,39.712"/>
		<path style="fill:none;stroke:#263238;stroke-linecap:round;stroke-linejoin:round;stroke-miterlimit:10;" d="M670.477,334.339
			c0,0-6.982,20.51-8.728,33.602s-2.182,33.166-2.182,33.166"/>
		<path style="fill:none;stroke:#263238;stroke-linecap:round;stroke-linejoin:round;stroke-miterlimit:10;" d="M666.985,370.996
			c0,0-3.055,0.873-4.8,30.547"/>
		<path style="fill:none;stroke:#263238;stroke-linecap:round;stroke-linejoin:round;stroke-miterlimit:10;" d="M646.602,376.113
			c0,0,2.928-2.498,4.673,3.175c1.746,5.673,0.873,21.383,0.873,21.383"/>
		<path style="fill:none;stroke:#263238;stroke-linecap:round;stroke-linejoin:round;stroke-miterlimit:10;" d="M654.153,373.301
			c2.283,12.793,0.177,26.933,0.177,26.933"/>
		<path style="fill:none;stroke:#263238;stroke-linecap:round;stroke-linejoin:round;stroke-miterlimit:10;" d="M634.336,354.209
			c0,0,12.575-2.414,17.812,11.551c0.514,1.37,0.948,2.803,1.313,4.274"/>
		<path style="fill:#92E3A9;stroke:#263238;stroke-linecap:round;stroke-linejoin:round;stroke-miterlimit:10;" d="M686.818,340.681
			c0,0,2.629-5.841,12.85-2.044c10.222,3.797,14.31,9.638,7.885,11.682C701.129,352.363,686.818,340.681,686.818,340.681z"/>
		<path style="fill:none;stroke:#263238;stroke-linecap:round;stroke-linejoin:round;stroke-miterlimit:10;" d="M675.639,343.239
			c-2.528,1.73-4.956,4.522-6.633,8.993c-5.237,13.964-4.639,48.439-4.639,48.439"/>
		<path style="fill:none;stroke:#263238;stroke-linecap:round;stroke-linejoin:round;stroke-miterlimit:10;" d="M686.818,340.681
			c0,0-4.169-0.8-8.705,1.186"/>
		<path style="fill:none;stroke:#263238;stroke-linecap:round;stroke-linejoin:round;stroke-miterlimit:10;" d="M642.56,331.869
			c2.728,3.203,5.373,7.534,7.406,13.38c6.982,20.074,9.601,45.821,8.292,55.422"/>
		<path style="fill:none;stroke:#263238;stroke-linecap:round;stroke-linejoin:round;stroke-miterlimit:10;" d="M628.787,322.96
			c0,0,6.089,0.95,12.253,7.244"/>
		<path style="fill:none;stroke:#263238;stroke-linecap:round;stroke-linejoin:round;stroke-miterlimit:10;" d="M660.292,350.655
			c-0.425,25.335-0.726,50.452-0.726,50.452"/>
		<path style="fill:none;stroke:#263238;stroke-linecap:round;stroke-linejoin:round;stroke-miterlimit:10;" d="M663.541,284.118
			c0,0-1.356-1.273-2.228,21.42c-0.339,8.818-0.678,25.213-0.966,41.965"/>
		<path style="fill:#FFFFFF;stroke:#263238;stroke-linecap:round;stroke-linejoin:round;stroke-miterlimit:10;" d="M672.144,445.619
			h-25.591c-2.743,0-5.037-2.082-5.302-4.812l-3.94-40.572h44.076l-3.94,40.572C677.181,443.537,674.886,445.619,672.144,445.619z"
			/>
		<g>
			<polygon style="fill:#263238;stroke:#263238;stroke-linecap:round;stroke-linejoin:round;stroke-miterlimit:10;" points="
				638.625,413.763 639.091,418.563 679.606,418.563 680.072,413.763 			"/>
			<polygon style="fill:#263238;stroke:#263238;stroke-linecap:round;stroke-linejoin:round;stroke-miterlimit:10;" points="
				678.589,429.036 678.843,426.418 639.854,426.418 640.108,429.036 			"/>
			
				<circle style="fill:#263238;stroke:#263238;stroke-linecap:round;stroke-linejoin:round;stroke-miterlimit:10;" cx="675.277" cy="408.089" r="3.491"/>
			<path style="fill:#263238;stroke:#263238;stroke-linecap:round;stroke-linejoin:round;stroke-miterlimit:10;" d="
				M643.857,411.581c1.928,0,3.491-1.563,3.491-3.491s-1.563-3.491-3.491-3.491s-3.491,1.563-3.491,3.491
				S641.929,411.581,643.857,411.581z"/>
			<path style="fill:#263238;stroke:#263238;stroke-linecap:round;stroke-linejoin:round;stroke-miterlimit:10;" d="
				M650.839,408.089c0,1.928,1.563,3.491,3.491,3.491c1.928,0,3.491-1.563,3.491-3.491s-1.563-3.491-3.491-3.491
				C652.402,404.598,650.839,406.161,650.839,408.089z"/>
			
				<circle style="fill:#263238;stroke:#263238;stroke-linecap:round;stroke-linejoin:round;stroke-miterlimit:10;" cx="664.803" cy="408.089" r="3.491"/>
		</g>
	</g>
</g>
<g id="Plant_1">
	<g>
		<g>
			
				<line style="fill:none;stroke:#263238;stroke-linecap:round;stroke-linejoin:round;stroke-miterlimit:10;" x1="94.67" y1="70.907" x2="97.733" y2="62.154"/>
			
				<line style="fill:none;stroke:#263238;stroke-linecap:round;stroke-linejoin:round;stroke-miterlimit:10;" x1="94.889" y1="47.275" x2="94.889" y2="79.878"/>
			<g>
				<path style="fill:#92E3A9;stroke:#263238;stroke-linecap:round;stroke-linejoin:round;stroke-miterlimit:10;" d="M89.872,64.193
					c0,0-4.542-4.955-9.084-4.129c-4.542,0.826-6.606,6.194-6.606,9.497c0,3.303,4.542,14.039,4.542,14.039
					s3.303-3.716,10.735-9.084C96.892,69.148,97.305,63.781,89.872,64.193z"/>
				<path style="fill:none;stroke:#263238;stroke-linecap:round;stroke-linejoin:round;stroke-miterlimit:10;" d="M89.872,64.193
					c0,0-5.781,2.89-9.084,9.497"/>
			</g>
			<g>
				<path style="fill:#92E3A9;stroke:#263238;stroke-linecap:round;stroke-linejoin:round;stroke-miterlimit:10;" d="M97.273,58.376
					c0,0,3.753-4.072,7.493-3.382c3.74,0.69,5.43,5.117,5.422,7.839c-0.007,2.722-3.772,11.557-3.772,11.557
					s-2.713-3.069-8.825-7.507C91.479,62.443,91.151,58.02,97.273,58.376z"/>
				<path style="fill:none;stroke:#263238;stroke-linecap:round;stroke-linejoin:round;stroke-miterlimit:10;" d="M97.273,58.376
					c0,0,4.756,2.394,7.464,7.844"/>
			</g>
			
				<line style="fill:none;stroke:#263238;stroke-linecap:round;stroke-linejoin:round;stroke-miterlimit:10;" x1="94.232" y1="52.964" x2="99.922" y2="44.649"/>
			<g>
				<path style="fill:#92E3A9;stroke:#263238;stroke-linecap:round;stroke-linejoin:round;stroke-miterlimit:10;" d="M93.279,50.56
					c0,0-0.093-5.537-3.345-7.51c-3.252-1.973-7.458,0.209-9.263,2.246C78.866,47.332,75.8,56.434,75.8,56.434
					s4.067-0.486,11.584,0.265C94.9,57.451,98.088,54.366,93.279,50.56z"/>
				<path style="fill:none;stroke:#263238;stroke-linecap:round;stroke-linejoin:round;stroke-miterlimit:10;" d="M93.279,50.56
					c0,0-5.144-1.377-10.791,0.892"/>
			</g>
			<g>
				<path style="fill:#92E3A9;stroke:#263238;stroke-linecap:round;stroke-linejoin:round;stroke-miterlimit:10;" d="M98.171,43.138
					c0,0,0.069-4.076,2.462-5.528c2.394-1.452,5.49,0.154,6.818,1.653c1.329,1.499,3.586,8.199,3.586,8.199
					s-2.994-0.358-8.527,0.195S94.631,45.939,98.171,43.138z"/>
				<path style="fill:none;stroke:#263238;stroke-linecap:round;stroke-linejoin:round;stroke-miterlimit:10;" d="M98.171,43.138
					c0,0,3.786-1.013,7.943,0.657"/>
			</g>
		</g>
		<polygon style="fill:#263238;stroke:#263238;stroke-linecap:round;stroke-linejoin:round;stroke-miterlimit:10;" points="
			108.793,77.08 79.463,77.08 82.435,107.616 105.821,107.616 		"/>
	</g>
</g>
<g id="Toaster">
	<g>
		<path style="fill:#92E3A9;stroke:#263238;stroke-miterlimit:10;" d="M666.417,217.962h-20.756
			c-6.188,0-11.205,5.016-11.205,11.205v24.213h43.165v-24.213C677.622,222.978,672.605,217.962,666.417,217.962z"/>
		<rect x="634.456" y="248.583" style="fill:#263238;stroke:#263238;stroke-miterlimit:10;" width="43.165" height="4.796"/>
		<path style="fill:#92E3A9;stroke:#263238;stroke-miterlimit:10;" d="M683.388,217.962h-20.756
			c-6.188,0-11.205,5.016-11.205,11.205v24.213h43.165v-24.213C694.592,222.978,689.576,217.962,683.388,217.962z"/>
		<rect x="651.427" y="248.583" style="fill:#263238;stroke:#263238;stroke-miterlimit:10;" width="43.165" height="4.796"/>
		<path style="fill:#263238;stroke:#263238;stroke-miterlimit:10;" d="M642.389,245.262L642.389,245.262
			c-1.936,0-3.505-1.569-3.505-3.505v-14.388c0-1.936,1.569-3.505,3.505-3.505l0,0c1.936,0,3.505,1.569,3.505,3.505v14.388
			C645.893,243.693,644.324,245.262,642.389,245.262z"/>
		<path style="fill:#FFFFFF;stroke:#263238;stroke-miterlimit:10;" d="M645.524,232.35h-7.01c-1.019,0-1.845-0.826-1.845-1.845l0,0
			c0-1.019,0.826-1.845,1.845-1.845h7.01c1.019,0,1.845,0.826,1.845,1.845l0,0C647.369,231.524,646.543,232.35,645.524,232.35z"/>
	</g>
</g>
<g id="Mixer">
	<g>
		<path style="fill:#FFFFFF;stroke:#263238;stroke-miterlimit:10;" d="M689.859,154.132l-6.306-37.013l-22.461-3.827
			c-7.842-1.336-15.157,4.3-15.864,12.224l-2.8,31.358h44.69L689.859,154.132z"/>
		<path style="fill:#FFFFFF;stroke:#263238;stroke-miterlimit:10;" d="M656.41,121.277L656.41,121.277
			c0,2.246,1.821,4.067,4.067,4.067h13.407c1.706,0,3.089-1.383,3.089-3.089l0,0c0-1.533-1.124-2.834-2.641-3.056l-13.265-1.946
			C658.612,116.893,656.41,118.796,656.41,121.277z"/>
		<polyline style="fill:#FFFFFF;stroke:#263238;stroke-miterlimit:10;" points="662.99,149.471 664.909,143.165 687.666,143.165 		
			"/>
		<path style="fill:#FFFFFF;stroke:#263238;stroke-miterlimit:10;" d="M671.213,147.552h-21.247h-21.247
			c0,0-0.223,9.93,3.493,20.872c1.455,4.286,5.435,5.174,8.537,5.174h9.217h9.217c3.102,0,7.082-0.888,8.537-5.174
			C671.435,157.482,671.213,147.552,671.213,147.552z"/>
		<path style="fill:#FFFFFF;stroke:#263238;stroke-miterlimit:10;" d="M632.283,185.661h35.916v-9.998
			c0-1.444-1.17-2.614-2.614-2.614h-30.689c-1.444,0-2.614,1.17-2.614,2.614V185.661z"/>
		<path style="fill:#FFFFFF;stroke:#263238;stroke-miterlimit:10;" d="M680.4,147.552L680.4,147.552
			c-4.843,0-8.894,3.68-9.357,8.501l-2.844,29.608h24.401l-2.844-29.608C689.294,151.232,685.243,147.552,680.4,147.552z"/>
		<path style="fill:#263238;stroke:#263238;stroke-miterlimit:10;" d="M684.924,157.422c0-2.726-2.21-4.935-4.935-4.935
			c-2.726,0-4.935,2.21-4.935,4.935c0,2.726,2.21,4.935,4.935,4.935C682.714,162.357,684.924,160.147,684.924,157.422z"/>
	</g>
</g>
<g id="Coffee_Maker">
	<g>
		<path style="fill:#263238;stroke:#263238;stroke-miterlimit:10;" d="M571.537,298.581H544.14c-1.025,0-1.902-0.737-2.078-1.748
			l-1.415-8.131h34.384l-1.415,8.131C573.44,297.844,572.563,298.581,571.537,298.581z"/>
		<rect x="544.14" y="298.581" style="fill:#263238;stroke:#263238;stroke-miterlimit:10;" width="2.999" height="1.198"/>
		<rect x="556.349" y="298.581" style="fill:#263238;stroke:#263238;stroke-miterlimit:10;" width="2.999" height="1.198"/>
		<rect x="568.56" y="298.581" style="fill:#263238;stroke:#263238;stroke-miterlimit:10;" width="2.999" height="1.198"/>
		<rect x="537.926" y="218.673" style="fill:#ADADAD;stroke:#263238;stroke-miterlimit:10;" width="39.825" height="78.136"/>
		<rect x="537.926" y="286.93" style="fill:#ADADAD;stroke:#263238;stroke-miterlimit:10;" width="39.825" height="9.878"/>
		<rect x="541.609" y="286.93" style="fill:#DEDEDE;stroke:#263238;stroke-miterlimit:10;" width="32.459" height="9.878"/>
		<polygon style="fill:#263238;stroke:#263238;stroke-miterlimit:10;" points="570.07,252.498 545.607,252.498 542.549,240.376 
			573.128,240.376 		"/>
		<rect x="537.926" y="218.673" style="fill:#ADADAD;stroke:#263238;stroke-miterlimit:10;" width="39.825" height="26.948"/>
		<rect x="541.28" y="218.673" style="fill:#DEDEDE;stroke:#263238;stroke-miterlimit:10;" width="33.118" height="26.948"/>
		<rect x="537.926" y="218.673" style="fill:#FFFFFF;stroke:#263238;stroke-miterlimit:10;" width="39.825" height="1.546"/>
		<line style="fill:#FFFFFF;stroke:#263238;stroke-miterlimit:10;" x1="537.926" y1="224.514" x2="578.016" y2="224.514"/>
		<rect x="553.723" y="231.948" style="fill:#92E3A9;stroke:#263238;stroke-miterlimit:10;" width="9.16" height="6.77"/>
		<path style="fill:#FFFFFF;stroke:#263238;stroke-miterlimit:10;" d="M551.4,233.806h-3.319c-0.55,0-0.996-0.446-0.996-0.996l0,0
			c0-0.55,0.446-0.996,0.996-0.996h3.319c0.55,0,0.996,0.446,0.996,0.996l0,0C552.396,233.361,551.95,233.806,551.4,233.806z"/>
		<path style="fill:#FFFFFF;stroke:#263238;stroke-miterlimit:10;" d="M551.4,238.32h-3.319c-0.55,0-0.996-0.446-0.996-0.996l0,0
			c0-0.55,0.446-0.996,0.996-0.996h3.319c0.55,0,0.996,0.446,0.996,0.996l0,0C552.396,237.874,551.95,238.32,551.4,238.32z"/>
		<path style="fill:#FFFFFF;stroke:#263238;stroke-miterlimit:10;" d="M568.857,233.806h-3.319c-0.55,0-0.996-0.446-0.996-0.996l0,0
			c0-0.55,0.446-0.996,0.996-0.996h3.319c0.55,0,0.996,0.446,0.996,0.996l0,0C569.852,233.361,569.406,233.806,568.857,233.806z"/>
		<path style="fill:#FFFFFF;stroke:#263238;stroke-miterlimit:10;" d="M568.857,238.32h-3.319c-0.55,0-0.996-0.446-0.996-0.996l0,0
			c0-0.55,0.446-0.996,0.996-0.996h3.319c0.55,0,0.996,0.446,0.996,0.996l0,0C569.852,237.874,569.406,238.32,568.857,238.32z"/>
		<path style="fill:#263238;stroke:#263238;stroke-miterlimit:10;" d="M575.998,287.077c0.061-2.072,0.386-14.93-0.698-22.836
			c-1.182-8.619-6.794-11.036-6.794-11.036h-20.678c0,0-5.613,2.417-6.794,11.036c-1.084,7.907-0.759,20.765-0.698,22.836H575.998z"
			/>
		<path style="fill:#FFFFFF;stroke:#263238;stroke-miterlimit:10;" d="M574.299,260.196h-32.263c0.865-2.31,2.063-3.93,3.143-5.024
			c1.427-1.441,2.649-1.97,2.649-1.97h20.678c0,0,1.223,0.529,2.65,1.97C572.236,256.267,573.434,257.886,574.299,260.196z"/>
		<polygon style="fill:#263238;stroke:#263238;stroke-miterlimit:10;" points="545.858,254.878 541.329,254.878 543.594,257.044 		
			"/>
		<path style="fill:#263238;stroke:#263238;stroke-miterlimit:10;" d="M571.156,255.172h-25.977c1.427-1.441,2.649-1.97,2.649-1.97
			h20.678C568.506,253.202,569.729,253.731,571.156,255.172z"/>
		<path style="fill:#FFFFFF;stroke:#263238;stroke-miterlimit:10;" d="M581.897,256.256h-9.786c0.79,1.002,1.571,2.296,2.187,3.939
			c1.531,0,3.723,0,5.138,0c2.363,0,3.052,2.068,3.052,2.068v16.936c0,2.068-2.166,1.674-2.166,1.674l-4.231-0.592
			c0,1.765-0.019,3.326-0.041,4.531c0.991,0,3.052,0,5.749,0c3.84,0,5.317-4.037,5.317-4.037s0-15.459,0-19.595
			C587.116,257.044,581.897,256.256,581.897,256.256z"/>
	</g>
</g>
<g id="Blender">
	<g>
		<path style="fill:#263238;stroke:#263238;stroke-miterlimit:10;" d="M512.295,293.696v1.616c0,0.712-0.577,1.289-1.289,1.289
			h-31.885c-0.712,0-1.289-0.577-1.289-1.289v-1.616l5.51-19.737l0.734-4.195l1.341-7.655l0.327-1.875h18.633l0.327,1.875
			l1.344,7.655l0.734,4.195L512.295,293.696z"/>
		<polygon style="fill:#92E3A9;stroke:#263238;stroke-miterlimit:10;" points="506.05,269.764 484.077,269.764 485.418,262.109 
			504.706,262.109 		"/>
		<circle style="fill:#FFFFFF;stroke:#263238;stroke-miterlimit:10;" cx="494.873" cy="283.189" r="4.758"/>
		<path style="fill:#92E3A9;stroke:#263238;stroke-miterlimit:10;" d="M497.922,283.189c0-1.684-1.365-3.048-3.048-3.048
			s-3.048,1.365-3.048,3.048s1.365,3.048,3.048,3.048S497.922,284.873,497.922,283.189z"/>
		<rect x="480.734" y="296.555" style="fill:#263238;stroke:#263238;stroke-miterlimit:10;" width="2.465" height="2.14"/>
		<rect x="506.271" y="296.555" style="fill:#263238;stroke:#263238;stroke-miterlimit:10;" width="2.465" height="2.14"/>
		<path style="fill:#FFFFFF;stroke:#263238;stroke-miterlimit:10;" d="M507.91,224.753h-28.484l1.967,2.622l2.881,26.18
			c0.262,2.378,1.071,4.663,2.365,6.675v0h16.391l0.499-0.96c0.921-1.772,1.491-3.705,1.677-5.693L507.91,224.753z"/>
		<path style="fill:#263238;stroke:#263238;stroke-miterlimit:10;" d="M501.104,222.567h-14.071c-0.531,0-1.04,0.212-1.413,0.59
			l-1.383,1.399H503.9l-1.383-1.399C502.143,222.779,501.635,222.567,501.104,222.567z"/>
		<rect x="479.426" y="224.425" style="fill:#263238;stroke:#263238;stroke-miterlimit:10;" width="29.286" height="0.328"/>
		<rect x="490.201" y="220.994" style="fill:none;stroke:#263238;stroke-miterlimit:10;" width="9.248" height="1.577"/>
		<line style="fill:none;stroke:#263238;stroke-miterlimit:10;" x1="481.885" y1="229.217" x2="507.17" y2="229.217"/>
		<path style="fill:#FFFFFF;stroke:#263238;stroke-miterlimit:10;" d="M513.124,232.752l-4.277-1.56l-1.382-1.554l-0.101,1.013
			l-0.007-0.003l-0.111,1.179l-0.297,2.965c0,0,0.477-1.218,1.784-1.675l3.757,1.37c0.378,0.138,0.632,0.501,0.632,0.903v11.071
			c0,0.775-0.284,1.52-0.799,2.098c-0.308,0.346-0.697,0.624-1.124,0.804l-3.906,1.653c-1.086-0.123-1.706-1.166-1.706-1.166
			l-0.626,5.302c0.26-0.721,1.037-1.44,1.362-1.719l5.597-2.369c0.677-0.286,1.293-0.728,1.782-1.276
			c0.818-0.917,1.268-2.099,1.268-3.328v-11.071C514.971,234.215,514.228,233.155,513.124,232.752z"/>
		
			<line style="fill:none;stroke:#263238;stroke-width:0.5;stroke-miterlimit:10;" x1="487.105" y1="231.059" x2="488.936" y2="256.695"/>
		<path style="fill:none;stroke:#263238;stroke-width:0.5;stroke-miterlimit:10;" d="M486.426,231.648c0,0-1.479,17.182,1.821,24.35
			"/>
		<path style="fill:none;stroke:#263238;stroke-width:0.5;stroke-miterlimit:10;" d="M488.076,231.591c0,0,2.048,16.84,1.422,24.18"
			/>
		
			<line style="fill:none;stroke:#263238;stroke-width:0.5;stroke-miterlimit:10;" x1="502.787" y1="231.059" x2="500.956" y2="256.695"/>
		<path style="fill:none;stroke:#263238;stroke-width:0.5;stroke-miterlimit:10;" d="M502.594,231.648c0,0,1.479,17.182-1.821,24.35
			"/>
		<path style="fill:none;stroke:#263238;stroke-width:0.5;stroke-miterlimit:10;" d="M500.944,231.591c0,0-2.048,16.84-1.422,24.18"
			/>
		
			<line style="fill:none;stroke:#263238;stroke-width:0.5;stroke-miterlimit:10;" x1="491.091" y1="235.915" x2="491.433" y2="255.372"/>
		
			<line style="fill:none;stroke:#263238;stroke-width:0.5;stroke-miterlimit:10;" x1="496.212" y1="235.915" x2="495.87" y2="255.372"/>
	</g>
</g>
<g id="Rice_Cooker">
	<g>
		<path style="fill:#263238;stroke:#263238;stroke-miterlimit:10;" d="M361.353,295.112h-0.956c-1.042,0-1.887-0.845-1.887-1.887
			v-1.149c0-1.042,0.845-1.887,1.887-1.887h0.956c1.042,0,1.887,0.845,1.887,1.887v1.149
			C363.24,294.267,362.395,295.112,361.353,295.112z"/>
		<path style="fill:#263238;stroke:#263238;stroke-miterlimit:10;" d="M387.323,295.112h-0.956c-1.042,0-1.887-0.845-1.887-1.887
			v-1.149c0-1.042,0.845-1.887,1.887-1.887h0.956c1.042,0,1.887,0.845,1.887,1.887v1.149
			C389.21,294.267,388.365,295.112,387.323,295.112z"/>
		<path style="fill:#92E3A9;stroke:#263238;stroke-miterlimit:10;" d="M373.908,259.681l-22.446-0.193c0,0,0.052,0.349,0.259,0.772
			c0.518,1.062,0,8.689,0.777,15.543c0.777,6.854,1.727,12.743,3.971,14.385c3.491,2.552,7.893,3.405,12.123,3.696
			c4.422,0.304,9.152,0.4,13.517-0.413c3.626-0.676,6.993-1.641,9.238-3.282c2.245-1.641,3.194-7.53,3.971-14.385
			s0.259-14.481,0.777-15.543c0.207-0.424,0.259-0.772,0.259-0.772L373.908,259.681z"/>
		<path style="fill:#263238;stroke:#263238;stroke-miterlimit:10;" d="M351.848,265.377c0,0-6.565-0.386-7.337,1.352
			c-0.772,1.738,2.414,1.641,3.765,2.027c1.352,0.386,3.669,1.545,3.669,1.545L351.848,265.377z"/>
		<path style="fill:#263238;stroke:#263238;stroke-miterlimit:10;" d="M396.258,265.377c0,0,6.565-0.386,7.337,1.352
			c0.772,1.738-2.414,1.641-3.765,2.027c-1.352,0.386-3.669,1.545-3.669,1.545L396.258,265.377z"/>
		<path style="fill:#263238;stroke:#263238;stroke-miterlimit:10;" d="M379.634,250.027h-11.489c-0.64,0-1.159-0.519-1.159-1.159
			l0,0c0-0.64,0.519-1.158,1.159-1.158h11.489c0.64,0,1.159,0.519,1.159,1.158l0,0C380.793,249.508,380.274,250.027,379.634,250.027
			z"/>
		<rect x="369.352" y="253.116" style="fill:#263238;stroke:#263238;stroke-miterlimit:10;" width="9.075" height="1.062"/>
		<path style="fill:#263238;stroke:#263238;stroke-miterlimit:10;" d="M376.568,250.22l-2.46-0.082v-0.015l-0.218,0.007
			l-0.218-0.007v0.015l-2.46,0.082c0,0,0.821,1.11-0.579,2.51h3.04h0.436h3.04C375.747,251.33,376.568,250.22,376.568,250.22z"/>
		<path style="fill:none;stroke:#263238;stroke-miterlimit:10;" d="M353.638,256.013c0,0-0.861-1.352,15.714-1.834h13.196
			c0,0,6.414-0.193,11.365,1.834v1.738h-40.81L353.638,256.013z"/>
		<path style="fill:#263238;stroke:#263238;stroke-miterlimit:10;" d="M350.603,257.685l-1.138,1.803h48.851l-1.53-2.04
			c-0.678-0.904-1.742-1.436-2.872-1.436h-40.276C352.406,256.013,351.261,256.644,350.603,257.685z"/>
		<path style="fill:#263238;stroke:#263238;stroke-miterlimit:10;" d="M375.444,292.023h-2.203c-2.804,0-5.077-2.273-5.077-5.077
			v-8.768c0-2.804,2.273-5.077,5.077-5.077h2.203c2.804,0,5.077,2.273,5.077,5.077v8.768
			C380.521,289.75,378.248,292.023,375.444,292.023z"/>
		<path style="fill:#6B6B6B;stroke:#263238;stroke-miterlimit:10;" d="M376.814,290.092h-4.363c-0.981,0-1.777-0.795-1.777-1.777
			v-1.274c0-0.981,0.795-1.777,1.777-1.777h4.363c0.981,0,1.777,0.795,1.777,1.777v1.274
			C378.59,289.297,377.795,290.092,376.814,290.092z"/>
	</g>
</g>
<g id="Sink">
	<g>
		<g>
			<rect x="204.238" y="307.609" style="fill:#A6A6A6;stroke:#263238;stroke-miterlimit:10;" width="131.962" height="138.661"/>
			<g>
				<rect x="265.943" y="307.212" style="fill:#616161;stroke:#263238;stroke-miterlimit:10;" width="8.553" height="131.432"/>
				<rect x="265.943" y="300.002" style="fill:#FFFFFF;stroke:#263238;stroke-miterlimit:10;" width="8.553" height="7.21"/>
			</g>
			<rect x="204.238" y="300.002" style="fill:#A6A6A6;stroke:#263238;stroke-miterlimit:10;" width="131.962" height="7.607"/>
		</g>
		<g>
			<rect x="204.238" y="439.042" style="fill:#A6A6A6;stroke:#263238;stroke-miterlimit:10;" width="131.962" height="7.229"/>
			<rect x="204.238" y="438.645" style="fill:#A6A6A6;stroke:#263238;stroke-miterlimit:10;" width="131.962" height="0.397"/>
		</g>
		
			<rect x="263.137" y="336.462" transform="matrix(-1.836970e-16 1 -1 -1.836970e-16 620.1401 55.3468)" style="fill:#FFFFFF;stroke:#263238;stroke-miterlimit:10;" width="38.52" height="2.562"/>
		
			<rect x="239.77" y="336.463" transform="matrix(-1.836970e-16 1 -1 -1.836970e-16 596.7736 78.7133)" style="fill:#FFFFFF;stroke:#263238;stroke-miterlimit:10;" width="38.52" height="2.562"/>
		<g>
			<path style="fill:#FFFFFF;stroke:#263238;stroke-miterlimit:10;" d="M271.275,261.437L271.275,261.437
				c-1.038,0-1.879,0.841-1.879,1.879v36.57h3.758v-36.57C273.154,262.278,272.312,261.437,271.275,261.437z"/>
			<path style="fill:#FFFFFF;stroke:#263238;stroke-miterlimit:10;" d="M271.275,261.437L271.275,261.437
				c-1.038,0-1.879,0.841-1.879,1.879v12.576h3.758v-12.576C273.154,262.278,272.312,261.437,271.275,261.437z"/>
		</g>
		<g>
			<polygon style="fill:#FFFFFF;stroke:#263238;stroke-miterlimit:10;" points="260.876,292.37 254.787,292.37 254.073,299.886 
				261.59,299.886 			"/>
			<polygon style="fill:#FFFFFF;stroke:#263238;stroke-miterlimit:10;" points="259.167,292.37 256.496,292.37 256.183,299.886 
				259.48,299.886 			"/>
		</g>
		<g>
			<polygon style="fill:#FFFFFF;stroke:#263238;stroke-miterlimit:10;" points="288.734,292.37 282.645,292.37 281.931,299.886 
				289.448,299.886 			"/>
			<polygon style="fill:#FFFFFF;stroke:#263238;stroke-miterlimit:10;" points="287.025,292.37 284.354,292.37 284.041,299.886 
				287.338,299.886 			"/>
		</g>
	</g>
</g>
<g id="Shelves_3">
	<g>
		<rect x="610.433" y="185.497" style="fill:#A6A6A6;stroke:#263238;stroke-miterlimit:10;" width="106.556" height="5.721"/>
		<rect x="610.433" y="253.383" style="fill:#A6A6A6;stroke:#263238;stroke-miterlimit:10;" width="106.556" height="5.721"/>
	</g>
</g>
<g id="Shelves_2">
	<g>
		<g>
			<rect x="463.22" y="307.609" style="fill:#A6A6A6;stroke:#263238;stroke-miterlimit:10;" width="131.963" height="138.661"/>
			<rect x="463.22" y="307.609" style="fill:#A6A6A6;stroke:#263238;stroke-miterlimit:10;" width="131.963" height="70.592"/>
			<rect x="463.22" y="307.609" style="fill:#A6A6A6;stroke:#263238;stroke-miterlimit:10;" width="131.963" height="33.75"/>
			<rect x="528.958" y="307.609" style="fill:#A6A6A6;stroke:#263238;stroke-miterlimit:10;" width="66.224" height="138.661"/>
			<rect x="463.22" y="300.002" style="fill:#A6A6A6;stroke:#263238;stroke-miterlimit:10;" width="131.963" height="7.607"/>
		</g>
		<rect x="477.085" y="321.611" style="fill:#FFFFFF;stroke:#263238;stroke-miterlimit:10;" width="38.52" height="2.562"/>
		<rect x="477.085" y="357.843" style="fill:#FFFFFF;stroke:#263238;stroke-miterlimit:10;" width="38.52" height="2.562"/>
		
			<rect x="501.84" y="412.638" transform="matrix(-1.836970e-16 1 -1 -1.836970e-16 935.0178 -107.1808)" style="fill:#FFFFFF;stroke:#263238;stroke-miterlimit:10;" width="38.52" height="2.562"/>
		
			<rect x="517.262" y="336.463" transform="matrix(-1.836970e-16 1 -1 -1.836970e-16 874.2647 -198.7778)" style="fill:#FFFFFF;stroke:#263238;stroke-miterlimit:10;" width="38.52" height="2.562"/>
	</g>
</g>
<g id="Shelves_1">
	<g>
		<g>
			<rect x="334.914" y="90.646" style="fill:#A6A6A6;stroke:#263238;stroke-miterlimit:10;" width="131.963" height="101.541"/>
			<g>
				<rect x="398.55" y="92.475" style="fill:#616161;stroke:#263238;stroke-miterlimit:10;" width="4.691" height="98.928"/>
			</g>
		</g>
		<g>
			<rect x="466.636" y="90.646" style="fill:#A6A6A6;stroke:#263238;stroke-miterlimit:10;" width="131.962" height="114.347"/>
		</g>
		<g>
			<rect x="471.715" y="90.646" style="fill:#616161;stroke:#263238;stroke-miterlimit:10;" width="121.804" height="114.347"/>
		</g>
		<g>
			<rect x="466.636" y="198.198" style="fill:#A6A6A6;stroke:#263238;stroke-miterlimit:10;" width="131.962" height="6.795"/>
		</g>
		<g>
			<rect x="466.636" y="90.646" style="fill:#A6A6A6;stroke:#263238;stroke-miterlimit:10;" width="131.962" height="66.781"/>
		</g>
		<g>
			<rect x="475.91" y="99.243" style="fill:#616161;stroke:#263238;stroke-miterlimit:10;" width="113.413" height="49.588"/>
		</g>
		<g>
			<rect x="203.193" y="90.646" style="fill:#A6A6A6;stroke:#263238;stroke-miterlimit:10;" width="131.962" height="114.347"/>
			<g>
				<rect x="266.828" y="92.731" style="fill:#616161;stroke:#263238;stroke-miterlimit:10;" width="4.691" height="111.368"/>
			</g>
		</g>
		
			<rect x="263.137" y="155.084" transform="matrix(-1.836970e-16 1 -1 -1.836970e-16 438.7615 -126.0318)" style="fill:#FFFFFF;stroke:#263238;stroke-miterlimit:10;" width="38.52" height="2.562"/>
		
			<rect x="373.004" y="146.738" transform="matrix(-1.836970e-16 1 -1 -1.836970e-16 540.2825 -244.2454)" style="fill:#FFFFFF;stroke:#263238;stroke-miterlimit:10;" width="38.52" height="2.562"/>
		
			<rect x="390.776" y="146.738" transform="matrix(-1.836970e-16 1 -1 -1.836970e-16 558.0545 -262.0174)" style="fill:#FFFFFF;stroke:#263238;stroke-miterlimit:10;" width="38.52" height="2.562"/>
		
			<rect x="513.357" y="151.442" transform="matrix(-1 -1.224647e-16 1.224647e-16 -1 1065.2341 305.4457)" style="fill:#FFFFFF;stroke:#263238;stroke-miterlimit:10;" width="38.52" height="2.562"/>
		
			<rect x="239.77" y="155.084" transform="matrix(-1.836970e-16 1 -1 -1.836970e-16 415.395 -102.6652)" style="fill:#FFFFFF;stroke:#263238;stroke-miterlimit:10;" width="38.52" height="2.562"/>
		<rect x="202.522" y="87.385" style="fill:#A6A6A6;stroke:#263238;stroke-miterlimit:10;" width="397.778" height="8.886"/>
	</g>
</g>
<g id="Microwave">
	<g>
		<rect x="497.85" y="160.232" style="fill:#FFFFFF;stroke:#263238;stroke-miterlimit:10;" width="5.37" height="38.097"/>
		<rect x="563.453" y="160.232" style="fill:#FFFFFF;stroke:#263238;stroke-miterlimit:10;" width="5.485" height="38.097"/>
		<rect x="497.85" y="160.232" style="fill:#FFFFFF;stroke:#263238;stroke-miterlimit:10;" width="71.088" height="36.067"/>
		<rect x="497.85" y="165.254" style="fill:#263238;stroke:#263238;stroke-miterlimit:10;" width="51.325" height="26.021"/>
		<rect x="552.832" y="165.254" style="fill:#92E3A9;stroke:#263238;stroke-miterlimit:10;" width="14.152" height="26.021"/>
		<g>
			<rect x="554.331" y="177.181" style="fill:#FFFFFF;stroke:#263238;stroke-miterlimit:10;" width="2.984" height="2.984"/>
			<rect x="558.309" y="177.181" style="fill:#FFFFFF;stroke:#263238;stroke-miterlimit:10;" width="2.984" height="2.984"/>
			<rect x="562.288" y="177.181" style="fill:#FFFFFF;stroke:#263238;stroke-miterlimit:10;" width="2.984" height="2.984"/>
		</g>
		<g>
			<rect x="554.331" y="181.469" style="fill:#FFFFFF;stroke:#263238;stroke-miterlimit:10;" width="2.984" height="2.984"/>
			<rect x="558.309" y="181.469" style="fill:#FFFFFF;stroke:#263238;stroke-miterlimit:10;" width="2.984" height="2.984"/>
			<rect x="562.288" y="181.469" style="fill:#FFFFFF;stroke:#263238;stroke-miterlimit:10;" width="2.984" height="2.984"/>
		</g>
		<g>
			<rect x="554.331" y="185.757" style="fill:#FFFFFF;stroke:#263238;stroke-miterlimit:10;" width="2.984" height="2.984"/>
			<rect x="558.309" y="185.757" style="fill:#FFFFFF;stroke:#263238;stroke-miterlimit:10;" width="2.984" height="2.984"/>
			<rect x="562.288" y="185.757" style="fill:#FFFFFF;stroke:#263238;stroke-miterlimit:10;" width="2.984" height="2.984"/>
		</g>
		<line style="fill:none;stroke:#263238;stroke-miterlimit:10;" x1="549.504" y1="160.661" x2="549.504" y2="196.553"/>
	</g>
</g>
<g id="Gas_Stove">
	<g>
		<rect x="336.275" y="209.37" style="fill:none;stroke:#263238;stroke-miterlimit:10;" width="127.096" height="145.97"/>
		<rect x="336.275" y="209.37" style="fill:#263238;stroke:#263238;stroke-miterlimit:10;" width="127.096" height="3.96"/>
		<rect x="336.275" y="438.691" style="fill:#263238;stroke:#263238;stroke-miterlimit:10;" width="13.803" height="7.581"/>
		<rect x="449.592" y="438.691" style="fill:#263238;stroke:#263238;stroke-miterlimit:10;" width="13.779" height="7.581"/>
		<rect x="336.275" y="296.155" style="fill:#92E3A9;stroke:#263238;stroke-miterlimit:10;" width="127.096" height="145.97"/>
		<rect x="336.275" y="310.659" style="fill:#263238;stroke:#263238;stroke-miterlimit:10;" width="127.096" height="102.613"/>
		<rect x="348.435" y="318.192" style="fill:#92E3A9;stroke:#263238;stroke-miterlimit:10;" width="102.776" height="7.412"/>
		<rect x="385.718" y="417.571" style="fill:#92E3A9;stroke:#263238;stroke-miterlimit:10;" width="28.211" height="4.833"/>
		<g>
			<path style="fill:#263238;stroke:#263238;stroke-miterlimit:10;" d="M363.797,303.264c0-2.517-2.04-4.556-4.557-4.556
				c-2.516,0-4.556,2.04-4.556,4.556s2.04,4.557,4.556,4.557C361.757,307.821,363.797,305.781,363.797,303.264z"/>
			<path style="fill:#263238;stroke:#263238;stroke-miterlimit:10;" d="M380.03,303.264c0-2.517-2.04-4.556-4.556-4.556
				c-2.516,0-4.556,2.04-4.556,4.556s2.04,4.557,4.556,4.557C377.99,307.821,380.03,305.781,380.03,303.264z"/>
			<path style="fill:#263238;stroke:#263238;stroke-miterlimit:10;" d="M396.263,303.264c0-2.517-2.04-4.556-4.556-4.556
				c-2.516,0-4.556,2.04-4.556,4.556s2.04,4.557,4.556,4.557C394.223,307.821,396.263,305.781,396.263,303.264z"/>
			<path style="fill:#263238;stroke:#263238;stroke-miterlimit:10;" d="M412.496,303.264c0-2.517-2.04-4.556-4.557-4.556
				c-2.516,0-4.556,2.04-4.556,4.556s2.04,4.557,4.556,4.557C410.456,307.821,412.496,305.781,412.496,303.264z"/>
			<path style="fill:#263238;stroke:#263238;stroke-miterlimit:10;" d="M428.729,303.264c0-2.517-2.04-4.556-4.556-4.556
				c-2.516,0-4.556,2.04-4.556,4.556s2.04,4.557,4.556,4.557C426.689,307.821,428.729,305.781,428.729,303.264z"/>
			<path style="fill:#263238;stroke:#263238;stroke-miterlimit:10;" d="M444.962,303.264c0-2.517-2.04-4.556-4.556-4.556
				c-2.517,0-4.557,2.04-4.557,4.556s2.04,4.557,4.557,4.557C442.922,307.821,444.962,305.781,444.962,303.264z"/>
		</g>
		<rect x="393.332" y="227.09" style="fill:none;stroke:#263238;stroke-miterlimit:10;" width="12.981" height="3.951"/>
	</g>
</g>
<g id="Refrigerator">
	<g>
		<g>
			<path style="fill:#DEDEDE;stroke:#263238;stroke-miterlimit:10;" d="M197.122,446.27H61.492c-1.009,0-1.826-0.818-1.826-1.826
				V108.849c0-0.606,0.492-1.098,1.098-1.098H197.85c0.607,0,1.098,0.492,1.098,1.098v335.596
				C198.948,445.453,198.131,446.27,197.122,446.27z"/>
			<line style="fill:#FFFFFF;stroke:#263238;stroke-miterlimit:10;" x1="129.307" y1="278.361" x2="129.307" y2="445.915"/>
			<line style="fill:#FFFFFF;stroke:#263238;stroke-miterlimit:10;" x1="129.307" y1="107.395" x2="129.307" y2="272.385"/>
			<path style="fill:#FFFFFF;stroke:#263238;stroke-miterlimit:10;" d="M68.894,278.259h123.551c1.551,0,2.808-1.257,2.808-2.808
				l0,0c0-1.551-1.257-2.808-2.808-2.808H68.894c-1.551,0-2.808,1.257-2.808,2.808l0,0
				C66.086,277.002,67.343,278.259,68.894,278.259z"/>
		</g>
		<rect x="144.675" y="140.285" style="fill:#263238;stroke:#263238;stroke-miterlimit:10;" width="39.684" height="77.009"/>
		<rect x="147.788" y="146.324" style="fill:#FFFFFF;stroke:#263238;stroke-miterlimit:10;" width="33.459" height="42.091"/>
		<g>
			<rect x="148.053" y="193.066" style="fill:#FFFFFF;stroke:#263238;stroke-miterlimit:10;" width="4.763" height="4.91"/>
			<rect x="155.198" y="193.066" style="fill:#FFFFFF;stroke:#263238;stroke-miterlimit:10;" width="4.763" height="4.91"/>
			<rect x="162.342" y="193.066" style="fill:#FFFFFF;stroke:#263238;stroke-miterlimit:10;" width="4.763" height="4.91"/>
			<rect x="169.487" y="193.066" style="fill:#FFFFFF;stroke:#263238;stroke-miterlimit:10;" width="4.763" height="4.91"/>
			<rect x="176.631" y="193.066" style="fill:#FFFFFF;stroke:#263238;stroke-miterlimit:10;" width="4.763" height="4.91"/>
		</g>
		<g>
			<rect x="148.053" y="200.959" style="fill:#FFFFFF;stroke:#263238;stroke-miterlimit:10;" width="4.763" height="4.91"/>
			<rect x="155.198" y="200.959" style="fill:#FFFFFF;stroke:#263238;stroke-miterlimit:10;" width="4.763" height="4.91"/>
			<rect x="162.342" y="200.959" style="fill:#FFFFFF;stroke:#263238;stroke-miterlimit:10;" width="4.763" height="4.91"/>
			<rect x="169.487" y="200.959" style="fill:#FFFFFF;stroke:#263238;stroke-miterlimit:10;" width="4.763" height="4.91"/>
			<rect x="176.631" y="200.959" style="fill:#FFFFFF;stroke:#263238;stroke-miterlimit:10;" width="4.763" height="4.91"/>
		</g>
		<rect x="74.709" y="198.18" style="fill:#FFFFFF;stroke:#263238;stroke-miterlimit:10;" width="35.386" height="50.985"/>
		<rect x="81.128" y="198.18" style="fill:#263238;stroke:#263238;stroke-miterlimit:10;" width="22.549" height="50.985"/>
		<rect x="81.128" y="198.18" style="fill:#FFFFFF;stroke:#263238;stroke-miterlimit:10;" width="22.549" height="15.779"/>
	</g>
</g>
<g id="Floor">
	<line style="fill:none;stroke:#263238;stroke-miterlimit:10;" x1="16.173" y1="446.27" x2="727.227" y2="446.27"/>
</g>
</svg>
