<?xml version="1.0" encoding="utf-8"?>
<!-- Generator: Adobe Illustrator 27.5.0, SVG Export Plug-In . SVG Version: 6.00 Build 0)  -->
<svg version="1.1" xmlns="http://www.w3.org/2000/svg" xmlns:xlink="http://www.w3.org/1999/xlink" x="0px" y="0px"
	 viewBox="0 0 750 500" style="enable-background:new 0 0 750 500;" xml:space="preserve">
<g id="BACKGROUND">
	<rect style="fill:#FFFFFF;" width="750" height="500"/>
</g>
<g id="OBJECTS">
	<g>
		<g>
			<path style="fill:#FEF4F2;" d="M48,430.99c0,0,8-126.356,40-141.173s59.408-13.044,77.204-48.43s80.199-208.621,200.998-136.004
				C487,178,445.136,182.247,521.568,133.123C598,84,716,314.98,716,430.99H48z"/>
			<g>
				<path style="fill:#F4E1D7;" d="M560.476,256.466v-57.143h-57.899v57.143h-8.812v-21.889h-57.899v21.889h-7.577v-36.884h-92.577
					v36.884h-3.783v-67.314h-6.455v-36.703h-29.796v36.703H271.54v67.314h-6.168V212.55h-60.388v43.915h-6.966v-77.385h-2.383
					c-14.835,26.443-24.836,51.184-30.429,62.306C147.408,276.773,120,275,88,289.817c-18.755,8.684-29.263,55.678-34.751,93.097
					h657.54c-7.761-39.854-23.637-85.136-43.828-126.448H560.476z"/>
				<path style="fill:#B8F2DF;" d="M48,430.99h668c0-67.839-40.351-174.989-89.144-242.456c-2.006-1.03-3.983-1.937-5.928-2.703
					c-79.071-31.169-116.416,87.115-116.416,87.115C441.025,246.891,413,317,310.191,356.064
					c-70.818,26.909-136.5-41.505-170.521-86.688c-14.834,8.608-32.42,11.527-51.671,20.441C56,304.634,48,430.99,48,430.99z"/>
				<g>
					<path style="fill:#FFFFFF;" d="M425.644,209.591h91.917l-23.16-3.974c0,0-8.862-15.284-22.798-7.284
						c0,0-8.269-11.301-20.269-2.317C451.333,196.016,431.621,182.848,425.644,209.591z"/>
					<path style="fill:#FFFFFF;" d="M220.667,169.667H347.51L301.996,165c0,0-9.935-31.333-26.799-23
						c0,0-23.864-12.333-35.864,7.667C239.333,149.667,220.667,149.667,220.667,169.667z"/>
					<path style="fill:#FFFFFF;" d="M307.752,282.602h109.758l-39.383-4.038c0,0-8.597-27.113-23.189-19.902
						c0,0-20.649-10.672-31.033,6.634C323.904,265.296,307.752,265.296,307.752,282.602z"/>
				</g>
				<path style="fill:#6CE0BF;" d="M88,289.817C56,304.634,48,430.99,48,430.99h668c0-49.572-21.548-120.136-52.19-180.869
					c-61.633,8.667-163.713,151.21-230.759,160.407C362.159,420.254,337,358,283.208,296.324
					c-53.792-61.676-79.601-2.233-79.601-2.233c-15.774-20.005-30.094-34.514-43.089-44.57
					C142.77,276.572,117.315,276.243,88,289.817z"/>
				<g>
					<path style="fill:#3C967E;" d="M661.5,304c-16-2.5-14.5,20.402-14.5,20.402c-20.5-8.098-26.071,21.791-26.071,21.791
						l82.497,5.676c-6.222-22.501-14.496-45.879-24.242-68.691C663.341,283.688,661.5,304,661.5,304z"/>
					<path style="fill:#3C967E;" d="M64.715,340.898c0,0,5.618-22.761,17.285-16.497c0,0,8.277-15.06,18.138-5.397
						c0,0,6.862-8.368,20.195,10.98c0,0,17.705-2.984,21.852,14.182L64.715,340.898z"/>
				</g>
				<g>
					<g>
						<path style="fill:#6C4826;" d="M150.674,215.436c-1.34-0.28-2.656,0.581-2.937,1.922c-0.085,0.407-6.003,27.955-19.018,45.549
							c-1.346-0.232-2.467-0.893-3.462-2.046c-5.965-6.917-4.417-27.624-3.317-35.019c0.202-1.355-0.734-2.618-2.089-2.82
							c-1.353-0.201-2.618,0.734-2.82,2.089c-0.44,2.95-4.053,29.107,4.466,38.99c1.132,1.314,2.423,2.291,3.858,2.937
							c-4.913,5.433-10.689,9.303-17.381,10.08v-82.123c0-1.371-1.111-2.482-2.482-2.482c-1.371,0-2.482,1.111-2.482,2.482v69.586
							c-6.641-0.565-12.301-3.436-17.234-8.745c-24.656-26.534-19.378-102.548-19.322-103.312c0.1-1.367-0.926-2.557-2.293-2.658
							c-1.37-0.097-2.557,0.926-2.657,2.293c-0.237,3.21-5.49,78.935,20.634,107.053c5.841,6.288,12.855,9.752,20.872,10.342v76.659
							c0,1.371,1.111,2.482,2.482,2.482c1.371,0,2.482-1.111,2.482-2.482v-64.108c31.572-2.934,44.093-61.192,44.623-63.734
							C152.877,217.03,152.016,215.715,150.674,215.436z"/>
						<g>
							<ellipse style="fill:#6CE0BF;" cx="102.036" cy="166.72" rx="38.057" ry="68.493"/>
							<ellipse style="fill:#58CCAE;" cx="119.486" cy="191.024" rx="28.899" ry="52.114"/>
							<ellipse style="fill:#51BFA6;" cx="153.822" cy="207.215" rx="28.603" ry="34.775"/>
							<ellipse style="fill:#51BFA6;" cx="57.572" cy="216.812" rx="23.976" ry="29.149"/>
							<ellipse style="fill:#89EFCF;" cx="60.919" cy="145.218" rx="19.608" ry="23.819"/>
						</g>
					</g>
					<g>
						<path style="fill:#6C4826;" d="M575.914,189.148c1.776-0.371,3.52,0.77,3.892,2.547c0.113,0.54,7.955,37.048,25.204,60.365
							c1.784-0.307,3.27-1.183,4.588-2.711c7.905-9.167,5.854-36.61,4.396-46.41c-0.267-1.796,0.972-3.47,2.769-3.738
							c1.793-0.267,3.469,0.972,3.738,2.768c0.583,3.909,5.371,38.575-5.919,51.673c-1.5,1.741-3.211,3.036-5.113,3.893
							c6.511,7.2,14.166,12.329,23.035,13.358V162.059c0-1.817,1.473-3.289,3.289-3.289c1.817,0,3.289,1.473,3.289,3.289v92.22
							c8.801-0.748,16.302-4.554,22.839-11.59c32.675-35.165,25.681-135.903,25.607-136.916c-0.133-1.812,1.227-3.389,3.039-3.522
							c1.816-0.129,3.389,1.228,3.522,3.039c0.314,4.254,7.276,104.61-27.345,141.874c-7.741,8.333-17.037,12.924-27.661,13.706
							v101.593c0,1.817-1.472,3.289-3.289,3.289c-1.817,0-3.289-1.472-3.289-3.289v-84.96
							c-41.841-3.888-58.435-81.096-59.137-84.465C572.995,191.261,574.136,189.519,575.914,189.148z"/>
						<g>
							<ellipse style="fill:#6CE0BF;" cx="640.373" cy="124.587" rx="50.435" ry="90.772"/>
							<ellipse style="fill:#58CCAE;" cx="617.248" cy="156.796" rx="38.299" ry="69.065"/>
							<ellipse style="fill:#51BFA6;" cx="571.742" cy="178.254" rx="37.907" ry="46.086"/>
							<ellipse style="fill:#51BFA6;" cx="699.299" cy="190.972" rx="31.774" ry="38.63"/>
							<ellipse style="fill:#89EFCF;" cx="694.863" cy="96.091" rx="25.985" ry="31.566"/>
						</g>
					</g>
					<g>
						<path style="fill:#6C4826;" d="M513.129,273.854c0.791-0.165,1.567,0.342,1.732,1.134c0.05,0.24,3.541,16.49,11.218,26.868
							c0.794-0.137,1.455-0.527,2.042-1.207c3.519-4.08,2.606-16.295,1.957-20.657c-0.119-0.799,0.433-1.544,1.232-1.664
							c0.798-0.119,1.544,0.433,1.664,1.232c0.26,1.74,2.39,17.169-2.634,22.999c-0.668,0.775-1.429,1.351-2.276,1.733
							c2.898,3.205,6.305,5.488,10.253,5.946v-48.441c0-0.809,0.655-1.464,1.464-1.464c0.809,0,1.464,0.655,1.464,1.464v41.046
							c3.917-0.333,7.256-2.027,10.166-5.159c14.543-15.651,11.43-60.489,11.397-60.94c-0.059-0.806,0.546-1.508,1.352-1.568
							c0.808-0.057,1.508,0.547,1.568,1.353c0.14,1.893,3.238,46.561-12.171,63.147c-3.446,3.709-7.583,5.753-12.312,6.1v45.218
							c0,0.809-0.655,1.464-1.464,1.464c-0.809,0-1.464-0.655-1.464-1.464V313.18c-18.623-1.73-26.009-36.095-26.321-37.594
							C511.83,274.794,512.338,274.019,513.129,273.854z"/>
						<g>
							<ellipse style="fill:#6CE0BF;" cx="541.819" cy="245.119" rx="22.448" ry="40.401"/>
							<ellipse style="fill:#58CCAE;" cx="531.526" cy="259.455" rx="17.046" ry="30.74"/>
							<ellipse style="fill:#51BFA6;" cx="511.272" cy="269.005" rx="16.872" ry="20.512"/>
							<ellipse style="fill:#51BFA6;" cx="568.047" cy="274.666" rx="14.142" ry="17.194"/>
							<ellipse style="fill:#89EFCF;" cx="566.072" cy="232.435" rx="11.566" ry="14.05"/>
						</g>
					</g>
				</g>
				<path style="fill:#51BFA6;" d="M699.952,339.914c-54.281-9.394-129.476,21.843-242.128,53.215
					c-138.322,38.521-184.607-1.931-275.073-37.065c-55.88-21.702-97.756-19.404-121.614-14.476C51.097,382.11,48,430.99,48,430.99
					h668C716,404.938,710.046,373.087,699.952,339.914z"/>
				<path style="fill:#A8E2D1;" d="M48,430.99h668c0,0-109.302,9.76-78.5,13.207C740.417,455.714,656.589,470,538.295,470
					s-134.386-20.095-119.34-23.048C434,444,312.516,441,358.758,463S-3.5,482,98,455.838C142.833,444.282,48,430.99,48,430.99z"/>
				<g>
					<path style="fill:#6CE0BF;" d="M458.226,201.114c-7.163-1.103-6.927,7.327-6.927,7.327S459.729,208.204,458.226,201.114z"/>
					<path style="fill:#6CE0BF;" d="M182.913,112.871c-7.163-1.103-6.927,7.326-6.927,7.326S184.416,119.962,182.913,112.871z"/>
					<path style="fill:#6CE0BF;" d="M309.969,71.582c-7.163-1.103-6.927,7.326-6.927,7.326S311.472,78.673,309.969,71.582z"/>
					<path style="fill:#6CE0BF;" d="M378.374,202.004c-7.163-1.103-6.927,7.326-6.927,7.326S379.877,209.094,378.374,202.004z"/>
					<path style="fill:#6CE0BF;" d="M241.043,179.806c-2.156-6.92-9.625-3.004-9.625-3.004S235.333,184.27,241.043,179.806z"/>
					<path style="fill:#6CE0BF;" d="M190.022,241.388c4.1-5.977-3.598-9.419-3.598-9.419S182.981,239.667,190.022,241.388z"/>
					<path style="fill:#6CE0BF;" d="M514.097,170.224c2.484-6.809-5.828-8.228-5.828-8.228S506.85,170.309,514.097,170.224z"/>
					<path style="fill:#6CE0BF;" d="M476.233,245.919c6.394-3.412,1.151-10.017,1.151-10.017S470.779,241.145,476.233,245.919z"/>
					<path style="fill:#6CE0BF;" d="M702.301,284.475c6.992,1.909,7.714-6.493,7.714-6.493S701.613,277.259,702.301,284.475z"/>
				</g>
			</g>
		</g>
		<g>
			<g>
				<g>
					<g>
						<g>
							<path style="fill:#89402D;" d="M280.148,406.749c0,0,1.282,3.996,2.316,8.834c1.034,4.838-0.248,10.669-1.158,14.142
								c-0.91,3.474-1.902,4.342-1.902,6.203h23.819c0,0-0.496-2.302-1.489-7.974c-0.992-5.672-0.563-19.835,0.587-22.492
								C303.471,402.805,277.537,395.93,280.148,406.749z"/>
							<g>
								<path style="fill:#542218;" d="M282.009,433.033c0,0-3.225-1.075-3.225,6.617h24.439c0,0,2.067-4.032-0.579-6.668
									L282.009,433.033z"/>
								<path style="fill:#542218;" d="M302.491,430.103c-12.663-9.945-21.46-0.81-21.547-0.717c-0.187,0.2-0.176,0.514,0.023,0.701
									c0.199,0.187,0.512,0.176,0.701-0.022c0.332-0.353,8.283-8.547,20.211,0.82c0.091,0.071,0.199,0.106,0.306,0.106
									c0.147,0,0.293-0.065,0.391-0.19C302.745,430.585,302.707,430.273,302.491,430.103z"/>
							</g>
						</g>
						<g>
							<polygon style="fill:#DE9595;" points="330.237,399.58 330.763,416.948 345.153,416.948 347.51,398.329 							"/>
							<path style="fill:#89402D;" d="M322.575,441.635h24.439c0,0,1.241,0.124,1.241-5.086s0-23.819,0-23.819
								s-14.142-5.831-21.09,1.489l-0.923,16.085C326.242,430.304,322.575,431.71,322.575,441.635z"/>
							<path style="fill:#542218;" d="M347.982,439.96c0,0-0.803,0.765-3.201,0.517s-18.939-4.88-21.668-1.075
								c-2.729,3.804,0.662,6.782,0.662,6.782h21.834C345.608,446.183,347.982,446.059,347.982,439.96z"/>
							<path style="fill:#542218;" d="M345.9,432.136c-10.733-7.798-19.829-2.31-19.92-2.253c-0.233,0.144-0.304,0.451-0.159,0.683
								c0.145,0.233,0.451,0.303,0.684,0.16c0.085-0.053,8.613-5.197,18.812,2.213c0.088,0.064,0.19,0.095,0.291,0.095
								c0.154,0,0.305-0.071,0.402-0.204C346.171,432.607,346.122,432.297,345.9,432.136z"/>
						</g>
					</g>
					<g>
						<path style="fill:#FFB588;" d="M334.892,295.478c0,0-5.695,7.193-6.036,18.11c0,0-19.416-1.226-26.859-15.493
							c0,0,12.116-5.912,14.101-15.493L334.892,295.478z"/>
						<path style="fill:#FF8752;" d="M316.097,282.602c-0.64,3.091-2.337,5.797-4.339,8.049c11.096,13.315,21.925,5.29,21.925,5.29
							l0.811,0.084c0.242-0.348,0.397-0.548,0.397-0.548L316.097,282.602z"/>
					</g>
					<g>
						<path style="fill:#FFA70E;" d="M331.846,300.795c0,0,18.476,3.882,24.431,9.175c5.955,5.293,22.413,49.87,26.713,61.449
							c4.301,11.578-8.684,23.24-20.097,32.668c-11.413,9.428-15.052,12.075-15.052,12.075s-11.413-3.474-11.744-15.879
							c0,0,16.894-16.783,23.157-23.653l-85.516-2.646l4.631-61.201c0,0-35.563,15.548-42.841,17.037
							c-7.278,1.489-25.315,0.218-25.315,0.218l-6.607,0.232c0,0-1.821-8.887-9.926-7.067c0,0,4.797-5.789,21.669-9.263
							c16.872-3.474,41.352-14.037,53.096-22.992c11.744-8.955,13.695-10.238,20.312-9.57s24.055,8.004,24.055,8.004
							s-4.767,6.363,2.568,15.295C315.38,304.677,325.708,309.081,331.846,300.795z"/>
						<g>
							<g>
								<g>
									<circle style="fill:#CE800D;" cx="309.861" cy="344.167" r="3.597"/>
									<circle style="fill:#CE800D;" cx="310.688" cy="329.694" r="3.597"/>
									<path style="fill:#CE800D;" d="M317.054,313.926c0,1.986-1.61,3.597-3.597,3.597c-1.986,0-3.597-1.61-3.597-3.597
										s1.61-3.597,3.597-3.597C315.444,310.329,317.054,311.939,317.054,313.926z"/>
									<path style="fill:#CE800D;" d="M313.788,359.661c0,1.986-1.61,3.597-3.597,3.597c-1.986,0-3.597-1.61-3.597-3.597
										c0-1.986,1.61-3.597,3.597-3.597C312.178,356.064,313.788,357.674,313.788,359.661z"/>
								</g>
							</g>
							<g>
								<path style="fill:#CE800D;" d="M365.622,370.599c-4.082,0.694-6.698,5.591-6.807,5.8c-0.128,0.242-0.034,0.543,0.209,0.67
									c0.074,0.039,0.153,0.057,0.23,0.057c0.178,0,0.351-0.097,0.44-0.266c0.024-0.047,2.491-4.67,6.095-5.282
									c0.27-0.047,0.452-0.302,0.406-0.573C366.149,370.735,365.895,370.553,365.622,370.599z"/>
								<path style="fill:#CE800D;" d="M339.511,323.349c-0.01-0.274-0.268-0.49-0.514-0.478c-0.274,0.011-0.488,0.24-0.478,0.515
									c0.039,1.071,0.646,16.969,2.617,30.621c-4.973-8.125-8.595-25.587-8.634-25.777c-0.055-0.268-0.313-0.44-0.586-0.387
									c-0.268,0.055-0.441,0.318-0.386,0.586c0.172,0.84,4.261,20.555,9.947,27.826c1.216,7.641,2.893,14.237,5.182,16.584
									c0.097,0.1,0.226,0.15,0.355,0.15c0.125,0,0.25-0.047,0.346-0.141c0.196-0.192,0.2-0.506,0.009-0.702
									C341.125,365.743,339.527,323.773,339.511,323.349z"/>
							</g>
						</g>
					</g>
					<g>
						<path style="fill:#FF6044;" d="M336.215,401.905c0,0-4.587,0.859-6.653-0.96v-5.128l-2.232-5.128l-15.606,3.143
							c0,0-4.412,11.537-9.044,12.199v6.327c0,0-18.522-3.97-23.319-6.286c0,0-6.559-6.403-5.843-17.757
							c0.716-11.354,4.52-24.422,12.294-25.249c7.774-0.827,24.977,3.143,26.796,3.97c1.819,0.827,1.676,4.962,1.676,4.962
							s2.293-41.186,25.285-41.186s19.684,45.818,19.684,45.818L336.215,401.905z"/>
						<g>
							<path style="fill:#C13127;" d="M325.886,386.131c1.996,1.348,6.265,3.874,10.444,4.044c0.005,0,0.01,0,0.016,0
								c0.198,0,0.363-0.157,0.371-0.357c0.009-0.206-0.151-0.379-0.357-0.388c-5.074-0.206-10.503-4.207-11.108-4.665
								c-0.214-0.432-0.416-0.804-0.589-1.064c-0.858-1.287-2.275-2.316-2.757-2.645c-0.56-13.193-1.028-33.291-0.038-35.095
								c0.099-0.18,0.033-0.407-0.147-0.506c-0.179-0.098-0.407-0.032-0.505,0.147c-1.415,2.58-0.19,32.295-0.046,35.675
								c0.005,0.122,0.069,0.233,0.172,0.298c0.017,0.011,1.766,1.135,2.702,2.538c0.958,1.436,2.919,6.654,2.939,6.707
								c0.056,0.149,0.198,0.241,0.348,0.241c0.044,0,0.088-0.008,0.131-0.023c0.192-0.073,0.29-0.287,0.218-0.48
								C327.625,390.414,326.757,388.108,325.886,386.131z"/>
							<path style="fill:#C13127;" d="M339.913,397.416c-5.35,0.855-10.115-1.892-10.162-1.92c-0.177-0.106-0.406-0.045-0.509,0.132
								c-0.104,0.177-0.045,0.405,0.132,0.51c0.175,0.103,3.786,2.192,8.377,2.192c0.738,0,1.502-0.054,2.281-0.179
								c0.203-0.032,0.341-0.223,0.308-0.426C340.307,397.52,340.113,397.389,339.913,397.416z"/>
							<path style="fill:#C13127;" d="M314.212,371.633c-0.202,0.041-0.331,0.237-0.291,0.438c0.017,0.084,1.701,8.419,1.461,11.393
								c-0.239,2.95-3.949,10.124-3.987,10.196c-0.095,0.182-0.023,0.407,0.159,0.502c0.055,0.028,0.113,0.042,0.171,0.042
								c0.135,0,0.265-0.073,0.331-0.201c0.156-0.299,3.817-7.38,4.068-10.479c0.25-3.078-1.402-11.254-1.472-11.6
								C314.609,371.721,314.415,371.586,314.212,371.633z"/>
							<path style="fill:#C13127;" d="M301.286,405.376c-0.163,0.032-16.306,3.236-22.949-5.647
								c-0.123-0.165-0.356-0.198-0.521-0.076c-0.165,0.123-0.198,0.357-0.075,0.521c4.049,5.416,11.229,6.574,16.632,6.574
								c3.839,0,6.78-0.585,7.063-0.644c0.201-0.042,0.331-0.238,0.289-0.439C301.684,405.464,301.487,405.341,301.286,405.376z"/>
							<path style="fill:#C13127;" d="M276.85,394.752c-0.771-2.185-0.017-5.694,0.131-6.328c1.626-1.455,3.582-2.883,5.149-3.044
								c0.204-0.021,0.353-0.203,0.332-0.408c-0.021-0.204-0.195-0.351-0.409-0.332c-3.582,0.369-8.623,6.306-8.836,6.559
								c-0.133,0.157-0.112,0.392,0.045,0.524c0.07,0.058,0.155,0.087,0.24,0.087c0.106,0,0.211-0.045,0.284-0.133
								c0.022-0.025,0.95-1.117,2.259-2.384c-0.251,1.44-0.528,3.919,0.103,5.708c0.048,0.135,0.101,0.266,0.159,0.392
								c0.063,0.136,0.197,0.216,0.338,0.216c0.052,0,0.106-0.011,0.156-0.034c0.187-0.087,0.268-0.308,0.182-0.494
								C276.934,394.975,276.89,394.865,276.85,394.752z"/>
						</g>
					</g>
					<g>
						<g>
							<path style="fill:#FFB588;" d="M346.873,294.002c0.831-0.464,1.57-1.004,2.213-1.584c1.783-1.61,2.771-3.544,2.61-5.175
								c-0.042-0.432-0.157-0.845-0.368-1.222c-0.994-1.779-3.645-2.287-6.524-1.474c-0.862,0.243-1.743,0.6-2.608,1.083
								c-3.752,2.096-5.747,5.668-4.456,7.98c0.022,0.039,0.049,0.073,0.073,0.109c0.003,0.004,0.006,0.008,0.008,0.012
								C339.191,295.923,343.191,296.059,346.873,294.002z"/>
							<path style="fill:#FFB588;" d="M313.815,263.539c-2.648-0.022-4.823,3.445-4.857,7.742c-0.032,3.903,1.714,7.139,4.018,7.718
								c0.002,0,0.003,0.001,0.005,0.002c0.231,0.058,0.466,0.098,0.708,0.1c2.648,0.022,4.823-3.445,4.857-7.742
								c0.009-1.111-0.128-2.167-0.379-3.125C317.448,265.485,315.778,263.554,313.815,263.539z"/>
						</g>
						<path style="fill:#FFCAB1;" d="M320.107,294.504c2.915,1.831,6.201,2.564,9.391,2.339c4.802-0.339,9.384-2.868,12.141-7.256
							l10.444-16.626l-26.449-16.615l-10.444,16.626c-1.88,2.993-2.602,6.376-2.318,9.645
							C313.28,287.326,315.796,291.796,320.107,294.504z"/>
						<g>
							<g>
								<path style="fill:#C4493A;" d="M335.838,278.23c0,0,4.97,0.361,6.033,4.208c1.064,3.847,1.838-1.213-0.252-3.545
									c-2.09-2.333-3.66-2.029-3.66-2.029s-0.066-0.597-0.416-0.89C336.572,275.161,333.77,277.913,335.838,278.23z"/>
								<path style="fill:#C4493A;" d="M327.077,272.479c0,0-2.395-4.37-6.335-3.738c-3.941,0.632,0.339-2.176,3.329-1.245
									c2.99,0.931,3.366,2.485,3.366,2.485s0.57-0.188,0.982,0.008C329.563,270.535,328.225,274.228,327.077,272.479z"/>
							</g>
							<g>
								<path style="fill:#DF7660;" d="M326.784,295.047c-0.481-1.327,1.17-3.142,3.688-4.056c2.518-0.913,4.949-0.578,5.43,0.748
									s-1.17,3.142-3.688,4.056C329.697,296.709,327.266,296.374,326.784,295.047z"/>
								<path style="fill:#DF7660;" d="M315.862,278.589c-1.41,0.06-2.461,2.277-2.348,4.953c0.113,2.676,1.347,4.797,2.757,4.738
									c1.41-0.059,2.461-2.277,2.349-4.953C318.507,280.651,317.272,278.53,315.862,278.589z"/>
							</g>
							<path style="fill:#EA344F;" d="M328.449,285.134l-0.118-0.069l-1.789-1.054l-0.377-0.222l-1.789-1.054l-0.118-0.069
								c-0.169-0.1-0.366-0.078-0.44,0.048l-0.559,0.948c-0.074,0.126,0.003,0.309,0.172,0.408l0.118,0.07
								c0,0,0.595,0.461,0.503,0.832c0,0-0.112,0.155,0.609,0.58c0.141,0.083,0.254,0.149,0.345,0.203
								c0.376,0.221,0.377,0.222,0.377,0.222c0.091,0.054,0.204,0.12,0.345,0.203c0.722,0.425,0.803,0.252,0.803,0.252
								c0.28-0.261,0.972,0.037,0.972,0.037l0.118,0.069c0.169,0.1,0.366,0.078,0.44-0.048l0.559-0.948
								C328.695,285.416,328.618,285.233,328.449,285.134z"/>
							<path style="fill:#EA344F;" d="M320.466,287.449l4.797,3.003C325.263,290.452,319.97,293.626,320.466,287.449z"/>
							<g>
								<path style="fill:#200633;" d="M321.077,279.667l-1.922-0.868l1.403-3.108c0.24-0.531,0.864-0.767,1.395-0.527l0,0
									c0.228,0.103,0.402,0.277,0.507,0.484c0.139,0.275,0.157,0.608,0.021,0.911L321.077,279.667z"/>
								<path style="fill:#200633;" d="M333.004,287.386l-1.36-1.612l2.607-2.199c0.445-0.375,1.11-0.319,1.486,0.126l0,0
									c0.161,0.191,0.243,0.423,0.248,0.655c0.007,0.308-0.121,0.616-0.374,0.83L333.004,287.386z"/>
							</g>
						</g>
						<path style="fill:#200633;" d="M360.412,295.478c-1.365-7.052-0.125-25.164-0.993-30.995
							c-0.868-5.831-10.91-17.492-22.761-17.74c-11.851-0.248-23.14,15.631-30.707,21.958c-7.567,6.327-12.757,13.901-12.757,13.901
							l6.255,1.999c0,0-5.315,38.188,14.301,39.8c0,0-2.465-1.489-3.954-5.458c0,0,8.436,0.082,7.567-5.355
							c0,0-4.158,1.698-7.041-5.033c-2.883-6.731-1.367-8.716-1.367-8.716s4.765,0.538,5.222-2.957c0,0-3.358-1.354-2.744-4.879
							c0.042-0.238,0.145-0.467,0.28-0.667l2.463-3.661l0.001-0.004c-0.713-1.6-1.157-3.31-1.308-5.053
							c-0.104-1.199-0.07-2.414,0.104-3.618c-2.304-0.58-4.05-3.816-4.018-7.718c0.035-4.297,2.21-7.764,4.857-7.742
							c1.358,0.011,2.567,0.952,3.427,2.432c0.052,0.308,0.324,2.489-1.82,5.349c-2.316,3.088-2.216,6.436-2.216,6.436
							s3.944-9.335,6.603-9.545c0.005,0,0.008-0.001,0.013-0.002c2.587-0.102,7.516-0.583,9.577-2.733l-4.297,4.65
							c0,0,9.384-0.308,13.105-3.658c0,0-2.433,2.651-1.547,6.079l0.689-1.227c0,0-0.326,1.753,2.099,6.436l0.868-1.931
							c0,0,0.935,3.146,3.182,6.776c0,0.001-0.001,0.001-0.001,0.001s-1.157,7.055-4.94,10.554c0,0,1.293-0.719,4.379-4.523
							c2.506-3.09,3.326-4.246,4.253-4.447c1.874-0.041,3.431,0.568,4.139,1.836c0.211,0.377,0.325,0.79,0.368,1.222
							c0.16,1.631-0.827,3.565-2.61,5.175c-0.642,0.58-1.381,1.119-2.213,1.584c-3.689,2.06-7.696,1.92-9.057-0.282l-0.001,0
							c-1.269,0.948-2.661,1.698-4.131,2.222l-1.837,4.853c0,0-5.598,5.867-12.545,4.378c0,0,4.365,5.061,10.022,3.833
							c0,0-4.736,4.329-10.022,2.357c0,0,1.321,6.464,9.555,3.362c0,0-5.034,5.583-10.309,4.342c0,0,5.125,5.955,16.548-1.117
							c11.423-7.071,13.395-12.248,13.395-12.248s6.502,2.76,7.787,4.267C356.277,309.97,361.777,302.53,360.412,295.478z"/>
					</g>
				</g>
				<g>
					<g>
						<path style="fill:#F4F4E4;" d="M298.632,312.947c0,0,3.474-2.812,4.797-7.691c1.323-4.879,0.165-10.257-2.068-11.124
							c-2.233-0.868-9.263-1.199-12.157-5.913c-2.895-4.714-6.699-7.361-17.203-7.526c-10.503-0.165-21.916,2.977-24.232,6.947
							c-2.316,3.97-1.82,5.624-1.82,5.624s-6.492,4.342-8.973,10.793c-2.481,6.451-8.312,23.447-22.454,25.556
							c-14.142,2.109-54.585-1.861-72.076,3.97c-17.492,5.831-22.454,14.763-30.394,28.533s-28.905,42.675-52.6,33.371
							c0,0-5.21,24.563,22.578,27.416c27.788,2.853,43.047-38.209,43.047-38.209s5.955,8.188,3.474,21.213
							c-2.481,13.026-4.342,13.398-6.203,12.53c0,0-0.124,5.459,3.846,15.507c3.97,10.049,3.101,23.198,5.831,23.198
							c2.729,0,37.093,0,37.093,0s-0.868-7.815-8.436-9.18c-7.567-1.365-5.583-24.563-2.481-27.664
							c3.101-3.101,13.522-9.924,19.849-13.15c6.327-3.225,10.421-8.436,10.173-11.289c0,0,26.92,8.56,32.254,15.879
							c5.334,7.319,7.692,25.183,9.18,30.89c1.489,5.707,0.248,14.515,3.598,14.515c3.349,0,36.72,0,36.72,0
							s0.992-5.582-6.947-8.684c-7.94-3.101-5.955-27.54-3.225-33.247c2.729-5.707,17.12-29.897,19.353-43.42
							c2.233-13.522,2.977-21.338,2.729-25.183c0,0,2.109,3.474,2.109,6.203c0,0,1.861-6.699-0.496-12.281
							c0,0,2.481,1.861,2.977,3.97c0,0-0.248-7.568-1.985-10.917c0,0,2.481,0.248,3.225,1.985c0,0-1.985-8.808-4.342-12.157
							c-2.357-3.35,8.808-3.101,11.413-2.977C297.392,320.556,300.369,316.008,298.632,312.947z"/>
						<g>
							<path style="fill:#D8D7B8;" d="M167.505,403.674c-6.699,4.094-17.244,14.266-22.578,23.322s-1.241,21.338-1.241,21.338
								c7.567,0.248,9.552,8.808,9.552,8.808c8.313,0,15.879,0,15.879,0s-0.868-7.815-8.436-9.18
								c-7.567-1.365-5.583-24.563-2.481-27.664c3.101-3.101,13.522-9.924,19.849-13.15c5.867-2.991,9.807-7.686,10.152-10.628
								l0.021-0.661l-7.195-2.729C179.042,397.099,174.204,399.58,167.505,403.674z"/>
							<path style="fill:#D8D7B8;" d="M283.061,322.464c-5.713,1.985-8.384,39.109-12.962,53.173
								c-4.578,14.064-21.338,35.397-25.307,41.683c-3.97,6.285,0,31.097,0,31.097c7.774,0.331,7.939,8.725,7.939,8.725
								c8.812,0,17.244,0,17.244,0s0.992-5.582-6.947-8.684c-7.94-3.101-5.955-27.54-3.225-33.247
								c2.729-5.707,17.12-29.897,19.353-43.42c2.233-13.522,2.977-21.338,2.729-25.183c0,0,2.109,3.474,2.109,6.203
								c0,0,1.861-6.699-0.496-12.281c0,0,2.481,1.861,2.977,3.97c0,0-0.248-7.568-1.985-10.917c0,0,2.481,0.248,3.225,1.985
								c0,0-1.985-8.808-4.342-12.157C283.124,323.055,283.034,322.742,283.061,322.464z"/>
							<path style="fill:#D8D7B8;" d="M256.684,315.766c1.808,1.145,4.813,1.874,7.927,1.874c3.417,0,6.965-0.88,9.2-3.055
								c3.271-3.184,0.036-10.55-2.326-15.927c-0.763-1.739-1.423-3.239-1.648-4.149c-0.96-3.887-1.39-9.514-1.043-10.179
								c0.136-0.237,0.053-0.541-0.185-0.677c-0.239-0.135-0.542-0.052-0.677,0.185c-0.653,1.142,0.125,7.607,0.941,10.91
								c0.245,0.992,0.92,2.53,1.702,4.31c2.119,4.823,5.32,12.112,2.543,14.816c-3.951,3.847-12.371,3.291-15.903,1.053
								c-2.936-1.859-8.791-16.392-10.8-21.834c-0.095-0.258-0.382-0.39-0.637-0.294c-0.257,0.095-0.389,0.38-0.294,0.637
								C245.784,294.248,252.864,313.346,256.684,315.766z"/>
							<path style="fill:#D8D7B8;" d="M300.081,311.481c0,0-11.952,3.369-16.873-0.601c0,0,3.019,2.977,8.973,3.225
								c5.573,0.232,6.843,1.873,6.577,2.866c0.5-1.315,0.575-2.789-0.126-4.024C298.632,312.947,299.26,312.436,300.081,311.481z"
								/>
							<path style="fill:#D8D7B8;" d="M121.885,371.262c0.048-0.257-0.112-0.508-0.366-0.572c-0.254-0.069-0.514,0.081-0.595,0.33
								l-1.886,5.912c-0.816-4.74-2.388-17.105,2.093-22.994c0.166-0.218,0.124-0.529-0.094-0.695
								c-0.217-0.167-0.53-0.124-0.695,0.094c-5.862,7.704-2.073,24.985-1.909,25.716c0.049,0.219,0.239,0.377,0.462,0.388
								c0.221-0.014,0.427-0.132,0.495-0.345l1.485-4.653c0.619,4.89,3.616,10.219,3.773,10.495c0.037,0.065,0.093,0.11,0.15,0.151
								c-5.817,8.185-25.15,23.919-25.15,23.919l3.97-1.365c0,0-6.451,9.8-24.935,10.669c-18.484,0.868-19.229-22.826-19.229-22.826
								s-5.21,24.563,22.578,27.416c26.074,2.677,41.117-33.309,42.873-37.759c0.057,0.022,0.113,0.046,0.174,0.046
								c0.083,0,0.167-0.02,0.244-0.065c0.238-0.135,0.322-0.438,0.187-0.676C125.464,384.367,120.938,376.314,121.885,371.262z"/>
						</g>
					</g>
					<g>
						<path style="fill:#561064;" d="M284.077,293.802c0,1.393-0.389,2.522-0.868,2.522c-0.48,0-0.868-1.129-0.868-2.522
							c0-1.393,0.389-2.523,0.868-2.523C283.688,291.279,284.077,292.408,284.077,293.802z"/>
						<path style="fill:#BA586A;" d="M291.189,313.926c0,0,6.782,0.677,7.94,3.24c1.158,2.563,3.152,2.398,2.868-0.194
							c-0.285-2.593-2.805-4.538-2.805-4.538s-8.634,1.336-12.021,0.095C287.17,312.528,289.039,313.746,291.189,313.926z"/>
						<path style="fill:#561064;" d="M300.081,294.877c0,0,1.653-1.365,2.893-0.496c1.241,0.868,3.06,5.955,1.778,6.699
							c-1.282,0.744-1.672-0.272-1.808-1.335c-0.136-1.063-1.252-1.27-2.245-1.146C299.707,298.722,298.256,295.654,300.081,294.877
							z"/>
						<path style="fill:#561064;" d="M234.813,309.544c0,0,16.53,25.619,48.248,12.919l1.684,3.533c0,0-23.811,16.695-51.979-12.071
							L234.813,309.544z"/>
					</g>
				</g>
				<g>
					<g>
						<g>
							<polygon style="fill:#F2819F;" points="319.812,397.836 317.902,395.152 316.689,396.015 313.165,391.062 306.595,395.736 
								310.119,400.689 308.905,401.552 310.815,404.237 309.249,405.351 327.978,431.678 340.108,423.049 321.379,396.722 							
								"/>
							<g>
								<path style="fill:#B73423;" d="M319.524,397.432l-8.997,6.4c-0.223,0.159-0.276,0.469-0.117,0.692
									c0.159,0.224,0.468,0.276,0.692,0.117l8.997-6.4c0.224-0.159,0.276-0.468,0.117-0.692
									C320.057,397.325,319.748,397.273,319.524,397.432z"/>
								<path style="fill:#B73423;" d="M310.406,401.093l6.57-4.674c0.223-0.159,0.276-0.469,0.117-0.692
									c-0.159-0.223-0.469-0.276-0.692-0.117l-6.57,4.674c-0.223,0.159-0.276,0.469-0.117,0.692
									C309.873,401.2,310.183,401.252,310.406,401.093z"/>
								<path style="fill:#B73423;" d="M318.971,400.329c-0.224,0.159-0.276,0.469-0.117,0.692l17.547,24.665
									c0.159,0.223,0.469,0.276,0.692,0.117c0.223-0.159,0.276-0.469,0.117-0.692l-17.547-24.665
									C319.504,400.222,319.195,400.17,318.971,400.329z"/>
							</g>
						</g>
						<g>
							<path style="fill:#ECC1BA;" d="M336.215,401.905c0,0-7.561,1.19-9.464,2.183l0.744,1.737c0,0-4.135,1.075-5.21,1.819
								c-1.075,0.744-5.458,7.195-4.962,7.774c0.496,0.579,0.827,0.662,2.15,0c1.323-0.662,5.376-3.556,6.368-4.052
								c0.992-0.496,2.812-1.241,2.812-1.241s-11,10.917-10.834,11.909c0.165,0.992,0.91,2.481,3.308,0.91
								c0,0-1.489,1.241-0.827,2.068c0.662,0.827,1.158,1.571,2.647,1.075c1.489-0.496,7.774-4.301,8.767-5.293
								c0,0-6.865,7.691-6.534,8.353c0.331,0.662,1.406,1.985,3.143,1.241c1.737-0.744,6.368-5.293,8.353-8.105
								c1.985-2.812,7.135-8.155,6.296-8.717C339.23,411.055,336.215,401.905,336.215,401.905z"/>
							<g>
								<path style="fill:#FF8752;" d="M330.865,415.506l-9.883,7.237c-0.111,0.081-0.135,0.237-0.054,0.347
									c0.048,0.067,0.124,0.102,0.2,0.102c0.051,0,0.102-0.015,0.146-0.047l9.883-7.237c0.111-0.081,0.135-0.236,0.054-0.347
									C331.13,415.448,330.975,415.425,330.865,415.506z"/>
								<path style="fill:#FF8752;" d="M333.64,418.192c-0.109-0.081-0.266-0.058-0.348,0.052l-1.778,2.402
									c-0.081,0.109-0.058,0.266,0.052,0.347c0.045,0.033,0.096,0.048,0.148,0.048c0.076,0,0.151-0.035,0.199-0.101l1.778-2.402
									C333.773,418.43,333.75,418.273,333.64,418.192z"/>
								<path style="fill:#FF8752;" d="M327.496,406.072c0.029,0,0.059-0.005,0.088-0.016l2.896-1.091
									c0.128-0.048,0.193-0.192,0.145-0.32c-0.048-0.129-0.19-0.194-0.32-0.145l-2.896,1.091c-0.128,0.048-0.193,0.192-0.144,0.32
									C327.301,406.011,327.396,406.072,327.496,406.072z"/>
							</g>
						</g>
					</g>
					<g>
						<path style="fill:#ECC1BA;" d="M203.607,330.27c0,0-2.607,3.933-5.584,4.801c-2.977,0.868-4.342,1.737-4.838,0
							c-0.496-1.737,0.496-2.605,0.496-2.605s-5.831,2.605-8.312,5.707c-2.481,3.101-4.094,9.552-5.707,9.552
							c-1.613,0-3.101-0.744-2.605-2.729c0.496-1.985,2.729-6.947,2.729-6.947s-4.838,9.676-6.947,9.676
							c-2.109,0-1.985-0.786-1.902-1.53c0.083-0.744,1.695-4.714,1.695-4.714s-1.365,1.654-2.688,0.868
							c-1.323-0.786-0.868-2.274,0-3.639c0.868-1.365,4.135-5.086,4.135-5.086s-4.266,2.481-4.966,2.316
							c-0.699-0.165-1.651-1.902-1.154-2.316c0.496-0.414,7.733-4.466,10.793-5.086c3.06-0.62,10.647-2.136,14.928-5.334
							C193.681,323.203,200.963,319.803,203.607,330.27z"/>
						<g>
							<path style="fill:#FF8752;" d="M185.609,331.993c-2.908,1.377-5.901,5.73-6.027,5.915c-0.077,0.112-0.048,0.267,0.065,0.344
								c0.043,0.03,0.092,0.044,0.14,0.044c0.079,0,0.157-0.038,0.205-0.109c0.03-0.044,3.044-4.426,5.829-5.746
								c0.124-0.058,0.177-0.206,0.118-0.331C185.88,331.987,185.731,331.932,185.609,331.993z"/>
							<path style="fill:#FF8752;" d="M181.754,331.249c-0.055-0.125-0.2-0.183-0.327-0.127c-5.108,2.244-8.861,9.924-9.018,10.25
								c-0.06,0.123-0.008,0.271,0.115,0.331c0.035,0.017,0.072,0.024,0.108,0.024c0.092,0,0.181-0.051,0.223-0.141
								c0.038-0.077,3.831-7.842,8.771-10.012C181.752,331.522,181.809,331.374,181.754,331.249z"/>
							<path style="fill:#FF8752;" d="M198.597,329.989c-2.63,0.5-4.965,2.204-5.063,2.277c-0.11,0.081-0.134,0.237-0.052,0.347
								c0.048,0.066,0.124,0.101,0.2,0.101c0.051,0,0.103-0.016,0.147-0.048c0.023-0.016,2.341-1.709,4.861-2.189
								c0.135-0.025,0.223-0.155,0.197-0.29C198.861,330.05,198.731,329.955,198.597,329.989z"/>
							<path style="fill:#FF8752;" d="M174.08,333.872c0.073,0,0.146-0.033,0.195-0.095c0.02-0.024,1.97-2.489,3.638-3.322
								c0.123-0.061,0.172-0.21,0.111-0.332c-0.061-0.123-0.21-0.172-0.333-0.111c-1.766,0.883-3.723,3.355-3.805,3.46
								c-0.085,0.108-0.066,0.264,0.041,0.348C173.972,333.854,174.026,333.872,174.08,333.872z"/>
						</g>
					</g>
				</g>
			</g>
			<g>
				<g>
					<g>
						<g>
							<path style="fill:#FFB03B;" d="M480.525,333.105c-0.182,0-0.366-0.049-0.531-0.154c-0.463-0.294-0.6-0.907-0.306-1.371
								c11.43-18.009,26.243-42.013,35.908-58.875c-5.251-2.422-7.764-11.15-7.074-18.282c0.034-0.35,0.076-0.693,0.124-1.027
								c-0.703-5.927,1.231-12.038,3.725-14.252c1.05-0.933,2.24-1.235,3.344-0.844c5.259,1.847,11.11,6.891,11.823,13.69
								c2.94,4.333,2.251,10.285-0.024,14.666c-2.44,4.7-6.263,7.191-9.986,6.629c-12.595,22.128-32.923,54.252-36.164,59.36
								C481.175,332.942,480.854,333.105,480.525,333.105z M521.43,266.285c-0.874,1.609-1.821,3.316-2.825,5.097
								c3.082-0.01,5.706-2.867,7.148-5.642c1.636-3.15,2.359-7.213,1.16-10.601c-0.09,0.236-0.19,0.484-0.296,0.742
								c0.963,3.208,1.039,6.484-0.621,8.556C525.222,265.403,523.83,266.349,521.43,266.285z M510.576,259.629
								c0.605,5.063,2.741,9.958,6.01,11.343c0.992-1.745,1.923-3.403,2.781-4.959c-0.331-0.074-0.676-0.163-1.037-0.269
								C514.365,264.569,511.991,262.177,510.576,259.629z M525.223,258.961c-0.75,1.556-1.656,3.328-2.692,5.276
								c0.756-0.125,1.432-0.437,1.915-1.04C525.177,262.284,525.422,260.759,525.223,258.961z M510.649,253.431
								c0.067,0.484,0.152,0.968,0.26,1.452c0.717,3.22,2.684,7.387,7.985,8.957c0.462,0.138,0.962,0.261,1.472,0.346
								c1.843-3.398,3.279-6.216,4.177-8.254c-0.364-1.107-0.858-2.243-1.474-3.348c-2.166-3.889-5.143-6.211-7.603-5.911
								C513.039,246.967,511.281,249.464,510.649,253.431z M525.024,252.024c0.187,0.353,0.366,0.715,0.536,1.084
								c0.029-0.155,0.045-0.289,0.044-0.4C525.425,252.472,525.231,252.244,525.024,252.024z M515.918,244.66
								c2.998,0,5.739,2.336,7.688,5.065c0.022-0.039,0.047-0.077,0.074-0.113c0.282-0.376,0.781-0.495,1.193-0.313
								c-1.687-4.473-5.931-7.761-9.815-9.126c-0.154-0.053-0.614-0.215-1.369,0.456c-1.223,1.085-2.441,3.724-2.958,6.954
								c1.149-1.652,2.681-2.659,4.496-2.88C515.459,244.673,515.69,244.66,515.918,244.66z"/>
						</g>
						<g>
							<path style="fill:#FF6044;" d="M485.075,330.611c0,1.873-1.518,3.391-3.391,3.391c-1.873,0-3.391-1.518-3.391-3.391
								s1.518-3.391,3.391-3.391C483.557,327.22,485.075,328.738,485.075,330.611z"/>
						</g>
					</g>
					<g>
						<g>
							<path style="fill:#FFB588;" d="M588.517,115.473c-1.74,3.994-5.67,6.133-8.779,4.779c-3.108-1.354-4.218-5.69-2.477-9.683
								c1.74-3.994,5.67-6.133,8.779-4.779C589.148,107.144,590.257,111.479,588.517,115.473z"/>
							<g>
								<path style="fill:#FFB588;" d="M580.401,124.396c0,0,2.224,12.37,10.784,16.96l-22.999,10.917c0,0,0.121-11.165-4.568-17.74
									L580.401,124.396z"/>
								<path style="fill:#FF8752;" d="M580.401,124.396l-16.783,10.137c0.966,1.355,1.725,2.906,2.326,4.513
									c2.932-0.239,9.544-1.477,16.834-7.465C581.003,127.732,580.401,124.396,580.401,124.396z"/>
							</g>
							<path style="fill:#FFCAB1;" d="M548.015,115.292c0,0,2.596,5.459,3.055,10.259c0.459,4.8,7.176,11.136,12.107,12.393
								c4.931,1.257,13.073-5.474,15.679-9.662c2.606-4.187,3.014-13.508,2.304-17.523s-10.146-18.532-21.097-14.204
								C549.113,100.882,543.923,105.903,548.015,115.292z"/>
							<g>
								<g>
									<path style="fill:#452E59;" d="M548.921,117.896c0,0,0.002-1.373,2.077-2.076c2.376-0.805,3.068,1.148,3.406,0.815
										c0.337-0.333-0.831-2.686-3.383-2.46C548.469,114.4,548.076,116.82,548.921,117.896z"/>
									<path style="fill:#452E59;" d="M560.652,113.627c0,0,5.966-4.477,8.843-2.756c2.878,1.721,0.731-0.671-0.732-1.533
										c-2.91-1.715-7.355,2.142-7.73,0.892c-0.133-0.441-2.364,1.629-2.12,2.72C559.159,114.041,559.391,114.482,560.652,113.627
										z"/>
								</g>
								<g>
									<path style="fill:#FFB588;" d="M555.899,124.814c0,0,0.252-0.271,0.615-0.677c0.363-0.406,2.776-2.422,3.619-1.017
										s0.856,1.734-0.254,2.708c-0.79,0.694-4.076-0.775-4.076-0.775"/>
									<path style="fill:#EA344F;" d="M557.644,123.992l0.362-0.149l1.722-0.705l0.113-0.046c0.163-0.067,0.346,0.007,0.411,0.163
										l0.483,1.18c0.064,0.157-0.016,0.338-0.178,0.405l-0.113,0.046c0,0-0.577,0.356-0.507,0.786c0,0,0.099,0.198-0.596,0.482
										c-0.136,0.056-0.244,0.1-0.332,0.136l-1.346,0.453c-0.695,0.285-1.024-0.298-1.024-0.298l-0.113,0.046l0,0
										c-0.163,0.067-0.347-0.007-0.411-0.163l-0.311-1.273c0,0,0.004-0.313,0.426-0.483L557.644,123.992z"/>
								</g>
								<g>
									<path style="fill:#2C2636;" d="M565.836,119.458l-1.514,0.223l-0.342-2.32c-0.03-0.204,0.024-0.402,0.135-0.557
										c0.117-0.163,0.297-0.28,0.51-0.311l0,0c0.207-0.031,0.408,0.025,0.564,0.14c0.159,0.117,0.273,0.295,0.304,0.505
										L565.836,119.458z"/>
									<path style="fill:#2C2636;" d="M554.255,123.302l-1.413,0.587l-0.899-2.165c-0.079-0.191-0.076-0.395-0.005-0.573
										c0.073-0.186,0.219-0.344,0.419-0.427l0,0c0.194-0.08,0.401-0.075,0.581-0.002c0.183,0.074,0.337,0.219,0.419,0.416
										L554.255,123.302z"/>
								</g>
								<g>
									<path style="fill:#DD909F;" d="M576.946,122.179c2.095,1.555,2.308,4.816,0.476,7.284
										c-1.832,2.468-5.015,3.208-7.109,1.654c-2.095-1.555-2.308-4.815-0.476-7.284
										C571.669,121.364,574.852,120.624,576.946,122.179z"/>
									<path style="fill:#DD909F;" d="M556.353,132.348c-0.832-0.699-1.78-1.136-2.73-1.337c1.309,1.687,2.987,3.279,4.748,4.532
										C558.081,134.376,557.41,133.236,556.353,132.348z"/>
								</g>
								<path style="fill:#EA344F;" d="M564.535,129.346c-0.122-0.056-0.27-0.005-0.33,0.12c-0.675,1.444-1.555,2.348-2.611,2.688
									c-1.357,0.437-2.565-0.229-2.576-0.236c-0.122-0.068-0.271-0.024-0.338,0.094c-0.067,0.119-0.025,0.27,0.094,0.338
									c0.042,0.023,0.809,0.45,1.851,0.45c0.346,0,0.723-0.046,1.114-0.171c1.197-0.381,2.178-1.374,2.916-2.953
									C564.713,129.551,564.66,129.404,564.535,129.346z"/>
							</g>
							<path style="fill:#200633;" d="M610.413,157.483c-7.319-15.135-17.009-49.415-22.716-59.339
								c-5.707-9.924-12.846-16.459-27.651-12.613c-12.806,3.327-19.229,11.289-18.236,22.578
								c0.992,11.289,0.868,15.888,1.737,27.855c0.868,11.967,5.869,24.249,12.239,23.38c0,0-6.408-6.947-4.919-11.909
								c0,0,5.114,11.097,13.15,9.949c0.947-4.221,1.239-7.705,0.89-10.197c0,0,1.057-0.617,2.715-1.557
								c-0.382-2.395-1.022-5.122-2.095-7.631c-0.832,0.125-1.627,0.129-2.349-0.055c-4.931-1.257-11.648-7.593-12.107-12.393
								c-0.459-4.8-3.055-10.259-3.055-10.259s1.858-2.146-0.126-6.401c0,0,3.724,4.45,8.932,4.13l-2.29-2.057
								c0,0,5.065,2.477,12.299-0.375l-3.213-3.1c0,0,0.705,0.453,1.983,0.91c2.108,1.464,4.908,2.944,7.632,2.944
								c0.508,0,1.013-0.051,1.51-0.164c1.465-0.331,2.715-1.183,3.754-2.513c1.006,1.719,2.737,5.402,2.782,10.494
								c0,0,2.945-4.955-0.581-12.704c1.699-1.085,3.64-1.407,5.341-0.666c3.108,1.354,4.218,5.69,2.478,9.683
								c-1.491,3.422-4.589,5.475-7.401,5.143c-0.171,1.307-0.406,2.592-0.716,3.782l0.001-0.001c0,0,1.212,6.719,5.275,12.09
								c1.219-0.432,2.125-0.628,2.531-0.465c2.481,0.992,13.646,16.127,17.616,32.999c0.941,3.998,1.74,8.373,2.416,12.813
								C611.513,176.113,614.938,166.84,610.413,157.483z M574.634,110.694c-2.404,0.545-5.069-0.484-7.29-1.791
								c2.53,0.578,6.237,0.791,10.811-0.796c0.02,0.032,0.045,0.072,0.067,0.106C577.231,109.538,576.035,110.377,574.634,110.694z
								"/>
						</g>
						<g>
							<g>
								<path style="fill:#460E54;" d="M557.441,440.083h46.645c0,0-2.357-10.297-5.955-14.018
									c-3.598-3.722-4.962-12.778-4.962-12.778l-15.631,1.985c0,0-6.079,12.282-9.552,13.274
									c-3.474,0.992-10.545,3.722-10.545,12.158"/>
								<polygon style="fill:#FF6044;" points="557.97,436.992 555.828,438.098 554.578,442.068 605.203,442.068 604.086,435.368 
									588.579,437.974 587.339,439.71 561.411,439.71 								"/>
							</g>
							<g>
								<path style="fill:#561064;" d="M588.631,448.648l41.952-20.391c0,0-6.621-8.23-11.484-10.005
									c-4.863-1.774-10.049-9.323-10.049-9.323l-13.191,8.618c0,0-0.098,13.703-2.788,16.114
									c-2.69,2.411-7.857,7.957-4.169,15.544"/>
								<polygon style="fill:#FF6044;" points="587.755,445.637 586.313,447.568 586.923,451.685 632.455,429.554 628.522,424.017 
									615.714,433.139 615.357,435.244 592.039,446.578 								"/>
							</g>
						</g>
						<g>
							<path style="fill:#FF6044;" d="M558.896,245.687c0,0-5.963,52.186-3.874,69.719c2.089,17.533,4.405,35.48,6.141,40.442
								c1.737,4.962,3.97,30.27,6.451,32.255c2.481,1.985,3.722,2.233,3.722,2.233s4.466,20.965,6.203,22.95s6.72,3.728,6.72,3.728
								l4.693,5.825c0,0,18.36-9.676,23.571-13.646l-1.241-4.466l3.722-8.684l-15.879-55.825c0,0,12.542-47.637,13.466-58.554
								c0.924-10.917,0.924-28.037-2.798-38.954C609.793,242.71,577.47,231.545,558.896,245.687z"/>
							<g>
								<path style="fill:#C13127;" d="M599.124,340.714c0.043,0,0.086-0.006,0.13-0.017c0.265-0.072,0.421-0.344,0.349-0.609
									c-0.049-0.182-4.909-18.355-2.97-27.807c0.678-3.311,2.298-8.296,4.172-14.07c3.567-10.985,8.006-24.655,8.493-34.636
									c0.014-0.273-0.198-0.507-0.471-0.52c-0.297-0.042-0.507,0.198-0.52,0.471c-0.483,9.849-4.898,23.449-8.446,34.378
									c-1.884,5.801-3.51,10.812-4.202,14.176c-1.985,9.68,2.781,27.511,2.985,28.266
									C598.704,340.569,598.905,340.714,599.124,340.714z"/>
								<path style="fill:#C13127;" d="M559.403,344.841c-0.072-0.264-0.341-0.418-0.61-0.348c-0.265,0.073-0.42,0.345-0.348,0.61
									l12.411,45.365c0.06,0.221,0.261,0.365,0.479,0.365c0.043,0,0.087-0.006,0.131-0.017c0.265-0.073,0.42-0.345,0.348-0.61
									L559.403,344.841z"/>
								<path style="fill:#C13127;" d="M595.995,411.248c10.295-6.617,19.221-14.727,19.343-14.839
									c0.203-0.185,0.217-0.499,0.032-0.701c-0.184-0.203-0.498-0.217-0.701-0.032c-0.119,0.109-8.706,7.91-18.7,14.408
									c-1.868-6.504-17.364-60.721-19.676-77.131c-2.445-17.359,4.026-91.941,4.092-92.692c0.024-0.273-0.178-0.514-0.451-0.538
									c-0.285-0.01-0.515,0.178-0.538,0.451c-0.02,0.23-0.637,7.346-1.416,17.614c-7.11-0.625-8.751-15.78-8.768-15.936
									c-0.028-0.273-0.278-0.478-0.544-0.443c-0.272,0.027-0.471,0.271-0.443,0.544c0.068,0.673,1.748,16.161,9.679,16.826
									c-1.77,23.508-4.282,62.342-2.596,74.312c2.359,16.75,18.355,72.573,19.787,77.553c-3.63,2.313-7.416,4.425-11.028,5.911
									c-0.225,0.093-0.35,0.335-0.294,0.573c0.052,0.226,0.254,0.383,0.483,0.383c0.012,0,0.023,0,0.035-0.001
									c0.369-0.026,9.245-0.769,27.257-12.366c0.231-0.148,0.298-0.454,0.148-0.685c-0.147-0.231-0.455-0.299-0.685-0.148
									c-10.462,6.736-17.868,9.77-22.203,11.128c2.398-1.238,4.813-2.667,7.158-4.173
									C595.976,411.258,595.986,411.254,595.995,411.248z"/>
							</g>
						</g>
						<path style="fill:#FFB588;" d="M611.281,216.41c0,0,0.744,14.639-4.218,19.105c0,0-1.64-8.119,0-16.127L611.281,216.41z"/>
						<g>
							<path style="fill:#F2819F;" d="M564.906,147.187c0,0,20.82-12.158,23.301-11.165c2.481,0.992,13.646,16.127,17.616,32.999
								s5.458,40.442,5.458,47.389l-2.977,2.977c0,0-1.737,13.894-1.241,16.127l2.729,7.195c0,0-31.827-7.691-50.897,2.977
								c0,0-2.515-5.21,0-6.699l-1.118-1.737c0,0,2.818-16.872,0-29.525c-2.818-12.654-5.618-20.097,0-32.503
								C563.396,162.818,565.672,152.645,564.906,147.187z"/>
							<g>
								<path style="fill:#C64E73;" d="M568.157,205.559c0.062,0.04,0.132,0.058,0.201,0.058c0.122,0,0.243-0.061,0.314-0.172
									c0.111-0.173,0.059-0.404-0.113-0.515c-0.045-0.029-4.378-2.861-2.65-6.902c1.139-0.285,8.219-1.663,17.527,5.282
									c0.067,0.049,0.145,0.074,0.223,0.074c0.113,0,0.225-0.051,0.299-0.149c0.123-0.165,0.089-0.398-0.076-0.521
									c-9.606-7.167-16.793-5.767-18.144-5.412c-0.577-0.591-2.665-2.893-2.468-5.006c0.247-2.629,1.083-33.585,1.119-34.902
									c0.006-0.206-0.157-0.376-0.363-0.382c-0.222-0.003-0.376,0.157-0.382,0.362c-0.009,0.322-0.87,32.248-1.115,34.852
									c-0.228,2.423,1.981,4.887,2.656,5.578C563.282,202.38,568.108,205.527,568.157,205.559z"/>
								<path style="fill:#C64E73;" d="M591.542,200.552c0.755-2.603-3.13-43.077-3.295-44.8c-0.019-0.204-0.193-0.358-0.406-0.334
									c-0.204,0.019-0.355,0.202-0.334,0.406c1.125,11.688,3.914,42.473,3.32,44.521c-0.677,2.333-5.644,3.7-5.694,3.714
									c-0.134,0.037-0.237,0.144-0.266,0.28c-0.03,0.135,0.018,0.276,0.125,0.364c0.027,0.024,2.784,2.367,2.656,5.071
									c-0.069,1.443-0.953,2.758-2.628,3.911c-0.169,0.116-0.212,0.348-0.095,0.518c0.072,0.105,0.188,0.161,0.306,0.161
									c0.073,0,0.146-0.021,0.211-0.066c1.877-1.291,2.87-2.802,2.949-4.491c0.109-2.345-1.575-4.353-2.436-5.219
									C587.408,204.11,590.903,202.752,591.542,200.552z"/>
								<path style="fill:#C64E73;" d="M609.662,189.557c-0.003-0.203-0.17-0.366-0.372-0.366c-0.002,0-0.004,0-0.006,0
									c-0.206,0.003-0.369,0.172-0.366,0.378c0.145,9.29-0.974,29.594-0.985,29.799c-0.012,0.204,0.145,0.381,0.351,0.392
									c0.007,0.001,0.014,0.001,0.02,0.001c0.197,0,0.361-0.153,0.371-0.352C608.687,219.204,609.807,198.872,609.662,189.557z"/>
								<path style="fill:#C64E73;" d="M607.141,235.15c-27.924-5.91-48.201,3.406-48.403,3.502
									c-0.186,0.087-0.267,0.309-0.178,0.494c0.063,0.136,0.197,0.214,0.336,0.214c0.053,0,0.108-0.012,0.158-0.036
									c0.201-0.093,20.256-9.309,47.932-3.445c0.204,0.037,0.398-0.087,0.442-0.287C607.47,235.39,607.342,235.193,607.141,235.15
									z"/>
								<path style="fill:#C64E73;" d="M564.719,154.34c0.078,0,0.158-0.025,0.225-0.076c0.194-0.147,19.403-14.677,26.682-14.424
									c0.203-0.024,0.378-0.153,0.386-0.359c0.008-0.206-0.153-0.378-0.359-0.386c-0.073-0.002-0.145-0.004-0.22-0.004
									c-7.671,0-26.149,13.979-26.938,14.579c-0.164,0.125-0.196,0.359-0.072,0.521C564.496,154.29,564.606,154.34,564.719,154.34
									z"/>
							</g>
						</g>
						<g>
							<path style="fill:#FFCAB1;" d="M568.358,205.245c0,0-25.307,16.624-33.371,20.965c-8.064,4.342-11.041,5.334-13.894,6.947
								c-2.853,1.613-5.893,5.396-5.707,6.079c0,0,1.117,1.178,1.861,1.427c0,0-2.977,6.711-2.233,7.853
								c0.744,1.141,1.923,0.769,1.923,0.769s0.558,1.613,1.923,1.489c0,0,0.744,1.613,2.171,1.551c0,0,0.062,2.791,2.977,1.613
								c2.915-1.179,6.203-3.97,7.381-5.148c1.178-1.179,4.962-9.366,6.885-10.173c1.923-0.806,31.324-12.902,36.41-16.065
								c5.086-3.163,10.545-8.56,10.545-8.56S582.873,202.329,568.358,205.245z"/>
							<g>
								<path style="fill:#FF8752;" d="M568.358,205.245c0,0-0.365,0.24-1.005,0.659c0,0,11.367-1.793,17.45,8.501
									c0.268-0.257,0.428-0.414,0.428-0.414S582.873,202.329,568.358,205.245z"/>
								<path style="fill:#FF8752;" d="M517.247,240.911c0.079,0,0.158-0.039,0.206-0.109l2.399-3.577
									c0.076-0.114,0.046-0.268-0.068-0.345c-0.113-0.076-0.268-0.045-0.345,0.068l-2.399,3.577
									c-0.076,0.114-0.046,0.268,0.068,0.345C517.151,240.897,517.199,240.911,517.247,240.911z"/>
								<path style="fill:#FF8752;" d="M520.576,241.41c-0.122-0.058-0.271-0.004-0.329,0.121l-3.536,7.65
									c-0.058,0.124-0.004,0.271,0.121,0.329c0.033,0.015,0.069,0.023,0.104,0.023c0.094,0,0.183-0.053,0.225-0.144l3.536-7.65
									C520.755,241.615,520.701,241.467,520.576,241.41z"/>
								<path style="fill:#FF8752;" d="M524.435,244.007c-0.107-0.086-0.263-0.071-0.35,0.034l-5.417,6.575
									c-0.086,0.106-0.072,0.263,0.034,0.35c0.047,0.038,0.103,0.056,0.158,0.056c0.072,0,0.142-0.031,0.192-0.09l5.417-6.575
									C524.555,244.251,524.54,244.094,524.435,244.007z"/>
								<path style="fill:#FF8752;" d="M527.773,247.283l-6.885,4.838c-0.113,0.078-0.14,0.234-0.06,0.345
									c0.047,0.069,0.125,0.106,0.203,0.106c0.049,0,0.099-0.015,0.142-0.046l6.885-4.838c0.112-0.079,0.14-0.234,0.06-0.345
									C528.04,247.231,527.885,247.204,527.773,247.283z"/>
							</g>
						</g>
					</g>
				</g>
				<g>
					<path style="fill:#B8754B;" d="M462.538,316.027c0,0-9.056-4.094-17.12,0c-8.064,4.094-11.289,13.894-13.026,15.383
						c-1.737,1.489-9.676,5.334-11.289,7.815c-1.613,2.481-1.241,4.094,0,6.079c1.241,1.985,4.838,4.466,7.319,4.218
						c0,0-0.372,2.357,0.868,3.598c1.241,1.241,2.853,2.109,6.451,0.868c3.598-1.24,8.808-1.737,8.808-1.737
						s3.225,3.474,9.304,1.365c0,0,5.21,5.21,7.443,10.173c2.233,4.962,4.466,22.082,6.823,25.307l0.62-2.853
						c0,0,1.737,6.575,4.59,8.684v-2.233c0,0,4.094,4.962,4.342,8.312c0.248,3.349-7.815,42.923-15.259,46.273
						c-7.443,3.349-10.172,2.853-10.172,8.064h20.221c0,0,0.496-4.838,2.233-6.451c1.737-1.613,21.586-43.792,21.586-43.792
						s18.112,32.627,19.353,36.348s2.357,6.823,0,8.188c-2.357,1.365-8.312,1.737-8.312,5.707h16.623c0,0,3.474-2.729,3.846-5.21
						c0.372-2.481-14.391-39.574-13.894-42.551c0.496-2.977,1.861-5.831,6.947-7.071c5.086-1.241,24.935-6.203,27.416-9.18
						c0,0-5.334,10.793,0,24.687c5.334,13.894,9.552,24.067,1.985,29.401c-7.567,5.334-10.669,5.831-13.398,6.203
						c-2.729,0.372-5.334,0.868-5.334,3.722h17.368c0,0,15.879-13.398,17.864-17.368c1.985-3.97,1.489-5.707,1.489-5.707
						l-2.233,1.985c0,0-4.342-25.432,7.567-32.875c0,0,3.35,9.428,7.319,11.785l-2.233,0.62c0,0,17.864,7.443,22.95,15.631
						c5.086,8.188,6.575,18.732,4.342,20.717c-2.233,1.985-7.567,1.613-7.567,5.21h14.887c0,0,2.977-2.357,3.598-4.714
						c0.62-2.357-1.985-13.15-1.365-18.98c0.62-5.831,1.861-8.932,0.248-12.033c0,0-0.744,1.861-1.737,1.861
						c-0.992,0-10.297-6.947-11.041-11.413c-0.744-4.466-2.109-25.431-4.342-31.634c-2.233-6.203-5.707-13.646,0-19.105
						c5.706-5.458,21.834-14.391,16.623-27.044c-5.21-12.654-19.353-14.639-25.804-5.707c-6.451,8.932,2.977,3.225,6.699,0.248
						c3.722-2.977,13.646,0.496,10.172,7.94c-3.474,7.443-16.375,9.676-18.112,13.15c-1.737,3.474-8.932-3.722-31.262-4.218
						c-22.33-0.496-50.863,0.992-62.772-2.481C482.263,337.737,473.322,317.774,462.538,316.027z"/>
					<path style="fill:#301C1E;" d="M585.726,382.397c4.962-14.391,0.992-21.834,10.421-27.789
						c9.428-5.955,17.674-10.154,15.879-19.849c-1.684-9.095-14.183-16.409-24.737-3.759c0.517,1.536,6.172-2.032,8.858-4.18
						c3.722-2.977,13.646,0.496,10.172,7.94c-3.474,7.443-16.375,9.676-18.112,13.15c-1.737,3.474-8.932-3.722-31.262-4.218
						c-22.33-0.496-50.863,0.992-62.772-2.481c-11.909-3.474-20.85-23.436-31.634-25.183c0,0-3.53-1.595-8.144-1.798
						c0.009,0.003,4.467,1.678,7.111,5.644c2.647,3.97-0.992,3.804,0,6.782c0.992,2.977,3.143,2.646,2.15,6.451
						c-0.992,3.804-1.308,4.135,0.256,6.451c1.564,2.316,2.556,5.458-1.579,7.609c-4.135,2.15-7.857,4.301-8.477,6.451
						c0,0,5.21,5.21,7.443,10.173c0.142,0.316,0.285,0.683,0.427,1.091c0.542,0.329,1.098,0.637,1.682,0.893
						c6.203,2.729,7.443,5.21,9.676,11.661c2.233,6.451,4.218,9.428,8.436,11.165c4.218,1.737,3.225,3.225,7.443,8.684
						c4.218,5.458,4.813,3.282,7.319,7.815c0,0,3.404,6.132,7.36,13.38c0,0,0.003,0.006,0.003,0.005
						c-0.045-0.082,5.663-3.337,2.685-8.051c-2.977-4.714-3.737-13.894,0.861-15.631c4.598-1.737-0.516,4.301,11.304,0.993
						c11.82-3.308,30.345-24.15,33.984-18.857c3.639,5.293-5.458,16.375-2.481,28.781c2.977,12.406,12.774,16.456,15.319,14.927l0,0
						c0.398-7.298,2.286-15.54,8.251-19.269C577.29,391.825,580.764,396.787,585.726,382.397z"/>
					<g>
						<path style="fill:#8E5230;" d="M447.749,326.651c0.09-0.259-0.048-0.541-0.307-0.631c-0.261-0.088-0.541,0.048-0.632,0.307
							c-0.03,0.086-3.002,8.698-4.317,14.778c-1.348,6.238,1.507,11.189,1.629,11.398c0.093,0.157,0.258,0.244,0.428,0.244
							c0.086,0,0.172-0.022,0.251-0.069c0.236-0.139,0.315-0.442,0.177-0.678c-0.028-0.047-2.778-4.838-1.514-10.685
							C444.766,335.294,447.719,326.737,447.749,326.651z"/>
						<path style="fill:#301C1E;" d="M437.52,332.993c0.026,1.324-0.323,2.405-0.78,2.414c-0.457,0.009-0.848-1.057-0.874-2.382
							c-0.026-1.324,0.323-2.405,0.78-2.414C437.103,330.602,437.494,331.669,437.52,332.993z"/>
						<path style="fill:#301C1E;" d="M421.376,338.866c0,0,1.506-1.103,1.92,0c0.414,1.103-3.375,4.254-2.783,5.346
							C421.104,345.304,416.148,341.154,421.376,338.866z"/>
						<path style="fill:#BA586A;" d="M426.004,356.159c0,0-1.737-5.024,2.419-6.637c4.156-1.613,11.351-2.667,12.033-4.776
							c0,0-1.241,3.101-5.396,5.086C430.904,351.817,426.19,352.933,426.004,356.159z"/>
					</g>
					<g>
						<g>
							<path style="fill:#F4F4E4;" d="M520.224,435.989c-3.474-5.458-5.707-2.729-5.467,3.468c0,0,0,0.001,0,0.002
								c0.441,0.916,0.75,1.609,0.877,1.989c1.241,3.722,2.357,6.823,0,8.188c-2.357,1.365-8.312,1.737-8.312,5.707h16.623
								c0,0,3.474-2.729,3.846-5.21c0.103-0.69-0.964-4.057-2.546-8.617C523.721,440.619,521.796,438.458,520.224,435.989z"/>
							<path style="fill:#F4F4E4;" d="M468.741,386.242c0,0,1.737,6.575,4.59,8.684v-2.233c0,0,4.094,4.962,4.342,8.312
								c0.248,3.349-7.815,42.923-15.259,46.273c-7.443,3.349-10.172,2.853-10.172,8.064h20.221c0,0,0.496-4.838,2.233-6.451
								c1.507-1.399,16.642-33.322,20.626-41.757c-0.532-0.598-1.057-0.987-1.563-1.083c-3.474-0.662-8.436-7.112-9.759-11.579
								c-1.323-4.466-4.344-6.817-6.498-8.559c-2.154-1.741,3.024-5.666,3.024-5.666l-11.413-17.533l-7.389,2.167l0,0
								c2.091,5.998,4.189,21.196,6.396,24.216L468.741,386.242z"/>
							<path style="fill:#F4F4E4;" d="M599.786,414.677c-8.821-2.953-6.286-5.98-6.286-5.98h3.308
								c-3.97-6.616-0.662-15.548-3.308-23.922c-2.542-8.042-3.559-20.958-2.281-25.1c-1.652,4.003-9.336,21.832-14.26,27.85
								c-5.955,7.278-3.391,13.853-3.391,13.853s3.35,9.428,7.319,11.785l-2.233,0.62c0,0,17.864,7.443,22.95,15.631
								c5.086,8.188,6.575,18.732,4.342,20.717c-2.233,1.985-7.567,1.613-7.567,5.21h14.887c0,0,2.977-2.357,3.598-4.714
								c0.62-2.357-1.985-13.15-1.365-18.98c0.62-5.831,1.861-8.932,0.248-12.033c0,0-0.744,1.861-1.737,1.861
								C611.364,426.643,608.607,417.63,599.786,414.677z"/>
							<path style="fill:#F4F4E4;" d="M554.002,440.056c-0.535,2.124-1.713,3.921-3.756,5.361
								c-7.567,5.334-10.669,5.831-13.398,6.203c-2.729,0.372-5.334,0.868-5.334,3.722h17.368c0,0,4.24-3.579,8.612-7.584
								c0.526-1.499,1.456-3.349,2.677-5.318C563.09,437.731,558.85,437.802,554.002,440.056z"/>
							<path style="fill:#F4F4E4;" d="M544.787,388.599c-3.722,4.218-8.188,4.962-9.924,3.225
								c-1.482-1.482-9.909,5.706-15.507,9.135c0.459-0.166,0.949-0.32,1.488-0.451c5.086-1.241,24.935-6.203,27.416-9.18
								C548.261,391.329,548.509,384.382,544.787,388.599z"/>
						</g>
						<g>
							<path style="fill:#D8D7B8;" d="M460.181,449.476c-5.233,0.888-5.293,5.816-5.293,5.865c0,0.274,0.222,0.496,0.496,0.496
								c0.274,0,0.496-0.222,0.496-0.496c0-0.169,0.051-4.137,4.466-4.887c0.27-0.046,0.452-0.302,0.407-0.573
								C460.707,449.613,460.448,449.429,460.181,449.476z"/>
							<path style="fill:#D8D7B8;" d="M516.051,450.546c-4.724,0.357-5.409,4.68-5.416,4.724c-0.039,0.27,0.148,0.521,0.419,0.562
								c0.024,0.003,0.048,0.005,0.074,0.005c0.24,0,0.453-0.176,0.489-0.422c0.022-0.145,0.59-3.583,4.51-3.878
								c0.272-0.021,0.478-0.26,0.457-0.533C516.563,450.73,516.344,450.516,516.051,450.546z"/>
							<path style="fill:#D8D7B8;" d="M540.859,451.291c-4.321,0.352-5.585,3.738-5.637,3.883c-0.092,0.257,0.041,0.54,0.299,0.633
								c0.055,0.02,0.112,0.03,0.169,0.03c0.203,0,0.393-0.125,0.466-0.326c0.044-0.12,1.118-2.932,4.785-3.231
								c0.272-0.022,0.476-0.262,0.454-0.535C541.372,451.473,541.146,451.265,540.859,451.291z"/>
							<path style="fill:#D8D7B8;" d="M607.462,451.289c-5.521,0.177-5.771,3.989-5.773,4.028c-0.014,0.272,0.195,0.502,0.467,0.518
								c0.01,0.001,0.019,0.001,0.028,0.001c0.261,0,0.479-0.204,0.495-0.466c0.008-0.12,0.24-2.941,4.814-3.088
								c0.274-0.009,0.49-0.238,0.481-0.512C607.965,451.497,607.731,451.311,607.462,451.289z"/>
						</g>
					</g>
					<path style="fill:#FFB03B;" d="M456.168,356.159c0,0,19.684-1.246,26.404-23.15l-2.782-2.979c0,0-9.439,19.543-25.027,24.542
						L456.168,356.159z"/>
				</g>
			</g>
		</g>
	</g>
</g>
</svg>
