<?xml version="1.0" encoding="utf-8"?>
<!-- Generator: Adobe Illustrator 27.5.0, SVG Export Plug-In . SVG Version: 6.00 Build 0)  -->
<svg version="1.1" id="Layer_1" xmlns="http://www.w3.org/2000/svg" xmlns:xlink="http://www.w3.org/1999/xlink" x="0px" y="0px"
	 viewBox="0 0 3000 2000" style="enable-background:new 0 0 3000 2000;" xml:space="preserve">
<g>
	<rect style="fill:#FFFFFF;" width="3000" height="2000"/>
	<path style="fill:#EAF1F8;" d="M2727.195,1589.233c0,0,384.687-354.316-17.25-547.816
		c-254.765-122.648-193.818-153.201-276.032-322.612c-100.779-207.666-601.62-363.416-810.942-45.033
		c-154.108,234.399-241.605,229.355-354.062,188.288c-128.964-47.095-240.858-148.633-393.981-78.473
		c-219.94,100.775-251.74,315.288-392.176,268.533c-375.948-125.164-524.051,423.912-189.912,539.887L2727.195,1589.233z"/>
	<g>
		<g>
			<rect x="1039.961" y="401.592" style="fill:#C4D9ED;" width="173.366" height="1043.584"/>
			<rect x="1001.023" y="401.592" style="fill:#D5E7F7;" width="173.367" height="1043.584"/>
			<g>
				<rect x="1001.024" y="401.315" style="fill:#C4D9ED;" width="173.322" height="60.304"/>
				<rect x="1001.024" y="532.106" style="fill:#C4D9ED;" width="173.322" height="60.303"/>
				<rect x="1001.024" y="662.896" style="fill:#C4D9ED;" width="173.322" height="60.304"/>
				<rect x="1001.024" y="793.687" style="fill:#C4D9ED;" width="173.322" height="60.304"/>
				<rect x="1001.024" y="924.479" style="fill:#C4D9ED;" width="173.322" height="60.303"/>
				<rect x="1001.024" y="1055.269" style="fill:#C4D9ED;" width="173.322" height="60.304"/>
				<rect x="1001.024" y="1186.06" style="fill:#C4D9ED;" width="173.322" height="60.303"/>
				<rect x="1001.024" y="1316.85" style="fill:#C4D9ED;" width="173.322" height="60.304"/>
			</g>
		</g>
		<g>
			<rect x="762.819" y="549.26" style="fill:#C4D9ED;" width="173.366" height="895.916"/>
			<rect x="723.881" y="549.26" style="fill:#D5E7F7;" width="173.367" height="895.916"/>
			<g>
				<rect x="723.881" y="549.023" style="fill:#C4D9ED;" width="173.322" height="51.771"/>
				<rect x="723.881" y="661.306" style="fill:#C4D9ED;" width="173.322" height="51.771"/>
				<rect x="723.881" y="773.59" style="fill:#C4D9ED;" width="173.322" height="51.771"/>
				<rect x="723.881" y="885.874" style="fill:#C4D9ED;" width="173.322" height="51.771"/>
				<rect x="723.881" y="998.157" style="fill:#C4D9ED;" width="173.322" height="51.771"/>
				<rect x="723.881" y="1110.442" style="fill:#C4D9ED;" width="173.322" height="51.77"/>
				<rect x="723.881" y="1222.725" style="fill:#C4D9ED;" width="173.322" height="51.771"/>
				<rect x="723.881" y="1335.008" style="fill:#C4D9ED;" width="173.322" height="51.771"/>
			</g>
		</g>
		<rect x="1234.558" y="1413.166" style="fill:#DCEAF9;" width="72.598" height="131.043"/>
		<polygon style="fill:#D5E7F7;" points="2302.734,889.419 2302.734,809.179 2282.886,809.179 2282.886,671.209 2176.466,671.209 
			2176.466,809.179 2076.972,809.179 2076.972,584.361 1967.18,584.361 1967.18,730.303 1942.143,730.303 1942.143,556.068 
			1832.351,556.068 1832.351,882.747 1693.498,882.747 1693.498,1073.244 1641.617,1073.244 1641.617,1121.234 1522.447,1121.234 
			1522.447,1038.596 1454.026,1038.596 1454.026,814.042 1369.507,814.042 1369.507,1228.565 1284.988,1228.565 1284.988,1589.268 
			1369.507,1589.268 1441.952,1589.268 1454.026,1589.268 1522.447,1589.268 1561.122,1589.268 1623.065,1589.268 
			1641.617,1589.268 1693.498,1589.268 1742.235,1589.268 1832.351,1589.268 1859.951,1589.268 1914.859,1589.268 
			1942.143,1589.268 1967.18,1589.268 2024.65,1589.268 2063.773,1589.268 2076.972,1589.268 2176.466,1589.268 2281.109,1589.268 
			2282.886,1589.268 2302.734,1589.268 2387.529,1589.268 2387.529,889.419 		"/>
		<g>
			<rect x="1369.545" y="816.299" style="fill:#C4D9ED;" width="85.262" height="51.824"/>
			<rect x="1369.545" y="893.37" style="fill:#C4D9ED;" width="85.262" height="51.824"/>
			<rect x="1369.545" y="970.442" style="fill:#C4D9ED;" width="85.262" height="51.824"/>
			<rect x="1369.545" y="1051.23" style="fill:#C4D9ED;" width="85.262" height="51.824"/>
			<rect x="1369.545" y="1129.515" style="fill:#C4D9ED;" width="85.262" height="51.824"/>
			<rect x="1369.545" y="1207.8" style="fill:#C4D9ED;" width="85.262" height="51.824"/>
			<rect x="1369.545" y="1289.703" style="fill:#C4D9ED;" width="85.262" height="51.824"/>
		</g>
		<rect x="1453.623" y="816.299" style="fill:#C4D9ED;" width="31.437" height="226.476"/>
		<rect x="1522.447" y="1042.776" style="fill:#C4D9ED;" width="63.237" height="83.355"/>
		<polygon style="fill:#C4D9ED;" points="2076.94,584.725 2098.766,584.725 2098.766,811.371 2076.972,811.371 		"/>
		<rect x="1942.143" y="556.068" style="fill:#C4D9ED;" width="13.398" height="175.633"/>
		<g>
			<rect x="1832.291" y="578.31" style="fill:#C4D9ED;" width="109.852" height="33.574"/>
			<rect x="1832.291" y="641.383" style="fill:#C4D9ED;" width="109.852" height="33.573"/>
			<rect x="1832.291" y="698.127" style="fill:#C4D9ED;" width="109.852" height="33.574"/>
			<rect x="1967.088" y="698.127" style="fill:#C4D9ED;" width="109.852" height="33.574"/>
			<rect x="1967.088" y="641.383" style="fill:#C4D9ED;" width="109.852" height="33.573"/>
			<rect x="1967.088" y="584.725" style="fill:#C4D9ED;" width="109.852" height="33.573"/>
			<rect x="1832.291" y="753.146" style="fill:#C4D9ED;" width="244.681" height="33.574"/>
			<rect x="1832.291" y="808.166" style="fill:#C4D9ED;" width="244.681" height="33.573"/>
			<rect x="1832.291" y="861.937" style="fill:#C4D9ED;" width="244.681" height="21.313"/>
			<rect x="1716.186" y="975.942" style="fill:#C4D9ED;" width="18.612" height="32.474"/>
			<rect x="1750.991" y="975.942" style="fill:#C4D9ED;" width="18.612" height="32.474"/>
			<rect x="1785.017" y="975.942" style="fill:#C4D9ED;" width="18.612" height="32.474"/>
			<rect x="1817.279" y="975.942" style="fill:#C4D9ED;" width="18.612" height="32.474"/>
			<rect x="1850.16" y="975.942" style="fill:#C4D9ED;" width="18.612" height="32.474"/>
			<rect x="1883.418" y="975.942" style="fill:#C4D9ED;" width="18.612" height="32.474"/>
			<rect x="1918.223" y="975.942" style="fill:#C4D9ED;" width="18.612" height="32.474"/>
			<rect x="1952.249" y="975.942" style="fill:#C4D9ED;" width="18.612" height="32.474"/>
			<rect x="1984.511" y="975.942" style="fill:#C4D9ED;" width="18.612" height="32.474"/>
			<rect x="2017.392" y="975.942" style="fill:#C4D9ED;" width="18.612" height="32.474"/>
			<rect x="2051.657" y="975.942" style="fill:#C4D9ED;" width="18.612" height="32.474"/>
			<rect x="2086.463" y="975.942" style="fill:#C4D9ED;" width="18.612" height="32.474"/>
			<rect x="2120.488" y="975.942" style="fill:#C4D9ED;" width="18.612" height="32.474"/>
			<rect x="2152.75" y="975.942" style="fill:#C4D9ED;" width="18.612" height="32.474"/>
			<rect x="2185.631" y="975.942" style="fill:#C4D9ED;" width="18.612" height="32.474"/>
			<rect x="2218.889" y="975.942" style="fill:#C4D9ED;" width="18.612" height="32.474"/>
			<rect x="2253.694" y="975.942" style="fill:#C4D9ED;" width="18.612" height="32.474"/>
			<rect x="2287.72" y="975.942" style="fill:#C4D9ED;" width="18.612" height="32.474"/>
			<rect x="2319.982" y="975.942" style="fill:#C4D9ED;" width="18.612" height="32.474"/>
			<rect x="2352.863" y="975.942" style="fill:#C4D9ED;" width="18.612" height="32.474"/>
			<rect x="1716.186" y="1032.369" style="fill:#C4D9ED;" width="18.612" height="32.474"/>
			<rect x="1750.991" y="1032.369" style="fill:#C4D9ED;" width="18.612" height="32.474"/>
			<rect x="1785.017" y="1032.369" style="fill:#C4D9ED;" width="18.612" height="32.474"/>
			<rect x="1817.279" y="1032.369" style="fill:#C4D9ED;" width="18.612" height="32.474"/>
			<rect x="1850.16" y="1032.369" style="fill:#C4D9ED;" width="18.612" height="32.474"/>
			<rect x="1883.418" y="1032.369" style="fill:#C4D9ED;" width="18.612" height="32.474"/>
			<rect x="1918.223" y="1032.369" style="fill:#C4D9ED;" width="18.612" height="32.474"/>
			<rect x="1952.249" y="1032.369" style="fill:#C4D9ED;" width="18.612" height="32.474"/>
			<rect x="1984.511" y="1032.369" style="fill:#C4D9ED;" width="18.612" height="32.474"/>
			<rect x="2017.392" y="1032.369" style="fill:#C4D9ED;" width="18.612" height="32.474"/>
			<rect x="2051.657" y="1032.369" style="fill:#C4D9ED;" width="18.612" height="32.474"/>
			<rect x="2086.463" y="1032.369" style="fill:#C4D9ED;" width="18.612" height="32.474"/>
			<rect x="2120.488" y="1032.369" style="fill:#C4D9ED;" width="18.612" height="32.474"/>
			<rect x="2152.75" y="1032.369" style="fill:#C4D9ED;" width="18.612" height="32.474"/>
			<rect x="2185.631" y="1032.369" style="fill:#C4D9ED;" width="18.612" height="32.474"/>
			<rect x="2218.889" y="1032.369" style="fill:#C4D9ED;" width="18.612" height="32.474"/>
			<rect x="2253.694" y="1032.369" style="fill:#C4D9ED;" width="18.612" height="32.474"/>
			<rect x="2287.72" y="1032.369" style="fill:#C4D9ED;" width="18.612" height="32.474"/>
			<rect x="2319.982" y="1032.369" style="fill:#C4D9ED;" width="18.612" height="32.474"/>
			<rect x="2352.863" y="1032.369" style="fill:#C4D9ED;" width="18.612" height="32.474"/>
			<rect x="1716.186" y="1092.32" style="fill:#C4D9ED;" width="18.612" height="32.474"/>
			<rect x="1750.991" y="1092.32" style="fill:#C4D9ED;" width="18.612" height="32.474"/>
			<rect x="1785.017" y="1092.32" style="fill:#C4D9ED;" width="18.612" height="32.474"/>
			<rect x="1817.279" y="1092.32" style="fill:#C4D9ED;" width="18.612" height="32.474"/>
			<rect x="1850.16" y="1092.32" style="fill:#C4D9ED;" width="18.612" height="32.474"/>
			<rect x="1883.418" y="1092.32" style="fill:#C4D9ED;" width="18.612" height="32.474"/>
			<rect x="1918.223" y="1092.32" style="fill:#C4D9ED;" width="18.612" height="32.474"/>
			<rect x="1952.249" y="1092.32" style="fill:#C4D9ED;" width="18.612" height="32.474"/>
			<rect x="1984.511" y="1092.32" style="fill:#C4D9ED;" width="18.612" height="32.474"/>
			<rect x="2017.392" y="1092.32" style="fill:#C4D9ED;" width="18.612" height="32.474"/>
			<rect x="2051.657" y="1092.32" style="fill:#C4D9ED;" width="18.612" height="32.474"/>
			<rect x="2086.463" y="1092.32" style="fill:#C4D9ED;" width="18.612" height="32.474"/>
			<rect x="2120.488" y="1092.32" style="fill:#C4D9ED;" width="18.612" height="32.474"/>
			<rect x="2152.75" y="1092.32" style="fill:#C4D9ED;" width="18.612" height="32.474"/>
			<rect x="2185.631" y="1092.32" style="fill:#C4D9ED;" width="18.612" height="32.474"/>
			<rect x="2218.889" y="1092.32" style="fill:#C4D9ED;" width="18.612" height="32.474"/>
			<rect x="2253.694" y="1092.32" style="fill:#C4D9ED;" width="18.612" height="32.474"/>
			<rect x="2287.72" y="1092.32" style="fill:#C4D9ED;" width="18.612" height="32.474"/>
			<rect x="2319.982" y="1092.32" style="fill:#C4D9ED;" width="18.612" height="32.474"/>
			<rect x="2352.863" y="1092.32" style="fill:#C4D9ED;" width="18.612" height="32.474"/>
			<rect x="1716.186" y="1149.624" style="fill:#C4D9ED;" width="18.612" height="32.474"/>
			<rect x="1750.991" y="1149.624" style="fill:#C4D9ED;" width="18.612" height="32.474"/>
			<rect x="1785.017" y="1149.624" style="fill:#C4D9ED;" width="18.612" height="32.474"/>
			<rect x="1817.279" y="1149.624" style="fill:#C4D9ED;" width="18.612" height="32.474"/>
			<rect x="1850.16" y="1149.624" style="fill:#C4D9ED;" width="18.612" height="32.474"/>
			<rect x="1883.418" y="1149.624" style="fill:#C4D9ED;" width="18.612" height="32.474"/>
			<rect x="1918.223" y="1149.624" style="fill:#C4D9ED;" width="18.612" height="32.474"/>
			<rect x="1952.249" y="1149.624" style="fill:#C4D9ED;" width="18.612" height="32.474"/>
			<rect x="1984.511" y="1149.624" style="fill:#C4D9ED;" width="18.612" height="32.474"/>
			<rect x="2017.392" y="1149.624" style="fill:#C4D9ED;" width="18.612" height="32.474"/>
			<rect x="2051.657" y="1149.624" style="fill:#C4D9ED;" width="18.612" height="32.474"/>
			<rect x="2086.463" y="1149.624" style="fill:#C4D9ED;" width="18.612" height="32.474"/>
			<rect x="2120.488" y="1149.624" style="fill:#C4D9ED;" width="18.612" height="32.474"/>
			<rect x="2152.75" y="1149.624" style="fill:#C4D9ED;" width="18.612" height="32.474"/>
			<rect x="2185.631" y="1149.624" style="fill:#C4D9ED;" width="18.612" height="32.474"/>
			<rect x="2218.889" y="1149.624" style="fill:#C4D9ED;" width="18.612" height="32.474"/>
			<rect x="2253.694" y="1149.624" style="fill:#C4D9ED;" width="18.612" height="32.474"/>
			<rect x="2287.72" y="1149.624" style="fill:#C4D9ED;" width="18.612" height="32.474"/>
			<rect x="2319.982" y="1149.624" style="fill:#C4D9ED;" width="18.612" height="32.474"/>
			<rect x="2352.863" y="1149.624" style="fill:#C4D9ED;" width="18.612" height="32.474"/>
			<rect x="1716.186" y="1206.052" style="fill:#C4D9ED;" width="18.612" height="32.473"/>
			<rect x="1750.991" y="1206.052" style="fill:#C4D9ED;" width="18.612" height="32.473"/>
			<rect x="1785.017" y="1206.052" style="fill:#C4D9ED;" width="18.612" height="32.473"/>
			<rect x="1817.279" y="1206.052" style="fill:#C4D9ED;" width="18.612" height="32.473"/>
			<rect x="1850.16" y="1206.052" style="fill:#C4D9ED;" width="18.612" height="32.473"/>
			<rect x="1883.418" y="1206.052" style="fill:#C4D9ED;" width="18.612" height="32.473"/>
			<rect x="1918.223" y="1206.052" style="fill:#C4D9ED;" width="18.612" height="32.473"/>
			<rect x="1952.249" y="1206.052" style="fill:#C4D9ED;" width="18.612" height="32.473"/>
			<rect x="1984.511" y="1206.052" style="fill:#C4D9ED;" width="18.612" height="32.473"/>
			<rect x="2017.392" y="1206.052" style="fill:#C4D9ED;" width="18.612" height="32.473"/>
			<rect x="2051.657" y="1206.052" style="fill:#C4D9ED;" width="18.612" height="32.473"/>
			<rect x="2086.463" y="1206.052" style="fill:#C4D9ED;" width="18.612" height="32.473"/>
			<rect x="2120.488" y="1206.052" style="fill:#C4D9ED;" width="18.612" height="32.473"/>
			<rect x="2152.75" y="1206.052" style="fill:#C4D9ED;" width="18.612" height="32.473"/>
			<rect x="2185.631" y="1206.052" style="fill:#C4D9ED;" width="18.612" height="32.473"/>
			<rect x="2218.889" y="1206.052" style="fill:#C4D9ED;" width="18.612" height="32.473"/>
			<rect x="2253.694" y="1206.052" style="fill:#C4D9ED;" width="18.612" height="32.473"/>
			<rect x="2287.72" y="1206.052" style="fill:#C4D9ED;" width="18.612" height="32.473"/>
			<rect x="2319.982" y="1206.052" style="fill:#C4D9ED;" width="18.612" height="32.473"/>
			<rect x="2352.863" y="1206.052" style="fill:#C4D9ED;" width="18.612" height="32.473"/>
		</g>
		<rect x="1585.684" y="1307.79" style="fill:#C4D9ED;" width="431.391" height="285.92"/>
		<rect x="1258.57" y="1451.832" style="fill:#C4D9ED;" width="431.392" height="141.878"/>
		<rect x="2051.657" y="1352.681" style="fill:#C4D9ED;" width="431.392" height="241.353"/>
		<g>
			<rect x="1614.501" y="1341.527" style="fill:#D5E7F7;" width="80.374" height="53.354"/>
			<rect x="1717.674" y="1341.527" style="fill:#D5E7F7;" width="80.374" height="53.354"/>
			<rect x="1818.881" y="1341.527" style="fill:#D5E7F7;" width="80.374" height="53.354"/>
			<rect x="1918.143" y="1341.527" style="fill:#D5E7F7;" width="80.374" height="53.354"/>
		</g>
		<rect x="2012.591" y="1307.79" style="fill:#ADC9E0;" width="41.407" height="285.92"/>
		<rect x="2526.22" y="1251.597" style="fill:#ADC9E0;" width="41.406" height="341.937"/>
		<rect x="2483.049" y="1352.681" style="fill:#ADC9E0;" width="44.45" height="240.854"/>
		<g>
			<rect x="1386.514" y="793.746" style="fill:#DCEAF9;" width="2.242" height="22.553"/>
			<rect x="1467.077" y="793.746" style="fill:#DCEAF9;" width="2.242" height="22.553"/>
		</g>
		<rect x="2290.07" y="1250.754" style="fill:#D5E7F7;" width="237.429" height="342.78"/>
		<rect x="2507.188" y="1182.098" style="fill:#D5E7F7;" width="4.387" height="69.499"/>
		<g>
			<rect x="2290.07" y="1346.955" style="fill:#D5E7F7;" width="296.2" height="246.579"/>
			<rect x="2290.07" y="1314.739" style="fill:#C4D9ED;" width="296.2" height="80.142"/>
			<g>
				<rect x="2310.237" y="1418.634" style="fill:#ADC9E0;" width="15.212" height="26.542"/>
				<rect x="2338.685" y="1418.634" style="fill:#ADC9E0;" width="15.212" height="26.542"/>
				<rect x="2366.495" y="1418.634" style="fill:#ADC9E0;" width="15.212" height="26.542"/>
				<rect x="2392.864" y="1418.634" style="fill:#ADC9E0;" width="15.212" height="26.542"/>
				<rect x="2419.738" y="1418.634" style="fill:#ADC9E0;" width="15.212" height="26.542"/>
				<rect x="2446.92" y="1418.634" style="fill:#ADC9E0;" width="15.212" height="26.542"/>
				<rect x="2475.367" y="1418.634" style="fill:#ADC9E0;" width="15.212" height="26.542"/>
				<rect x="2503.178" y="1418.634" style="fill:#ADC9E0;" width="15.212" height="26.542"/>
				<rect x="2529.546" y="1418.634" style="fill:#ADC9E0;" width="15.212" height="26.542"/>
				<rect x="2556.42" y="1418.634" style="fill:#ADC9E0;" width="15.212" height="26.542"/>
				<rect x="2310.237" y="1465.47" style="fill:#ADC9E0;" width="15.212" height="26.543"/>
				<rect x="2338.685" y="1465.47" style="fill:#ADC9E0;" width="15.212" height="26.543"/>
				<rect x="2366.495" y="1465.47" style="fill:#ADC9E0;" width="15.212" height="26.543"/>
				<rect x="2392.864" y="1465.47" style="fill:#ADC9E0;" width="15.212" height="26.543"/>
				<rect x="2419.738" y="1465.47" style="fill:#ADC9E0;" width="15.212" height="26.543"/>
				<rect x="2446.92" y="1465.47" style="fill:#ADC9E0;" width="15.212" height="26.543"/>
				<rect x="2475.367" y="1465.47" style="fill:#ADC9E0;" width="15.212" height="26.543"/>
				<rect x="2503.178" y="1465.47" style="fill:#ADC9E0;" width="15.212" height="26.543"/>
				<rect x="2529.546" y="1465.47" style="fill:#ADC9E0;" width="15.212" height="26.543"/>
				<rect x="2556.42" y="1465.47" style="fill:#ADC9E0;" width="15.212" height="26.543"/>
				<rect x="2310.237" y="1511.589" style="fill:#ADC9E0;" width="15.212" height="26.542"/>
				<rect x="2338.685" y="1511.589" style="fill:#ADC9E0;" width="15.212" height="26.542"/>
				<rect x="2366.495" y="1511.589" style="fill:#ADC9E0;" width="15.212" height="26.542"/>
				<rect x="2392.864" y="1511.589" style="fill:#ADC9E0;" width="15.212" height="26.542"/>
				<rect x="2419.738" y="1511.589" style="fill:#ADC9E0;" width="15.212" height="26.542"/>
				<rect x="2446.92" y="1511.589" style="fill:#ADC9E0;" width="15.212" height="26.542"/>
				<rect x="2475.367" y="1511.589" style="fill:#ADC9E0;" width="15.212" height="26.542"/>
				<rect x="2503.178" y="1511.589" style="fill:#ADC9E0;" width="15.212" height="26.542"/>
				<rect x="2529.546" y="1511.589" style="fill:#ADC9E0;" width="15.212" height="26.542"/>
				<rect x="2556.42" y="1511.589" style="fill:#ADC9E0;" width="15.212" height="26.542"/>
				<rect x="2312.667" y="1337.254" style="fill:#ADC9E0;" width="12.783" height="27.376"/>
				<rect x="2439.576" y="1337.254" style="fill:#ADC9E0;" width="12.783" height="27.376"/>
				<rect x="2540.531" y="1337.254" style="fill:#ADC9E0;" width="12.783" height="27.376"/>
			</g>
		</g>
		<g>
			<rect x="1044.031" y="1346.955" style="fill:#D5E7F7;" width="296.2" height="246.579"/>
			<rect x="1044.031" y="1314.739" style="fill:#C4D9ED;" width="296.2" height="80.142"/>
			<g>
				<rect x="1064.199" y="1418.634" style="fill:#ADC9E0;" width="15.213" height="26.542"/>
				<rect x="1092.646" y="1418.634" style="fill:#ADC9E0;" width="15.213" height="26.542"/>
				<rect x="1120.457" y="1418.634" style="fill:#ADC9E0;" width="15.212" height="26.542"/>
				<rect x="1146.825" y="1418.634" style="fill:#ADC9E0;" width="15.212" height="26.542"/>
				<rect x="1173.699" y="1418.634" style="fill:#ADC9E0;" width="15.213" height="26.542"/>
				<rect x="1200.882" y="1418.634" style="fill:#ADC9E0;" width="15.212" height="26.542"/>
				<rect x="1229.329" y="1418.634" style="fill:#ADC9E0;" width="15.213" height="26.542"/>
				<rect x="1257.139" y="1418.634" style="fill:#ADC9E0;" width="15.213" height="26.542"/>
				<rect x="1283.508" y="1418.634" style="fill:#ADC9E0;" width="15.212" height="26.542"/>
				<rect x="1310.382" y="1418.634" style="fill:#ADC9E0;" width="15.213" height="26.542"/>
				<rect x="1064.199" y="1465.47" style="fill:#ADC9E0;" width="15.213" height="26.543"/>
				<rect x="1092.646" y="1465.47" style="fill:#ADC9E0;" width="15.213" height="26.543"/>
				<rect x="1120.457" y="1465.47" style="fill:#ADC9E0;" width="15.212" height="26.543"/>
				<rect x="1146.825" y="1465.47" style="fill:#ADC9E0;" width="15.212" height="26.543"/>
				<rect x="1173.699" y="1465.47" style="fill:#ADC9E0;" width="15.213" height="26.543"/>
				<rect x="1200.882" y="1465.47" style="fill:#ADC9E0;" width="15.212" height="26.543"/>
				<rect x="1229.329" y="1465.47" style="fill:#ADC9E0;" width="15.213" height="26.543"/>
				<rect x="1257.139" y="1465.47" style="fill:#ADC9E0;" width="15.213" height="26.543"/>
				<rect x="1283.508" y="1465.47" style="fill:#ADC9E0;" width="15.212" height="26.543"/>
				<rect x="1310.382" y="1465.47" style="fill:#ADC9E0;" width="15.213" height="26.543"/>
				<rect x="1064.199" y="1511.589" style="fill:#ADC9E0;" width="15.213" height="26.542"/>
				<rect x="1092.646" y="1511.589" style="fill:#ADC9E0;" width="15.213" height="26.542"/>
				<rect x="1120.457" y="1511.589" style="fill:#ADC9E0;" width="15.212" height="26.542"/>
				<rect x="1146.825" y="1511.589" style="fill:#ADC9E0;" width="15.212" height="26.542"/>
				<rect x="1173.699" y="1511.589" style="fill:#ADC9E0;" width="15.213" height="26.542"/>
				<rect x="1200.882" y="1511.589" style="fill:#ADC9E0;" width="15.212" height="26.542"/>
				<rect x="1229.329" y="1511.589" style="fill:#ADC9E0;" width="15.213" height="26.542"/>
				<rect x="1257.139" y="1511.589" style="fill:#ADC9E0;" width="15.213" height="26.542"/>
				<rect x="1283.508" y="1511.589" style="fill:#ADC9E0;" width="15.212" height="26.542"/>
				<rect x="1310.382" y="1511.589" style="fill:#ADC9E0;" width="15.213" height="26.542"/>
				<rect x="1066.628" y="1337.254" style="fill:#ADC9E0;" width="12.784" height="27.376"/>
				<rect x="1193.538" y="1337.254" style="fill:#ADC9E0;" width="12.783" height="27.376"/>
				<rect x="1294.493" y="1337.254" style="fill:#ADC9E0;" width="12.783" height="27.376"/>
			</g>
		</g>
		<g>
			<rect x="729.23" y="1346.955" style="fill:#D5E7F7;" width="296.2" height="246.579"/>
			<rect x="729.23" y="1314.739" style="fill:#C4D9ED;" width="296.2" height="80.142"/>
			<g>
				<rect x="749.397" y="1418.634" style="fill:#C4D9ED;" width="15.212" height="26.542"/>
				<rect x="777.845" y="1418.634" style="fill:#C4D9ED;" width="15.212" height="26.542"/>
				<rect x="805.655" y="1418.634" style="fill:#C4D9ED;" width="15.212" height="26.542"/>
				<rect x="832.023" y="1418.634" style="fill:#C4D9ED;" width="15.213" height="26.542"/>
				<rect x="858.898" y="1418.634" style="fill:#C4D9ED;" width="15.213" height="26.542"/>
				<rect x="886.08" y="1418.634" style="fill:#C4D9ED;" width="15.212" height="26.542"/>
				<rect x="914.527" y="1418.634" style="fill:#C4D9ED;" width="15.212" height="26.542"/>
				<rect x="942.337" y="1418.634" style="fill:#C4D9ED;" width="15.212" height="26.542"/>
				<rect x="968.705" y="1418.634" style="fill:#C4D9ED;" width="15.213" height="26.542"/>
				<rect x="995.58" y="1418.634" style="fill:#C4D9ED;" width="15.212" height="26.542"/>
				<rect x="749.397" y="1465.47" style="fill:#C4D9ED;" width="15.212" height="26.543"/>
				<rect x="777.845" y="1465.47" style="fill:#C4D9ED;" width="15.212" height="26.543"/>
				<rect x="805.655" y="1465.47" style="fill:#C4D9ED;" width="15.212" height="26.543"/>
				<rect x="832.023" y="1465.47" style="fill:#C4D9ED;" width="15.213" height="26.543"/>
				<rect x="858.898" y="1465.47" style="fill:#C4D9ED;" width="15.213" height="26.543"/>
				<rect x="886.08" y="1465.47" style="fill:#C4D9ED;" width="15.212" height="26.543"/>
				<rect x="914.527" y="1465.47" style="fill:#C4D9ED;" width="15.212" height="26.543"/>
				<rect x="942.337" y="1465.47" style="fill:#C4D9ED;" width="15.212" height="26.543"/>
				<rect x="968.705" y="1465.47" style="fill:#C4D9ED;" width="15.213" height="26.543"/>
				<rect x="995.58" y="1465.47" style="fill:#C4D9ED;" width="15.212" height="26.543"/>
				<rect x="749.397" y="1511.589" style="fill:#C4D9ED;" width="15.212" height="26.542"/>
				<rect x="777.845" y="1511.589" style="fill:#C4D9ED;" width="15.212" height="26.542"/>
				<rect x="805.655" y="1511.589" style="fill:#C4D9ED;" width="15.212" height="26.542"/>
				<rect x="832.023" y="1511.589" style="fill:#C4D9ED;" width="15.213" height="26.542"/>
				<rect x="858.898" y="1511.589" style="fill:#C4D9ED;" width="15.213" height="26.542"/>
				<rect x="886.08" y="1511.589" style="fill:#C4D9ED;" width="15.212" height="26.542"/>
				<rect x="914.527" y="1511.589" style="fill:#C4D9ED;" width="15.212" height="26.542"/>
				<rect x="942.337" y="1511.589" style="fill:#C4D9ED;" width="15.212" height="26.542"/>
				<rect x="968.705" y="1511.589" style="fill:#C4D9ED;" width="15.213" height="26.542"/>
				<rect x="995.58" y="1511.589" style="fill:#C4D9ED;" width="15.212" height="26.542"/>
			</g>
			<g>
				<rect x="751.826" y="1337.254" style="fill:#ADC9E0;" width="12.783" height="27.376"/>
				<rect x="878.736" y="1337.254" style="fill:#ADC9E0;" width="12.783" height="27.376"/>
				<rect x="979.691" y="1337.254" style="fill:#ADC9E0;" width="12.784" height="27.376"/>
			</g>
		</g>
		<g>
			<rect x="413.73" y="1346.955" style="fill:#D5E7F7;" width="296.199" height="246.579"/>
			<rect x="413.73" y="1314.739" style="fill:#C4D9ED;" width="296.199" height="80.142"/>
			<g>
				<rect x="433.898" y="1418.634" style="fill:#C4D9ED;" width="15.212" height="26.542"/>
				<rect x="462.345" y="1418.634" style="fill:#C4D9ED;" width="15.213" height="26.542"/>
				<rect x="490.156" y="1418.634" style="fill:#C4D9ED;" width="15.212" height="26.542"/>
				<rect x="516.524" y="1418.634" style="fill:#C4D9ED;" width="15.212" height="26.542"/>
				<rect x="543.398" y="1418.634" style="fill:#C4D9ED;" width="15.213" height="26.542"/>
				<rect x="570.581" y="1418.634" style="fill:#C4D9ED;" width="15.212" height="26.542"/>
				<rect x="599.028" y="1418.634" style="fill:#C4D9ED;" width="15.212" height="26.542"/>
				<rect x="626.838" y="1418.634" style="fill:#C4D9ED;" width="15.212" height="26.542"/>
				<rect x="653.207" y="1418.634" style="fill:#C4D9ED;" width="15.212" height="26.542"/>
				<rect x="680.081" y="1418.634" style="fill:#C4D9ED;" width="15.212" height="26.542"/>
				<rect x="433.898" y="1465.47" style="fill:#C4D9ED;" width="15.212" height="26.543"/>
				<rect x="462.345" y="1465.47" style="fill:#C4D9ED;" width="15.213" height="26.543"/>
				<rect x="490.156" y="1465.47" style="fill:#C4D9ED;" width="15.212" height="26.543"/>
				<rect x="516.524" y="1465.47" style="fill:#C4D9ED;" width="15.212" height="26.543"/>
				<rect x="543.398" y="1465.47" style="fill:#C4D9ED;" width="15.213" height="26.543"/>
				<rect x="570.581" y="1465.47" style="fill:#C4D9ED;" width="15.212" height="26.543"/>
				<rect x="599.028" y="1465.47" style="fill:#C4D9ED;" width="15.212" height="26.543"/>
				<rect x="626.838" y="1465.47" style="fill:#C4D9ED;" width="15.212" height="26.543"/>
				<rect x="653.207" y="1465.47" style="fill:#C4D9ED;" width="15.212" height="26.543"/>
				<rect x="680.081" y="1465.47" style="fill:#C4D9ED;" width="15.212" height="26.543"/>
				<rect x="433.898" y="1511.589" style="fill:#C4D9ED;" width="15.212" height="26.542"/>
				<rect x="462.345" y="1511.589" style="fill:#C4D9ED;" width="15.213" height="26.542"/>
				<rect x="490.156" y="1511.589" style="fill:#C4D9ED;" width="15.212" height="26.542"/>
				<rect x="516.524" y="1511.589" style="fill:#C4D9ED;" width="15.212" height="26.542"/>
				<rect x="543.398" y="1511.589" style="fill:#C4D9ED;" width="15.213" height="26.542"/>
				<rect x="570.581" y="1511.589" style="fill:#C4D9ED;" width="15.212" height="26.542"/>
				<rect x="599.028" y="1511.589" style="fill:#C4D9ED;" width="15.212" height="26.542"/>
				<rect x="626.838" y="1511.589" style="fill:#C4D9ED;" width="15.212" height="26.542"/>
				<rect x="653.207" y="1511.589" style="fill:#C4D9ED;" width="15.212" height="26.542"/>
				<rect x="680.081" y="1511.589" style="fill:#C4D9ED;" width="15.212" height="26.542"/>
			</g>
			<g>
				<rect x="436.327" y="1337.254" style="fill:#ADC9E0;" width="12.783" height="27.376"/>
				<rect x="563.237" y="1337.254" style="fill:#ADC9E0;" width="12.783" height="27.376"/>
				<rect x="664.192" y="1337.254" style="fill:#ADC9E0;" width="12.783" height="27.376"/>
			</g>
		</g>
	</g>
	<rect x="869.5" y="1378.233" style="fill:#163560;" width="263.096" height="116.037"/>
	<g>
		<path style="fill:#A8D29F;" d="M1478.928,921.535h-807.33v-24.88c0-11.218,9.094-20.312,20.312-20.312h744.789
			c6.625,0,12.834,3.231,16.636,8.658L1478.928,921.535z"/>
		<polygon style="fill:#82B378;" points="671.598,906.745 671.598,921.535 1478.928,921.535 1468.567,906.745 		"/>
		<path style="fill:#A8D29F;" d="M2321.135,921.535H621.486c-28.817,0-52.178,23.361-52.178,52.178v475.055
			c0,12.804,9.135,23.786,21.726,26.117l143.057,26.484h158.926c0-55.968,45.371-101.339,101.339-101.339
			c55.968,0,101.339,45.371,101.339,101.339h945.825c0-55.968,45.371-101.339,101.338-101.339
			c55.968,0,101.339,45.371,101.339,101.339h103.26c14.28,0,25.857-11.577,25.857-25.857V973.713
			C2373.313,944.896,2349.952,921.535,2321.135,921.535z"/>
		<g>
			<path style="fill:#82B378;" d="M2226.522,1444.179c11.148,16.278,17.674,35.97,17.674,57.189h103.26
				c14.281,0,25.857-11.577,25.857-25.857l0,0c0-17.304-14.028-31.332-31.332-31.332H2226.522z"/>
			<path style="fill:#82B378;" d="M569.308,1444.179v4.589c0,12.804,9.135,23.786,21.726,26.117l143.057,26.484h158.926
				c0-21.219,6.526-40.911,17.674-57.189H569.308z"/>
			<path style="fill:#82B378;" d="M1078.019,1444.179c11.148,16.278,17.674,35.97,17.674,57.189h945.825
				c0-21.219,6.526-40.911,17.674-57.189H1078.019z"/>
		</g>
		<rect x="558.437" y="1304.78" style="fill:#B64C41;" width="23.083" height="122.169"/>
		<rect x="558.437" y="1271.651" style="fill:#F1A34F;" width="23.083" height="23.083"/>
		<rect x="2361.417" y="1298.587" style="fill:#B64C41;" width="11.896" height="110.477"/>
		<path style="fill:#163560;" d="M1189.409,1246.281h489.237c9.328,0,16.89-7.562,16.89-16.89v-221.308
			c0-9.328-7.562-16.89-16.89-16.89h-489.237c-9.328,0-16.89,7.562-16.89,16.89v221.308
			C1172.519,1238.719,1180.081,1246.281,1189.409,1246.281z"/>
		<path style="fill:#163560;" d="M2003.109,1246.281h180.047c9.328,0,16.89-7.562,16.89-16.89v-221.308
			c0-9.328-7.562-16.89-16.89-16.89h-180.047c-9.328,0-16.89,7.562-16.89,16.89v221.308
			C1986.22,1238.719,1993.781,1246.281,2003.109,1246.281z"/>
		<path style="fill:#163560;" d="M2329.514,1246.281h43.799v-238.198c0-9.328-7.562-16.89-16.89-16.89h-122.671
			c-9.328,0-16.89,7.562-16.89,16.89v125.547C2216.863,1195.846,2267.299,1246.281,2329.514,1246.281z"/>
		<path style="fill:#98BDF4;" d="M1189.409,1246.281h489.237c9.328,0,16.89-7.562,16.89-16.89v-221.308
			c0-9.328-7.562-16.89-16.89-16.89h-489.237c-9.328,0-16.89,7.562-16.89,16.89v221.308
			C1172.519,1238.719,1180.081,1246.281,1189.409,1246.281z"/>
		<path style="fill:#98BDF4;" d="M2003.109,1246.281h180.047c9.328,0,16.89-7.562,16.89-16.89v-221.308
			c0-9.328-7.562-16.89-16.89-16.89h-180.047c-9.328,0-16.89,7.562-16.89,16.89v221.308
			C1986.22,1238.719,1993.781,1246.281,2003.109,1246.281z"/>
		<path style="fill:#98BDF4;" d="M2329.514,1246.281h43.799v-238.198c0-9.328-7.562-16.89-16.89-16.89h-122.671
			c-9.328,0-16.89,7.562-16.89,16.89v125.547C2216.863,1195.846,2267.299,1246.281,2329.514,1246.281z"/>
		<path style="fill:#163560;" d="M630.692,1246.281h489.237c9.328,0,16.89-7.562,16.89-16.89v-221.308
			c0-9.328-7.562-16.89-16.89-16.89H630.692c-9.328,0-16.89,7.562-16.89,16.89v221.308
			C613.802,1238.719,621.364,1246.281,630.692,1246.281z"/>
		<path style="fill:#98BDF4;" d="M630.692,1246.281h489.237c9.328,0,16.89-7.562,16.89-16.89v-221.308
			c0-9.328-7.562-16.89-16.89-16.89H630.692c-9.328,0-16.89,7.562-16.89,16.89v221.308
			C613.802,1238.719,621.364,1246.281,630.692,1246.281z"/>
		<path style="fill:#98BDF4;" d="M1955.219,991.194h-126.374h-14.955h-84.993c-9.328,0-16.89,7.562-16.89,16.89v493.285h101.883
			h14.955h143.264v-493.285C1972.108,998.756,1964.547,991.194,1955.219,991.194z"/>
		<g>
			<defs>
				<path id="SVGID_1_" d="M1189.409,1246.281h489.237c9.328,0,16.89-7.562,16.89-16.89v-221.308c0-9.328-7.562-16.89-16.89-16.89
					h-489.237c-9.328,0-16.89,7.562-16.89,16.89v221.308C1172.519,1238.719,1180.081,1246.281,1189.409,1246.281z"/>
			</defs>
			<clipPath id="SVGID_00000005227538880838315990000013565555010512646588_">
				<use xlink:href="#SVGID_1_"  style="overflow:visible;"/>
			</clipPath>
			<polygon style="clip-path:url(#SVGID_00000005227538880838315990000013565555010512646588_);fill:#D5E7F7;" points="
				1183.783,1386.008 1111.583,1386.008 1429.517,825.813 1501.717,825.813 			"/>
			<polygon style="clip-path:url(#SVGID_00000005227538880838315990000013565555010512646588_);fill:#D5E7F7;" points="
				1301.546,1398.835 1229.346,1398.835 1547.279,838.64 1619.479,838.64 			"/>
			<polygon style="clip-path:url(#SVGID_00000005227538880838315990000013565555010512646588_);fill:#D5E7F7;" points="
				1513.934,1410.236 1441.734,1410.236 1759.668,850.04 1831.868,850.04 			"/>
			<polygon style="clip-path:url(#SVGID_00000005227538880838315990000013565555010512646588_);fill:#D5E7F7;" points="
				1346.343,1409.064 1327.306,1409.064 1645.24,848.869 1664.277,848.869 			"/>
		</g>
		<g>
			<defs>
				<path id="SVGID_00000163057359855747339650000008623804886795626926_" d="M2003.109,1246.281h180.047
					c9.328,0,16.89-7.562,16.89-16.89v-221.308c0-9.328-7.562-16.89-16.89-16.89h-180.047c-9.328,0-16.89,7.562-16.89,16.89v221.308
					C1986.22,1238.719,1993.781,1246.281,2003.109,1246.281z"/>
			</defs>
			<clipPath id="SVGID_00000139271226722679900920000001608563732192380821_">
				<use xlink:href="#SVGID_00000163057359855747339650000008623804886795626926_"  style="overflow:visible;"/>
			</clipPath>
			<polygon style="clip-path:url(#SVGID_00000139271226722679900920000001608563732192380821_);fill:#D5E7F7;" points="
				2010.582,1357.153 1938.382,1357.153 2256.315,796.958 2328.516,796.958 			"/>
			<polygon style="clip-path:url(#SVGID_00000139271226722679900920000001608563732192380821_);fill:#D5E7F7;" points="
				2055.38,1367.383 2036.343,1367.383 2354.276,807.187 2373.313,807.187 			"/>
		</g>
		<g>
			<defs>
				<path id="SVGID_00000101799064988594381400000015491132107284054159_" d="M2329.514,1246.281h43.799v-238.198
					c0-9.328-7.562-16.89-16.89-16.89h-122.671c-9.328,0-16.89,7.562-16.89,16.89v125.547
					C2216.863,1195.846,2267.299,1246.281,2329.514,1246.281z"/>
			</defs>
			<clipPath id="SVGID_00000012474619076857656660000006704629703061923212_">
				<use xlink:href="#SVGID_00000101799064988594381400000015491132107284054159_"  style="overflow:visible;"/>
			</clipPath>
			<polygon style="clip-path:url(#SVGID_00000012474619076857656660000006704629703061923212_);fill:#D5E7F7;" points="
				2183.25,1346.924 2147.15,1346.924 2465.083,786.729 2501.184,786.729 			"/>
			<polygon style="clip-path:url(#SVGID_00000012474619076857656660000006704629703061923212_);fill:#D5E7F7;" points="
				2228.048,1357.153 2209.01,1357.153 2526.944,796.958 2545.981,796.958 			"/>
		</g>
		<g>
			<defs>
				<path id="SVGID_00000151537491469214894550000009072326591423989673_" d="M630.692,1246.281h489.237
					c9.328,0,16.89-7.562,16.89-16.89v-221.308c0-9.328-7.562-16.89-16.89-16.89H630.692c-9.328,0-16.89,7.562-16.89,16.89v221.308
					C613.802,1238.719,621.364,1246.281,630.692,1246.281z"/>
			</defs>
			<clipPath id="SVGID_00000025418388987139571700000006587724629291051161_">
				<use xlink:href="#SVGID_00000151537491469214894550000009072326591423989673_"  style="overflow:visible;"/>
			</clipPath>
			<polygon style="clip-path:url(#SVGID_00000025418388987139571700000006587724629291051161_);fill:#D5E7F7;" points="
				617.132,1380.097 544.932,1380.097 862.866,819.901 935.066,819.901 			"/>
			<polygon style="clip-path:url(#SVGID_00000025418388987139571700000006587724629291051161_);fill:#D5E7F7;" points="
				866.256,1380.097 794.056,1380.097 1111.99,819.901 1184.19,819.901 			"/>
			<polygon style="clip-path:url(#SVGID_00000025418388987139571700000006587724629291051161_);fill:#D5E7F7;" points="
				658.524,1380.097 639.515,1380.097 957.448,819.901 976.458,819.901 			"/>
		</g>
		<g>
			<defs>
				<path id="SVGID_00000009587907430850472540000017788626134979090062_" d="M1955.219,991.194h-126.374h-14.955h-84.993
					c-9.328,0-16.89,7.562-16.89,16.89v493.285h101.883h14.955h143.264v-493.285
					C1972.108,998.756,1964.547,991.194,1955.219,991.194z"/>
			</defs>
			<clipPath id="SVGID_00000106851864894346041000000014409675481473735317_">
				<use xlink:href="#SVGID_00000009587907430850472540000017788626134979090062_"  style="overflow:visible;"/>
			</clipPath>
			<polygon style="clip-path:url(#SVGID_00000106851864894346041000000014409675481473735317_);fill:#D5E7F7;" points="
				1619.644,1517.11 1547.444,1517.11 1865.377,956.914 1937.577,956.914 			"/>
			<polygon style="clip-path:url(#SVGID_00000106851864894346041000000014409675481473735317_);fill:#D5E7F7;" points="
				1664.441,1527.339 1645.404,1527.339 1963.338,967.144 1982.375,967.144 			"/>
			<polygon style="clip-path:url(#SVGID_00000106851864894346041000000014409675481473735317_);fill:#D5E7F7;" points="
				1792.312,1506.88 1756.212,1506.88 2074.145,946.685 2110.245,946.685 			"/>
		</g>
		<rect x="1834.87" y="991.194" style="fill:#163560;" width="13.933" height="510.174"/>
		<path style="fill:#163560;" d="M1119.929,1250.504H630.692c-11.641,0-21.112-9.471-21.112-21.112v-221.308
			c0-11.641,9.471-21.112,21.112-21.112h489.237c11.641,0,21.112,9.471,21.112,21.112v221.308
			C1141.041,1241.033,1131.571,1250.504,1119.929,1250.504z M630.692,995.416c-6.985,0-12.667,5.682-12.667,12.667v221.308
			c0,6.985,5.683,12.667,12.667,12.667h489.237c6.985,0,12.667-5.682,12.667-12.667v-221.308c0-6.985-5.682-12.667-12.667-12.667
			H630.692z"/>
		<path style="fill:#163560;" d="M1678.646,1250.504h-489.238c-11.641,0-21.112-9.471-21.112-21.112v-221.308
			c0-11.641,9.471-21.112,21.112-21.112h489.238c11.641,0,21.112,9.471,21.112,21.112v221.308
			C1699.759,1241.033,1690.288,1250.504,1678.646,1250.504z M1189.409,995.416c-6.985,0-12.667,5.682-12.667,12.667v221.308
			c0,6.985,5.682,12.667,12.667,12.667h489.238c6.984,0,12.667-5.682,12.667-12.667v-221.308c0-6.985-5.683-12.667-12.667-12.667
			H1189.409z"/>
		<path style="fill:#163560;" d="M1976.331,1505.591h-268.547v-497.508c0-11.641,9.471-21.112,21.112-21.112h226.323
			c11.641,0,21.112,9.471,21.112,21.112V1505.591z M1716.229,1497.146h251.657v-489.063c0-6.985-5.682-12.667-12.667-12.667
			h-226.323c-6.985,0-12.667,5.682-12.667,12.667V1497.146z"/>
		<path style="fill:#163560;" d="M2183.157,1250.504h-180.047c-11.641,0-21.112-9.471-21.112-21.112v-221.308
			c0-11.641,9.471-21.112,21.112-21.112h180.047c11.641,0,21.112,9.471,21.112,21.112v221.308
			C2204.269,1241.033,2194.798,1250.504,2183.157,1250.504z M2003.109,995.416c-6.985,0-12.667,5.682-12.667,12.667v221.308
			c0,6.985,5.682,12.667,12.667,12.667h180.047c6.985,0,12.667-5.682,12.667-12.667v-221.308c0-6.985-5.682-12.667-12.667-12.667
			H2003.109z"/>
		<path style="fill:#163560;" d="M2368.465,1250.504h-38.951c-64.443,0-116.873-52.429-116.873-116.873v-125.547
			c0-11.641,9.471-21.112,21.112-21.112h122.67c11.641,0,21.112,9.471,21.112,21.112v233.35
			C2377.536,1246.435,2373.467,1250.504,2368.465,1250.504z M2233.753,995.416c-6.985,0-12.667,5.682-12.667,12.667v125.547
			c0,59.788,48.64,108.428,108.427,108.428h38.951c0.345,0,0.626-0.281,0.626-0.626v-233.35c0-6.985-5.682-12.667-12.667-12.667
			H2233.753z"/>
		<rect x="1682.449" y="1501.368" style="fill:#A8D29F;" width="318.794" height="15.097"/>
		<rect x="1668.515" y="1516.465" style="fill:#82B378;" width="346.662" height="15.097"/>
		<path style="fill:#A8D29F;" d="M2413.494,1150.52L2413.494,1150.52c-9.95,0-18.016-8.066-18.016-18.016V985.001
			c0-9.95,8.066-18.016,18.016-18.016l0,0c9.95,0,18.016,8.066,18.016,18.016v147.504
			C2431.51,1142.454,2423.444,1150.52,2413.494,1150.52z"/>
		<path style="fill:#82B378;" d="M2405.823,978.738h-169.46c-6.491,0-11.752-5.262-11.752-11.752v0
			c0-6.491,5.262-11.752,11.752-11.752h169.46c6.491,0,11.752,5.262,11.752,11.752v0
			C2417.575,973.476,2412.314,978.738,2405.823,978.738z"/>
	</g>
	<g>
		<path style="fill:#2C3A64;" d="M613.307,1109.106c-0.079-1.067-1.337-12.547-18.894-12.491c0,0,8.661,0.705,10.293,4.439
			c0,0-6.047-4.464-10.771-2.778c-4.725,1.686-7.219,10.167-7.143,12.924c0.075,2.756,3.064,11.538,6.127,12.179
			c1.16,0.243,2.481,0.117,3.675-0.133c-0.76,1.291-1.499,2.711-2.198,4.292c-6.458,14.625,1.284,28.39,7.149,26.617
			c3.762-1.137,5.079,5.305,5.079,5.305l35.786-31.262C642.41,1128.199,627.803,1100.657,613.307,1109.106z"/>
		<path style="fill:#C0783D;" d="M600.985,1297.981c0,0,6.592,13.712,14.924,32.717c9.346,21.309,20.873,49.276,27.74,72.013
			c3.631,12.026,5.961,22.587,5.968,29.931c0.003,2.52-9.715,12.755-12.519,16.658c-17.707,24.643-41.892,57.551-41.892,57.551
			l-6.601-1.657c0,0,9.246-41.16,22.718-61.708c2.649-4.04,10.112-8.959,9.757-9.403c-0.003-0.004-0.005-0.008-0.013-0.013
			c-1.163-1.457-4.064-5.11-8.021-10.32c-10.92-14.37-29.878-40.558-42.575-64.919c-0.79-1.52-1.56-3.03-2.298-4.535
			c-6.694-13.596-11.112-26.337-10.68-35.779L600.985,1297.981z"/>
		<g>
			<path style="fill:#B84C42;" d="M582.752,1506.786l4.543,2.875c1.674,0.723,3.076,0.994,4.765,1.777
				c2.567,1.189,3.043,2.851,3.119,3.212c0.011,0.048,0.013,0.072,0.013,0.072l19.298,12.211c0.924-0.386,1.474-2.287,1.765-3.758
				c0.201-0.998-0.085-2.03-0.762-2.795c-1.671-1.887-5.372-4.968-6.95-10.65c-0.89-3.193-5.668-13.258-5.668-13.258l-0.036-0.037
				c-0.177-0.107-1.171-0.378-6.725,0.388c-2.869,0.392-3.651-5.43-3.651-5.43s-0.912,0.117-1.943,0.757
				c-0.82,0.501-1.716,1.336-2.289,2.7c-0.812,1.921-3.786,4.565-5.911,6.281c-1.288,1.04-2.261,1.739-2.261,1.739
				S579.153,1503.824,582.752,1506.786z"/>
			<path style="fill:#AA3E39;" d="M590.521,1492.15c0.601,1.451,1.938,4.405,3.331,5.563c1.88,1.566,9.024-1.241,9.024-1.241
				l-0.036-0.037c-0.177-0.107-1.171-0.378-6.725,0.388c-2.869,0.392-3.651-5.43-3.651-5.43S591.552,1491.51,590.521,1492.15z"/>
			<path style="fill:#AA3E39;" d="M582.752,1506.786l4.543,2.875c1.674,0.723,3.076,0.994,4.765,1.777
				c2.567,1.189,3.043,2.851,3.119,3.212c0.011,0.048,0.013,0.072,0.013,0.072l19.298,12.211c0.924-0.386,1.474-2.287,1.765-3.758
				c-0.256-0.892-2.183,1.788-2.788,2.027c-0.604,0.239-15.846-9.8-16.326-11.01c-0.481-1.211-2.435-4.034-6.722-5.5
				c-3.731-1.277-7.251-6.284-8.099-7.559c-1.288,1.04-2.261,1.739-2.261,1.739S579.153,1503.824,582.752,1506.786z"/>
		</g>
		<path style="fill:#E69D43;" d="M716.066,1367.773l-9.325-12.426l-1.622,1.097l-0.014-0.014l-0.026,0.041l-115.81,78.299
			l-25.819-80.757l-8.741,2.794l26.638,83.319l-101.5,68.624l122.341,10.639l0.794-9.142l-96.547-8.396l78.564-50.298l21.542,67.381
			l8.741-2.794l-2.466-7.713l5.86,3.781L716.066,1367.773z M592.998,1446.432l93.152-59.638l-74.212,118.881L592.998,1446.432z"/>
		<g>
			<path style="fill:#DD7F30;" d="M565.02,1414.801c-1.293,0.454-2.721,0.307-3.894-0.402l0,0
				c-41.269-24.933-98.363-15.563-114.88-12.096l-0.027,0.005c-0.91,0.192-1.766-0.503-1.766-1.433v-3.226
				c0-2.467,1.804-4.561,4.244-4.925c8.935-1.33,29.809-4.187,41.47-4.237c0.315-0.001,0.63-0.002,0.944-0.002
				c26.122,0,48.682,4.675,67.22,13.915c3.785,1.887,8.173,2.152,12.163,0.751l5.087-1.787c2.906-1.021,6.089,0.507,7.109,3.412l0,0
				c0.659,1.877-0.327,3.932-2.203,4.591L565.02,1414.801z"/>
		</g>
		<path style="fill:#415DA5;" d="M526.663,1351.969c0,0-1.657-7.52,3.059-8.03c4.716-0.51,21.923,3.187,26.511,2.677
			c4.589-0.51,28.551-4.461,32.757-0.382c4.206,4.079,2.422,7.648-5.99,8.412c-8.412,0.765-19.628,2.167-22.815,4.844
			C556.998,1362.165,533.929,1370.068,526.663,1351.969z"/>
		<path style="fill:#415DA5;" d="M648.751,1500.644l-17.22-9.941c-2.024-1.168-4.635-0.469-5.804,1.555
			c-1.168,2.023-0.469,4.635,1.555,5.803l2.123,1.226l-2.045,2.263c-4.169-4.288-9.995-6.955-16.447-6.955
			c-12.671,0-22.943,10.271-22.943,22.942c0,12.671,10.272,22.942,22.943,22.942c12.671,0,22.943-10.271,22.943-22.942
			c0-5.257-1.772-10.097-4.745-13.965l2.646-2.927l12.746,7.359c2.024,1.168,4.635,0.468,5.804-1.555l0,0
			C651.474,1504.423,650.774,1501.812,648.751,1500.644z"/>
		<g>
			<g>
				<path style="fill:#415DA5;" d="M566.892,1493.22l-0.338-2.011l-76.625,12.853l2.926-4.181l0.909,0.303l1.019-3.057l41.335-59.05
					l-1.671-1.169l-37.401,53.429l20.17-60.51l-1.935-0.645l-22.339,67.018l-4.741,6.774l-0.837-0.58l-0.062-0.174l1.416-1.428
					v-77.405h-2.039v75.775l-0.505-0.086l-1.926-5.367l0.142-0.124l-0.317-0.365l-21.585-60.151l-1.92,0.689l19.813,55.211
					l-39.836-45.858l-1.539,1.337l43.277,49.819l1.583,4.411l-11.061-1.902l-58.059-29.433l-0.922,1.82l52.155,26.44l-58.149-10
					l-0.346,2.01l64.671,11.122l10.472,5.308l-1.338,1.349l-72.763,10.797l0.3,2.018l70.066-10.397l-0.58,0.585l-63.411,27.24
					l0.805,1.874l58.773-25.247l-46.134,46.535l1.448,1.436l49.688-50.12l5.587-2.4l-40.034,62.981l1.721,1.094l36.44-57.326
					c-7.8,20.532-25.625,67.47-26.032,68.692l1.935,0.646c0.386-1.159,18.386-48.569,28.635-75.542
					c0.464,1.141,0.943,2.318,1.435,3.528l-6.053,73.136l2.032,0.168l5.721-69.124c10.747,26.423,26.063,64.133,26.455,65.284
					l1.934-0.646c-0.4-1.199-17.93-44.333-26.296-64.904l37.722,59.654l1.724-1.09l-42.968-67.949l63.957,44.35l1.162-1.676
					l-62.356-43.239L566.892,1493.22z M484.501,1500.857l-0.949,1.369l-4.573-2.318L484.501,1500.857z"/>
				<circle style="fill:#2C3A64;" cx="487.699" cy="1505.471" r="15.04"/>
			</g>
			<g>
				<path style="fill:#2C3A64;" d="M487.699,1593.672c-48.634,0-88.201-39.567-88.201-88.201s39.567-88.201,88.201-88.201
					s88.201,39.567,88.201,88.201c0,15.59-4.124,30.914-11.926,44.315c-7.63,13.107-18.575,24.096-31.651,31.779
					C518.845,1589.486,503.414,1593.672,487.699,1593.672z M487.699,1429.506c-41.887,0-75.965,34.078-75.965,75.965
					c0,41.888,34.078,75.965,75.965,75.965c13.537,0,26.824-3.603,38.425-10.419c11.269-6.621,20.701-16.091,27.276-27.386
					c6.715-11.535,10.265-24.73,10.265-38.16C563.664,1463.583,529.587,1429.506,487.699,1429.506z"/>
			</g>
			<g>
				<path style="fill:#B84C42;" d="M488.374,1583.683c-42.838,0-77.69-34.852-77.69-77.69s34.852-77.691,77.69-77.691
					c42.839,0,77.691,34.852,77.691,77.691S531.213,1583.683,488.374,1583.683z M488.374,1431.44
					c-41.108,0-74.553,33.444-74.553,74.553c0,41.108,33.444,74.553,74.553,74.553c41.109,0,74.553-33.444,74.553-74.553
					C562.927,1464.884,529.483,1431.44,488.374,1431.44z"/>
			</g>
		</g>
		<path style="fill:#C0783D;" d="M634.644,1191.993c0,0-12.467,7.016-11,24.783c1.467,17.767,17.773,45.775,30.169,52.726
			c9.818,5.506,38.218,14.1,38.218,14.1l1.022-7.712c0,0-23.109-15.088-28.108-20.24
			C654.219,1244.595,644.009,1187.696,634.644,1191.993z"/>
		<path style="fill:#CE8E55;" d="M633.403,1231.946c-0.568,4.004-1.622,7.452-2.926,10.731c-1.086,2.745-2.342,5.362-3.634,8.088
			c-3.786,8.013-12.707,11.958-13.008,27.362c-0.102,5.305-4.526,17.252-2.022,25.909c12.333,42.671-68.369,3.87-63.999-7.466
			c8.686-22.527,21.093-35.55,20.832-54.105c0.003-0.05-0.008-0.094-0.014-0.143c-0.078-0.898-0.2-3.307-0.338-6.49
			c-0.337-7.787-0.775-20.208-0.935-26.495c-0.006-0.148-0.006-0.291-0.012-0.43c-0.065-2.693-0.147-4.641-0.251-5.153
			c5.999-25.53,19.805-25.639,24.517-25.56c1.746,0.029,3.58,0.144,5.088,0.271c2.96-1.685,8.083-9.538,10.739-22.451l1.076,0.457
			l18.094,7.691c0,0-1.673,5.853-2.859,11.445c-0.926,4.372-1.548,8.584-0.851,9.734c1.423,0.516,2.274,0.843,2.274,0.843
			s0,0.005,0.005,0.018C625.499,1186.92,636.293,1211.641,633.403,1231.946z"/>
		<path style="fill:#C0783D;" d="M630.477,1242.677c-1.086,2.745-2.342,5.362-3.634,8.088c-3.786,8.013-12.707,11.958-13.008,27.362
			c-0.273,0.028-0.55,0.052-0.831,0.076c-33.093,2.586-44.371-35.882-44.371-35.882c-0.078-0.898-0.2-3.307-0.338-6.49l59.719,0.098
			C628.013,1235.929,629.245,1238.632,630.477,1242.677z"/>
		<path style="fill:#C0783D;" d="M626.612,1164.163c0,0-1.674,5.851-2.859,11.445c-10.501-2.51-14.067-13.316-15.236-19.136
			L626.612,1164.163z"/>
		<path style="fill:#739CF3;" d="M645.618,1206.084c-0.997-2.654-5.839-12.823-5.839-12.823s-3.901-3.334-14.604-7.077
			c0,0,0,0.005,0.005,0.018c0.193,0.612,5.286,16.693,3.781,20.221c-1.534,3.592-33.456-6.617-35.273-9.151
			c-1.458-2.031-1.911-13.056-2.032-17.357c-0.031-1.066-0.042-1.721-0.042-1.721s-11.821-1.154-18.327,1.772
			c0,0,2.819,5.568,4.017,11.789c0.112,0.588,0.21,1.181,0.291,1.775c0.173,1.258,0.26,2.52,0.235,3.75
			c-0.067,3.129-2.896,5.67-6.695,8.665c-1.185,0.932-2.467,1.909-3.786,2.963c0.005,0.139,0.006,0.282,0.012,0.43
			c0.224,8.859,0.999,29.888,1.272,32.985c0.006,0.049,0.008,0.094,0.014,0.143c5.637-0.269,18.743-0.613,32.09,1.044
			c4.308,0.534,8.646,1.281,12.762,2.307c4.898,1.211,9.484,2.824,13.345,4.949c0.16,0.088,0.32,0.177,0.476,0.265
			c0,0,5.263-11.424,10.998-25.099c0.206-0.497,0.394-0.988,0.559-1.483c1.825-5.447,1.246-10.956,0.369-15.859
			C642.202,1206.109,645.618,1206.084,645.618,1206.084z"/>
		<path style="fill:#CE8E55;" d="M629.029,1170.201c0,0-25.079-4.822-21.836-20.394c3.244-15.572,2.191-26.682,18.341-24.261
			c16.15,2.42,18.013,9.008,18.195,14.469C643.91,1145.476,635.637,1171.054,629.029,1170.201z"/>
		<path style="fill:#6488D3;" d="M627.319,1251.03c-0.156-0.088-0.316-0.177-0.476-0.265c-3.861-2.125-8.447-3.738-13.345-4.949
			c-4.116-1.025-8.454-1.773-12.762-2.307c-13.347-1.657-26.453-1.313-32.09-1.044c-0.006-0.049-0.008-0.094-0.014-0.143
			c-0.273-3.098-1.048-24.127-1.272-32.985c-0.006-0.148-0.006-0.291-0.012-0.43c1.32-1.054,2.601-2.031,3.786-2.963
			C587.384,1213.834,617.963,1230.821,627.319,1251.03z"/>
		<path style="fill:#2C3A64;" d="M644.799,1131.203c-2.883-5.492-6.018-5.076-7.948-4.01c-12.088-10.372-23.216-1.111-23.216-1.111
			c-4.011,10.82-13.407,15.533-13.407,15.533s3.966,3.768,15.034,3.267c3.381-0.153,6.722-1.833,9.736-4.089
			c-5.742,6.234-12.602,10.155-12.602,10.155c13.759-3.172,22.45-19.564,23.339-21.303c1.239,1.689,3.623,5.296,3.929,8.405
			c0.416,4.225-0.733,12.504,1.704,12.725C641.366,1150.774,649.122,1139.439,644.799,1131.203z"/>
		<path style="fill:#CE8E55;" d="M659.354,1283.866l-1.802,7.693c0,0-42.08-5.746-55.835-13.753
			c-13.756-8.006-34.582-55.068-36.225-74.966c-0.089-1.055-0.145-2.062-0.167-3.021c-0.5-17.182,7.961-19.854,7.961-19.854
			c3.387-1.553,7.596,4.254,12.054,13.327c9.352,19.029,19.803,52.433,26.014,62.323
			C616.123,1263.21,659.354,1283.866,659.354,1283.866z"/>
		<path style="fill:#739CF3;" d="M585.34,1193.292c-11.539-2.72-20.015,6.527-20.015,6.527c-0.5-17.182,7.961-19.854,7.961-19.854
			C576.673,1178.412,580.882,1184.22,585.34,1193.292z"/>
		<path style="fill:#CE8E55;" d="M547.002,1298.252c0,0-18.656,29.572,4.398,45.837c23.053,16.266,100.667,24.045,96.861,27.199
			c-11.641,9.65-22.216,24.492-21.659,113.358l5.751,2.968c0,0,55.348-120.405,51.637-134.752
			C681.534,1343.364,600.808,1291.954,547.002,1298.252z"/>
		<path style="fill:#35488B;" d="M591.753,1359.789c0,0-45.254-8.418-51.88-24.393c-4.539-10.943-4.697-17.461,16.616-57.534
			c0,0,8.721,16.798,55.206,12.88c0,0-0.054,2.318-0.054,5.286c0.06,4.927,0.831,11.932,4.69,13.951
			c0.06,0.059,0.178,0.059,0.237,0.119c6.115,2.79,15.587,8.42,17.012,8.954C633.64,1319.052,605.052,1324.525,591.753,1359.789z"/>
		<path style="fill:#2C3A64;" d="M616.332,1309.98c-20.719-6.115-44.644-7.54-44.644-7.718c17.573-4.512,30.456-6.234,39.954-6.234
			C611.701,1300.956,612.473,1307.961,616.332,1309.98z"/>
		<g>
			<path style="fill:#B84C42;" d="M618.809,1488.958l4.846,2.328c1.746,0.524,3.17,0.63,4.94,1.212
				c2.688,0.883,3.354,2.478,3.471,2.828c0.016,0.046,0.022,0.07,0.022,0.07l20.585,9.889c0.873-0.491,1.199-2.443,1.317-3.937
				c0.083-1.014-0.32-2.007-1.081-2.687c-1.879-1.681-5.912-4.311-8.14-9.772c-1.255-3.068-7.168-12.51-7.168-12.51l-0.04-0.032
				c-0.188-0.086-1.207-0.24-6.635,1.166c-2.804,0.723-4.257-4.97-4.257-4.97s-0.893,0.222-1.842,0.977
				c-0.757,0.593-1.549,1.526-1.96,2.948c-0.583,2.003-3.231,4.974-5.142,6.925c-1.159,1.182-2.044,1.99-2.044,1.99
				S614.89,1486.434,618.809,1488.958z"/>
			<path style="fill:#AA3E39;" d="M624.826,1473.519c0.765,1.371,2.436,4.15,3.955,5.139c2.049,1.337,8.819-2.28,8.819-2.28
				l-0.04-0.032c-0.188-0.086-1.207-0.24-6.635,1.166c-2.804,0.723-4.257-4.97-4.257-4.97S625.776,1472.764,624.826,1473.519z"/>
			<path style="fill:#AA3E39;" d="M618.809,1488.958l4.846,2.328c1.746,0.524,3.17,0.63,4.94,1.212
				c2.688,0.883,3.354,2.478,3.471,2.828c0.016,0.046,0.022,0.07,0.022,0.07l20.585,9.889c0.873-0.491,1.199-2.443,1.317-3.937
				c-0.358-0.856-1.961,2.029-2.534,2.337c-0.573,0.307-16.876-7.894-17.494-9.041c-0.618-1.147-2.887-3.724-7.315-4.682
				c-3.854-0.835-7.931-5.4-8.922-6.568c-1.159,1.182-2.044,1.99-2.044,1.99S614.89,1486.434,618.809,1488.958z"/>
		</g>
		<path style="fill:#DD7F30;" d="M735.797,1391.219c-1.311-3.299-4.381-5.349-7.702-5.561
			c-38.076-87.473-38.484-88.159-39.06-89.099l-5.506,10.908c-0.292-0.477,20.789,46.383,35.834,80.732l0,0
			c-1.167,0.467-1.701,1.819-1.169,2.958l51.448,110.1l8.497-3.468L735.797,1391.219z"/>
		<path style="fill:#415DA5;" d="M738.169,1282.929c-1.808-6.083-8.204-9.548-14.287-7.74c-4.813,1.43-7.985,5.734-8.205,10.482
			l-51.213,12.852c-2.879-3.116-7.379-4.514-11.72-3.223c-6.083,1.808-9.548,8.205-7.741,14.287
			c1.808,6.083,8.204,9.548,14.287,7.74c2.983-0.887,5.335-2.879,6.745-5.395l58.219-14.611c1.963,0.514,4.086,0.514,6.173-0.106
			C736.511,1295.408,739.977,1289.012,738.169,1282.929z"/>
		<path style="fill:#CE8E55;" d="M659.354,1283.866c0,0,7.966,4.099,10.753,3.94c4.449-0.253,10.111,1.67,10.111,1.67
			s5.937,1.762,6.493,8.813c0,0-0.026,2.046-9.369-0.835c-2.042-0.63-6.957,0.557-8.627,0s-8.227-5.298-11.163-5.895
			L659.354,1283.866z"/>
		<path style="fill:#C0783D;" d="M693.051,1275.889c0,0,6.3,4.125,10.753,3.939c4.453-0.186,10.111,1.67,10.111,1.67
			s5.937,1.763,6.493,8.813c0,0-0.128,2.9-9.369-0.835c-2.535-1.024-6.957,0.557-8.627,0c-1.67-0.557-7.789-5.252-12.026-6.416
			L693.051,1275.889z"/>
		<g>
			<g>
				<path style="fill:#415DA5;" d="M854.521,1493.22l-0.338-2.011l-76.625,12.853l2.926-4.181l0.909,0.303l1.019-3.057l41.335-59.05
					l-1.671-1.169l-37.401,53.429l20.17-60.51l-1.935-0.645l-22.339,67.018l-4.741,6.774l-0.837-0.58l-0.063-0.174l1.416-1.428
					v-77.405h-2.039v75.775l-0.505-0.086l-1.926-5.367l0.142-0.124l-0.317-0.365l-21.585-60.151l-1.92,0.689l19.813,55.211
					l-39.836-45.858l-1.54,1.337l43.277,49.819l1.583,4.411l-11.061-1.902l-58.059-29.433l-0.922,1.82l52.155,26.44l-58.149-10
					l-0.346,2.01l64.671,11.122l10.472,5.308l-1.338,1.349l-72.763,10.797l0.3,2.018l70.066-10.397l-0.58,0.585l-63.411,27.24
					l0.805,1.874l58.773-25.248l-46.134,46.535l1.448,1.436l49.688-50.12l5.587-2.4l-40.034,62.981l1.721,1.094l36.44-57.326
					c-7.8,20.532-25.624,67.47-26.032,68.692l1.935,0.646c0.386-1.159,18.386-48.569,28.635-75.542
					c0.464,1.14,0.943,2.318,1.435,3.528l-6.053,73.136l2.032,0.168l5.721-69.124c10.746,26.423,26.063,64.133,26.455,65.284
					l1.934-0.646c-0.4-1.199-17.93-44.332-26.296-64.904l37.722,59.654l1.724-1.09l-42.968-67.949l63.958,44.35l1.162-1.676
					l-62.355-43.239L854.521,1493.22z M772.13,1500.857l-0.949,1.369l-4.573-2.318L772.13,1500.857z"/>
				<circle style="fill:#2C3A64;" cx="775.328" cy="1505.471" r="15.04"/>
			</g>
			<g>
				<path style="fill:#2C3A64;" d="M775.328,1593.672c-48.634,0-88.201-39.567-88.201-88.201s39.567-88.201,88.201-88.201
					c48.634,0,88.201,39.567,88.201,88.201c0,15.59-4.124,30.914-11.926,44.315c-7.63,13.107-18.574,24.096-31.651,31.779
					C806.473,1589.486,791.043,1593.672,775.328,1593.672z M775.328,1429.506c-41.887,0-75.965,34.078-75.965,75.965
					c0,41.888,34.078,75.965,75.965,75.965c13.537,0,26.824-3.603,38.425-10.419c11.269-6.621,20.701-16.091,27.276-27.386
					c6.715-11.535,10.265-24.73,10.265-38.16C851.293,1463.583,817.215,1429.506,775.328,1429.506z"/>
			</g>
			<g>
				<path style="fill:#B84C42;" d="M776.003,1583.683c-42.839,0-77.69-34.852-77.69-77.69s34.852-77.691,77.69-77.691
					c42.839,0,77.69,34.852,77.69,77.691S818.842,1583.683,776.003,1583.683z M776.003,1431.44
					c-41.108,0-74.553,33.444-74.553,74.553c0,41.108,33.444,74.553,74.553,74.553c41.109,0,74.553-33.444,74.553-74.553
					C850.556,1464.884,817.112,1431.44,776.003,1431.44z"/>
			</g>
		</g>
	</g>
	<g>
		<path style="fill:#C0783D;" d="M1269.866,1516.798l-7.607-1.484c0,0,18.181-71.902,15.688-77.838
			c-2.019-4.928-22.975-8.49-33.246-17.098c-2.197-1.84-3.859-3.858-4.809-6.174c-5.462-13.357,3.444-23.272,3.444-23.272
			s18.641,4.275,35.561,11.517c12.052,5.165,23.213,11.874,26.299,19.651C1312.617,1440.919,1269.866,1516.798,1269.866,1516.798z"
			/>
		<path style="fill:#2C3A64;" d="M1290.561,1527.883c-0.117-0.747-0.62-1.421-1.352-1.824c-1.809-0.997-5.513-2.425-8.285-6.128
			c-1.561-2.08-8.005-8.235-8.005-8.235l-0.038-0.018c-0.167-0.04-1.009-0.03-5.096,1.642c-2.112,0.862-4.307-3.102-4.307-3.102
			s-0.674,0.268-1.297,0.931c-0.498,0.522-0.962,1.295-1.033,2.378c-0.103,1.526-1.682,4.003-2.856,5.65
			c-0.712,0.999-1.274,1.692-1.274,1.692s-0.441,0.86,3.152,2.225l4.299,1.111c1.492,0.172,2.651,0.078,4.172,0.289
			c2.31,0.32,3.133,1.4,3.29,1.64c0.022,0.032,0.03,0.049,0.03,0.049l18.263,4.721
			C1290.831,1530.441,1290.737,1528.983,1290.561,1527.883z"/>
		<g id="BPbxa9_1_">
			<path style="fill:#B84C42;" d="M1353.35,1423.947l-7.688-7.957l0.677-1.386l-1.22,0.824l-0.01-0.011l-0.019,0.031l-87.077,58.873
				l-19.413-60.721l-6.572,2.101l20.029,62.647l-76.317,51.599l91.988,7.998l0.598-6.873l-72.594-6.313l59.072-37.819l16.198,50.664
				l6.572-2.101l-1.854-5.8l4.406,2.842L1353.35,1423.947z M1260.816,1483.09l70.041-44.841l-55.799,89.386L1260.816,1483.09z"/>
			<path style="fill:#AA3E39;" d="M1368.186,1441.576c-1.269-3.195-4.725-4.862-7.963-3.977
				c-10.054-26.087-13.398-34.671-14.595-37.624l8.184-5.208c1.247-0.09,2.485-0.508,3.574-1.292
				c3.138-2.258,3.85-6.631,1.593-9.769c-2.258-3.137-6.631-3.85-9.768-1.593c-2.461,1.771-3.422,4.843-2.636,7.599l-16.267,10.352
				c-2.311-1.335-5.284-1.287-7.591,0.373c-3.138,2.258-3.851,6.631-1.593,9.768c2.258,3.138,6.631,3.85,9.768,1.593
				c1.46-1.051,2.388-2.562,2.742-4.192l6.127-3.899c2.192,5.455,9.664,23.822,14.451,36.244l39.421,84.361l6.389-2.607
				L1368.186,1441.576z"/>
			<g>
				<path style="fill:#415DA5;" d="M1197.043,1527.354c0-0.375-0.019-0.745-0.055-1.111l48.291-8.1l-0.254-1.512l-48.291,8.101
					c-0.588-2.474-1.987-4.633-3.903-6.179l29.309-41.871l-1.256-0.879l-28.121,40.173l15.165-45.497l-1.455-0.485l-15.739,47.217
					c-1.291-0.638-2.722-1.035-4.234-1.137v-50.438h-1.533v50.438c-0.876,0.059-1.726,0.215-2.536,0.462l-15.653-43.62l-1.444,0.518
					l14.897,41.513l-29.953-34.48l-1.158,1.005l31.22,35.939c-1.632,0.888-3.02,2.166-4.042,3.708l-1.766-0.304l-43.654-22.13
					l-0.693,1.368l39.215,19.88l-43.722-7.519l-0.26,1.511l48.626,8.363l1.276,0.647c-0.577,1.358-0.896,2.851-0.896,4.419
					c0,0.302,0.015,0.601,0.039,0.897l-48.26,7.162l0.225,1.517l48.257-7.161c0.099,0.456,0.226,0.901,0.378,1.334l-44.068,18.931
					l0.605,1.409l44.069-18.931c0.008,0.016,0.016,0.031,0.024,0.047l-34.589,34.89l1.089,1.08l34.325-34.623
					c0.698,0.981,1.547,1.845,2.516,2.559l-25.382,39.93l1.294,0.823l25.38-39.928c0.223,0.121,0.452,0.233,0.683,0.34
					c-6.341,16.695-17.953,47.28-18.238,48.134l1.455,0.485c0.252-0.756,10.479-27.707,18.216-48.073
					c1.042,0.317,2.146,0.488,3.291,0.488c0.188,0,0.375-0.005,0.562-0.014l-4.009,48.443l1.528,0.127l4.035-48.757
					c0.487-0.092,0.962-0.216,1.425-0.368c7.978,19.619,18.452,45.413,18.733,46.238l1.454-0.486
					c-0.285-0.856-12.18-30.131-18.766-46.328c0.142-0.069,0.283-0.141,0.422-0.216l26.936,42.597l1.296-0.82l-26.938-42.599
					c1.073-0.787,2.003-1.757,2.741-2.867l39.979,27.723l0.874-1.26l-40.088-27.798
					C1196.639,1530.788,1197.043,1529.118,1197.043,1527.354z"/>
				<g>
					<path style="fill:#2C3A64;" d="M1185.735,1593.672c-36.568,0-66.318-29.75-66.318-66.318c0-36.568,29.75-66.318,66.318-66.318
						c36.568,0,66.318,29.75,66.318,66.318c0,11.722-3.101,23.244-8.968,33.321c-5.737,9.855-13.966,18.118-23.798,23.895
						C1209.153,1590.524,1197.551,1593.672,1185.735,1593.672z M1185.735,1470.236c-31.495,0-57.118,25.623-57.118,57.118
						c0,31.495,25.623,57.118,57.118,57.118c10.179,0,20.169-2.71,28.891-7.834c8.473-4.979,15.565-12.099,20.508-20.591
						c5.049-8.673,7.718-18.595,7.718-28.692C1242.853,1495.859,1217.229,1470.236,1185.735,1470.236z"/>
				</g>
			</g>
			<g>
				<path style="fill:#415DA5;" d="M1410.437,1527.354c0-0.375-0.019-0.745-0.055-1.111l48.291-8.1l-0.253-1.512l-48.291,8.101
					c-0.588-2.474-1.987-4.633-3.902-6.179l29.309-41.871l-1.256-0.879l-28.122,40.173l15.166-45.497l-1.454-0.485l-15.739,47.217
					c-1.292-0.638-2.722-1.035-4.234-1.137v-50.438h-1.533v50.438c-0.877,0.059-1.726,0.215-2.536,0.462l-15.653-43.62l-1.443,0.518
					l14.897,41.513l-29.953-34.48l-1.158,1.005l31.22,35.939c-1.632,0.888-3.02,2.166-4.041,3.708l-1.766-0.304l-43.654-22.13
					l-0.693,1.368l39.215,19.88l-43.722-7.519l-0.26,1.511l48.626,8.363l1.276,0.647c-0.577,1.358-0.896,2.851-0.896,4.419
					c0,0.302,0.015,0.601,0.039,0.897l-48.26,7.162l0.225,1.517l48.257-7.161c0.099,0.456,0.226,0.901,0.378,1.334l-44.067,18.931
					l0.605,1.409l44.069-18.931c0.008,0.016,0.016,0.031,0.024,0.047l-34.59,34.89l1.089,1.08l34.325-34.623
					c0.698,0.981,1.547,1.845,2.516,2.559l-25.382,39.93l1.294,0.823l25.381-39.928c0.223,0.121,0.451,0.233,0.683,0.34
					c-6.341,16.695-17.953,47.28-18.238,48.134l1.455,0.485c0.252-0.756,10.48-27.707,18.216-48.073
					c1.041,0.317,2.146,0.488,3.291,0.488c0.188,0,0.375-0.005,0.561-0.014l-4.009,48.443l1.528,0.127l4.035-48.757
					c0.487-0.092,0.962-0.216,1.425-0.368c7.977,19.619,18.452,45.413,18.733,46.238l1.454-0.486
					c-0.286-0.856-12.18-30.131-18.767-46.328c0.142-0.069,0.283-0.141,0.422-0.216l26.936,42.597l1.296-0.82l-26.938-42.599
					c1.073-0.787,2.003-1.757,2.741-2.867l39.979,27.723l0.874-1.26l-40.088-27.798
					C1410.032,1530.788,1410.437,1529.118,1410.437,1527.354z"/>
				<g>
					<path style="fill:#2C3A64;" d="M1399.128,1593.672c-36.568,0-66.318-29.75-66.318-66.318c0-36.568,29.75-66.318,66.318-66.318
						c36.568,0,66.318,29.75,66.318,66.318c0,11.722-3.101,23.244-8.967,33.321c-5.737,9.855-13.966,18.118-23.798,23.895
						C1422.546,1590.524,1410.944,1593.672,1399.128,1593.672z M1399.128,1470.236c-31.495,0-57.118,25.623-57.118,57.118
						c0,31.495,25.623,57.118,57.118,57.118c10.179,0,20.169-2.71,28.891-7.834c8.474-4.979,15.565-12.099,20.509-20.591
						c5.049-8.673,7.718-18.595,7.718-28.692C1456.246,1495.859,1430.623,1470.236,1399.128,1470.236z"/>
				</g>
			</g>
			<g>
				<path style="fill:#AA3E39;" d="M1239.779,1459.307c-0.972,0.341-2.046,0.231-2.928-0.302l0,0
					c-31.03-18.747-73.959-11.702-86.378-9.096l-0.021,0.004c-0.684,0.144-1.328-0.378-1.328-1.078v-2.425
					c0-1.855,1.356-3.43,3.191-3.703c6.718-1,22.413-3.148,31.181-3.186c0.237-0.001,0.474-0.001,0.71-0.001
					c19.641,0,36.604,3.515,50.542,10.462c2.846,1.419,6.145,1.618,9.146,0.564l3.824-1.344c2.185-0.767,4.578,0.381,5.346,2.566
					l0,0c0.496,1.411-0.246,2.956-1.657,3.452L1239.779,1459.307z"/>
			</g>
			<path style="fill:#AA3E39;" d="M1210.939,1412.064c0,0-1.246-5.655,2.3-6.037c3.546-0.383,16.484,2.395,19.934,2.013
				c3.45-0.384,21.467-3.354,24.63-0.288c3.163,3.067,1.821,5.75-4.504,6.325c-6.325,0.575-14.759,1.629-17.154,3.642
				C1233.748,1419.73,1216.402,1425.672,1210.939,1412.064z"/>
			<path style="fill:#415DA5;" d="M1310.448,1547.798h-6.341l-13.355-6.086c0.51-1.628,0.785-3.361,0.785-5.158
				c0-9.527-7.723-17.25-17.25-17.25c-9.527,0-17.25,7.724-17.25,17.25c0,9.527,7.723,17.25,17.25,17.25
				c6.779,0,12.642-3.912,15.461-9.6l7.889,3.594h-2.138c-1.757,0-3.194,1.438-3.194,3.195c0,1.757,1.437,3.195,3.194,3.195h14.95
				c1.757,0,3.195-1.438,3.195-3.195C1313.643,1549.236,1312.205,1547.798,1310.448,1547.798z"/>
		</g>
		<path style="fill:#C0783D;" d="M1343.136,1384.063c-0.026-0.008-0.055-0.01-0.082-0.017c-5.749-3.136-36.317-19.971-37.661-24.004
			c-0.831-2.494-4.69-13.001-8.905-22.322c-1.068-2.315-2.487-2.079-3.556-4.157c-2.316-4.453-11.015-0.774-12.677-1.546
			c-5.462-2.494-11.491-4.627-11.491,0.835c0,0,1.544,3.977,3.918,9.499c0.95,2.197,2.019,4.631,3.147,7.183
			c4.749,10.39,10.923,22.263,15.198,24.4c6.928,3.412,33.161,14.515,43.39,16.384c-0.008,0.01-0.014,0.018-0.014,0.018
			s4.926,4.853,6.02,5.77s3.553,1.946,5.92,1.108c2.366-0.837,2.304-4.753,2.433-5.747
			C1348.903,1390.474,1348.468,1385.603,1343.136,1384.063z"/>
		<path style="fill:#CE8E55;" d="M1265.63,1323.864l19.064,7.036c2.435-2.366,4.878-6.129,6.838-9.567
			c2.433-4.272,4.119-8.046,4.119-8.046l-13.319-9.326l-5.915-4.145C1276.146,1308.314,1265.63,1323.864,1265.63,1323.864z"/>
		<path style="fill:#C0783D;" d="M1276.085,1304.171c0,0,4.828,13.231,15.446,17.162c2.433-4.272,4.119-8.046,4.119-8.046
			l-13.319-9.326L1276.085,1304.171z"/>
		<path style="fill:#CE8E55;" d="M1301.683,1312.999c0,0-23.573,3.697-25.649-11.02c-2.076-14.716-6.517-24.15,8.446-27.132
			s18.686,2.22,20.574,6.963C1306.942,1286.554,1307.762,1311.658,1301.683,1312.999z"/>
		<path style="fill:#2C3A64;" d="M1267.173,1272.167c0,0,1.07,0.217,1.931,1.116c0.007-0.01,0.012-0.017,0.012-0.017
			c0.061-3.173,3.177-6.382,3.177-6.382c-1.497,1.88-1.011,5.362-1.011,5.362c4.44-7.593,26.052-1.621,28.078-1.116
			c2.026,0.504,3.457-2.535,3.457-2.535c3.199,2.772,4.418,9.556,1.765,13.989c-2.652,4.433-11.253,10.954-13.729,9.714
			c-2.477-1.24-2.482,1.323-2.352,4.924c0.13,3.601-6.11,9.654-10.508,10.534c-3.543,0.709-3.821-1.717-4.788-3.264
			c-0.24-0.383-0.526-0.738-0.862-1.041c-4.824-4.356-7.483-13.061-6.402-21.637c0.429-3.407,1.839-6.269,2.627-7.654
			C1268.253,1273.618,1267.63,1272.599,1267.173,1272.167z"/>
		<path style="fill:#2C3A64;" d="M1278.897,1402.449c-0.237,1.069-2.85,9.855-9.618,12.111c-4.393,1.484-15.079,5.105-24.578,5.818
			c-2.197-1.84-3.859-3.858-4.809-6.174c-5.462-13.357,3.444-23.272,3.444-23.272S1261.977,1395.206,1278.897,1402.449z"/>
		<path style="fill:#CE8E55;" d="M1226.783,1372.242c0,0-20.527,21.224-2.989,45.957c17.538,24.733,46.095,44.692,47.667,53.513
			c3.042,17.072,21.223,52.321,29.881,69.76l7.421-2.845c0,0-13.918-82.654-18.865-92.548c-4.947-9.893-30.579-56.211-30.579-56.211
			L1226.783,1372.242z"/>
		<path style="fill:#6488D3;" d="M1296.707,1336.611c-1.84,0.593-6.293,2.256-7.48,4.274c-1.246,2.019-14.307-3.621-15.851-8.905
			c3.74-4.096,10.152-7.599,13.892-6.411C1289.464,1326.222,1293.026,1330.911,1296.707,1336.611z"/>
		<path style="fill:#35488B;" d="M1221.509,1378.233c0,0,24.795,17.666,41.369,16.677c0,0,10.884,18.552,13.296,24.674
			c0,0-28.199,14.099-42.856,11.502c0,0-19.109-18.552-17.996-31.538C1216.435,1386.561,1221.509,1378.233,1221.509,1378.233z"/>
		<path style="fill:#739CF3;" d="M1289.531,1345.004l-5.944,8.467l-0.475,1.069l-12.348,28.199l-6.293,14.367
			c-4.215,1.009-12.051,0.297-15.554-0.95c-19.116-6.53-27.428-17.929-27.428-17.929c11.102-29.031,26.478-48.86,29.624-52.362
			c5.462-5.937,19.769-10.805,19.769-10.805c3.918,4.037,17.929,11.102,17.929,11.102
			C1291.898,1328.596,1289.531,1345.004,1289.531,1345.004z"/>
		<path style="fill:#6488D3;" d="M1283.112,1354.54l-12.348,28.199c-9.38-18.938-3.443-46.426-3.443-46.426
			s15.08,13.061,15.614,14.07C1282.993,1350.562,1283.112,1352.106,1283.112,1354.54z"/>
		<path style="fill:#CE8E55;" d="M1338.962,1388.238c-0.024-0.006-0.05-0.008-0.074-0.013c-5.73-3.127-36.323-19.974-37.668-24.008
			c-0.831-2.494-4.69-13.001-8.905-22.322c-1.068-2.315-2.137-4.571-3.206-6.649c-2.316-4.452-4.512-7.836-6.174-8.608
			c-5.462-2.494-18.344,4.927-18.344,10.389c0,0,1.544,3.977,3.918,9.499c0.95,2.197,2.019,4.631,3.147,7.183
			c4.749,10.39,10.924,22.263,15.198,24.4c6.928,3.412,33.161,14.515,43.39,16.385c-0.009,0.011-0.015,0.018-0.015,0.018
			s4.926,4.854,6.02,5.771c1.093,0.917,3.553,1.945,5.92,1.108c2.367-0.837,2.89-4.037,3.019-5.031
			C1345.315,1395.365,1346.303,1390.073,1338.962,1388.238z"/>
		<path style="fill:#739CF3;" d="M1292.314,1341.894c-4.987,2.256-13.951,6.649-20.66,11.814c-1.128-2.553-2.196-4.987-3.147-7.183
			c-2.374-5.521-3.918-9.499-3.918-9.499c0-5.462,12.883-12.883,18.344-10.389c1.662,0.772,3.859,4.156,6.174,8.608
			C1290.177,1337.323,1291.245,1339.579,1292.314,1341.894z"/>
		<g>
			<path style="fill:#2C3A64;" d="M1298.423,1548.237h4.441c1.488-0.207,2.586-0.588,4.111-0.764
				c2.317-0.268,3.384,0.571,3.595,0.764c0.029,0.025,0.041,0.039,0.041,0.039h18.864c0.475-0.599,0.019-1.987-0.428-3.009
				c-0.301-0.694-0.955-1.22-1.766-1.427c-2-0.512-5.944-0.968-9.555-3.86c-2.032-1.623-9.812-5.97-9.812-5.97l-0.041-0.008
				c-0.171,0.003-0.984,0.224-4.523,2.866c-1.829,1.363-4.947-1.925-4.947-1.925s-0.586,0.428-1.022,1.226
				c-0.352,0.63-0.608,1.495-0.405,2.561c0.281,1.503-0.627,4.296-1.351,6.185c-0.44,1.145-0.81,1.956-0.81,1.956
				S1294.603,1547.815,1298.423,1548.237z"/>
			<path style="fill:#2C3A64;" d="M1297.382,1536.169c1.06,0.66,3.298,1.962,4.782,2.132c2.004,0.232,5.751-4.29,5.751-4.29
				l-0.041-0.008c-0.171,0.003-0.984,0.224-4.523,2.866c-1.829,1.363-4.947-1.925-4.947-1.925S1297.818,1535.371,1297.382,1536.169z
				"/>
			<path style="fill:#2C3A64;" d="M1298.423,1548.237h4.441c1.488-0.207,2.586-0.588,4.111-0.764
				c2.317-0.268,3.384,0.571,3.595,0.764c0.029,0.025,0.041,0.039,0.041,0.039h18.864c0.475-0.599,0.019-1.987-0.428-3.009
				c-0.572-0.45-0.734,1.956-1.051,2.34c-0.317,0.383-15.388,0.14-16.259-0.42c-0.87-0.56-3.482-1.54-7.121-0.77
				c-3.168,0.669-7.837-1.047-8.992-1.503c-0.44,1.145-0.81,1.956-0.81,1.956S1294.603,1547.815,1298.423,1548.237z"/>
		</g>
	</g>
	<path style="fill:#283250;" d="M2756.798,1596.686H243.202c-1.151,0-2.093-0.942-2.093-2.093v-0.209
		c0-1.151,0.942-2.093,2.093-2.093h2513.596c1.15,0,2.093,0.942,2.093,2.093v0.209
		C2758.891,1595.743,2757.948,1596.686,2756.798,1596.686z"/>
	<g>
		
			<ellipse transform="matrix(0.7071 -0.7071 0.7071 0.7071 -771.3041 1142.6272)" style="fill:#2D3A62;" cx="993.621" cy="1502.36" rx="94.064" ry="94.064"/>
		<path style="fill:#98BDF4;" d="M993.621,1447.36c-30.376,0-55,24.624-55,55s24.624,55,55,55c30.376,0,55-24.624,55-55
			S1023.997,1447.36,993.621,1447.36z M1001.155,1453.387c11.978,1.827,22.535,7.953,30.074,16.743l-19.061,11.772
			c-3.108-2.819-6.863-4.932-11.013-6.107V1453.387z M986.087,1453.387v22.408c-4.15,1.175-7.906,3.288-11.013,6.107l-19.061-11.772
			C963.552,1461.341,974.109,1455.215,986.087,1453.387z M947.943,1521.569c-2.487-5.907-3.864-12.397-3.864-19.209
			c0-6.902,1.415-13.472,3.964-19.442l19.053,11.767c-0.704,2.438-1.089,5.011-1.089,7.675c0,2.573,0.359,5.061,1.018,7.423
			L947.943,1521.569z M986.087,1551.333c-12.066-1.841-22.691-8.042-30.241-16.935l19.039-11.759
			c3.144,2.907,6.966,5.087,11.202,6.286V1551.333z M981.134,1502.36c0-6.896,5.591-12.487,12.487-12.487
			c6.896,0,12.487,5.591,12.487,12.487c0,6.896-5.591,12.487-12.487,12.487C986.725,1514.847,981.134,1509.256,981.134,1502.36z
			 M1001.155,1551.333v-22.408c4.236-1.199,8.057-3.379,11.202-6.286l19.039,11.759
			C1023.846,1543.291,1013.221,1549.492,1001.155,1551.333z M1020.217,1509.783c0.658-2.363,1.018-4.85,1.018-7.423
			c0-2.664-0.385-5.237-1.089-7.675l19.053-11.767c2.55,5.97,3.964,12.54,3.964,19.442c0,6.812-1.376,13.302-3.864,19.209
			L1020.217,1509.783z"/>
	</g>
	<g>
		
			<ellipse transform="matrix(0.7071 -0.7071 0.7071 0.7071 -433.3848 1954.6572)" style="fill:#2D3A62;" cx="2142.788" cy="1500.47" rx="94.064" ry="94.064"/>
		<path style="fill:#98BDF4;" d="M2142.788,1445.47c-30.376,0-55,24.624-55,55s24.624,55,55,55c30.375,0,55-24.624,55-55
			S2173.163,1445.47,2142.788,1445.47z M2150.322,1451.498c11.978,1.827,22.535,7.953,30.074,16.743l-19.061,11.772
			c-3.107-2.819-6.863-4.932-11.013-6.107V1451.498z M2135.254,1451.498v22.408c-4.15,1.175-7.906,3.288-11.013,6.107
			l-19.061-11.772C2112.719,1459.451,2123.276,1453.325,2135.254,1451.498z M2097.109,1519.679
			c-2.487-5.907-3.864-12.397-3.864-19.209c0-6.902,1.415-13.472,3.965-19.442l19.053,11.767c-0.704,2.438-1.089,5.011-1.089,7.675
			c0,2.573,0.359,5.061,1.018,7.423L2097.109,1519.679z M2135.254,1549.443c-12.066-1.841-22.691-8.042-30.241-16.935l19.039-11.759
			c3.144,2.907,6.966,5.087,11.202,6.286V1549.443z M2130.301,1500.47c0-6.896,5.591-12.487,12.487-12.487
			s12.487,5.591,12.487,12.487s-5.591,12.487-12.487,12.487S2130.301,1507.367,2130.301,1500.47z M2150.322,1549.443v-22.408
			c4.236-1.199,8.057-3.379,11.202-6.286l19.039,11.759C2173.012,1541.401,2162.387,1547.602,2150.322,1549.443z M2169.384,1507.894
			c0.658-2.363,1.018-4.85,1.018-7.423c0-2.664-0.385-5.237-1.089-7.675l19.053-11.767c2.549,5.97,3.964,12.54,3.964,19.442
			c0,6.812-1.376,13.302-3.864,19.209L2169.384,1507.894z"/>
	</g>
	<polygon style="fill:#163560;" points="2594,1547.27 1673.16,1547.27 1673.16,1400.03 2535.848,1409.064 	"/>
	<g>
		<g>
			<g>
				<path style="fill:#163560;" d="M2088.098,1275.553l-0.002-0.002c0.025,0.002,0.05,0.005,0.074,0.007
					C2088.146,1275.556,2088.123,1275.555,2088.098,1275.553z"/>
				<g>
					<path style="fill:#163560;" d="M2346.819,1377.403l-0.003,0.001c-13.505-0.505-27.538-0.776-42.117-0.776
						c0,0-80.682-70.018-174.015-93.849C2226.645,1306.477,2346.819,1377.403,2346.819,1377.403z"/>
				</g>
			</g>
			<path style="fill:#F1A34F;" d="M1616.065,1429.965v-77.307c0,0,90.695-10.365,145.544-30.232
				c126.973-46.643,195.21-47.507,310.522-47.507c87.549,0,176.219,58.628,213.841,86.86c12.685,9.519,28.058,14.774,43.913,15.122
				c138.492,3.035,224.105,30.68,266.625,49.343c19.925,8.746,32.749,28.491,32.749,50.251v26.026l0,0
				c2.862,0,5.182,2.32,5.182,5.182v43.188c0,2.862-2.32,5.183-5.182,5.183l0,0h-59.168h-23.476
				c8.188-14.67,12.703-31.67,12.249-49.767c-1.292-51.544-43.392-93.521-94.94-94.662c-54.674-1.21-99.375,42.749-99.375,97.149
				c0,17.167,4.469,33.283,12.281,47.279h-508.484c8.188-14.67,12.703-31.67,12.25-49.767c-1.293-51.544-43.392-93.521-94.94-94.662
				c-54.674-1.21-99.375,42.749-99.375,97.149c0,17.167,4.469,33.283,12.281,47.279h-20.304c-70.267,0-80.224-71.86-80.882-107.09
				C1597.178,1438.532,1605.61,1429.965,1616.065,1429.965z"/>
			<path style="fill:#163560;" d="M2116.648,1288.88c80.224,20.302,166.241,89.692,166.241,89.692l-227.694-4.87
				c-8.93-0.191-16.973-5.45-20.729-13.554l-34.892-75.293h84.426C2095.008,1284.853,2105.978,1286.179,2116.648,1288.88z"/>
			<path style="fill:#163560;" d="M1986.187,1286.581l31.969,73.232c2.458,5.631-1.667,11.931-7.811,11.934
				c-32.258,0.015-116.952-1.183-165.706-13.396c-11.712-2.934-15.643-17.671-6.93-26.029
				C1857.522,1313.317,1900.602,1286.581,1986.187,1286.581z"/>
			<path style="fill:#B64C41;" d="M2623.335,1451.662h-33.271c0,0-54.401-50.782-141.703-65.176
				C2448.362,1386.487,2609.639,1404.259,2623.335,1451.662z"/>
			<path style="fill:#B64C41;" d="M1616.065,1429.965h8.807c4.932,0,9.435-2.828,11.542-7.287
				c5.09-10.77,16.269-31.228,33.421-45.769c6.641-5.63,2.666-16.476-6.041-16.476h-47.73V1429.965z"/>
			<path style="fill:#163560;" d="M2052.804,1395.199h44.254c2.445,0,4.427-1.982,4.427-4.427l0,0c0-2.445-1.982-4.427-4.427-4.427
				h-44.254c-2.445,0-4.427,1.982-4.427,4.427l0,0C2048.378,1393.217,2050.36,1395.199,2052.804,1395.199z"/>
			<path style="fill:#163560;" d="M1857.162,1395.199h44.254c2.445,0,4.427-1.982,4.427-4.427l0,0c0-2.445-1.982-4.427-4.427-4.427
				h-44.254c-2.445,0-4.427,1.982-4.427,4.427l0,0C1852.735,1393.217,1854.717,1395.199,1857.162,1395.199z"/>
			<path style="fill:#DD7F30;" d="M1894.628,1423.919h398.996c16.501,0,26.649,18.052,18.073,32.149l-25.695,42.236
				c-5.591,9.19-17.803,11.714-26.563,5.469C2225.322,1479.45,2127.052,1428.989,1894.628,1423.919z"/>
		</g>
		<path style="fill:#F1A34F;" d="M2040.244,1237.832h20.465c2.675,0,5.062,1.678,5.967,4.195l12.059,33.531h-44.833v-31.385
			C2033.903,1240.671,2036.742,1237.832,2040.244,1237.832z"/>
		<path style="fill:#163560;" d="M2033.903,1275.024v-22.935h8.781c6.054,0,11.455,3.807,13.49,9.509l4.791,13.426H2033.903z"/>
		<g>
			<rect x="2126.646" y="1435.283" style="fill:#163560;" width="30.282" height="30.282"/>
			<rect x="2096.365" y="1465.565" style="fill:#163560;" width="30.282" height="30.282"/>
			<rect x="2066.083" y="1435.283" style="fill:#163560;" width="30.282" height="30.282"/>
			<rect x="2035.801" y="1465.565" style="fill:#163560;" width="30.282" height="30.282"/>
			<rect x="2005.519" y="1435.283" style="fill:#163560;" width="30.282" height="30.282"/>
		</g>
	</g>
	<g>
		<circle style="fill:#2D3A62;" cx="1784.025" cy="1506.522" r="87.888"/>
		<path style="fill:#98BDF4;" d="M1784.025,1452.069c-30.074,0-54.453,24.379-54.453,54.453c0,30.074,24.379,54.453,54.453,54.453
			c30.074,0,54.453-24.379,54.453-54.453C1838.478,1476.449,1814.099,1452.069,1784.025,1452.069z M1791.484,1458.037
			c11.859,1.809,22.311,7.874,29.775,16.576l-18.872,11.655c-3.077-2.791-6.795-4.883-10.903-6.046V1458.037z M1776.566,1458.037
			v22.185c-4.109,1.163-7.827,3.256-10.903,6.046l-18.872-11.655C1754.255,1465.911,1764.707,1459.846,1776.566,1458.037z
			 M1738.801,1525.54c-2.463-5.849-3.825-12.274-3.825-19.018c0-6.833,1.401-13.338,3.925-19.249l18.864,11.65
			c-0.697,2.413-1.078,4.961-1.078,7.598c0,2.547,0.356,5.01,1.007,7.349L1738.801,1525.54z M1776.566,1555.008
			c-11.946-1.823-22.465-7.962-29.94-16.766l18.85-11.642c3.113,2.878,6.897,5.036,11.09,6.224V1555.008z M1771.662,1506.522
			c0-6.828,5.535-12.363,12.363-12.363c6.828,0,12.363,5.535,12.363,12.363c0,6.828-5.535,12.363-12.363,12.363
			C1777.198,1518.885,1771.662,1513.35,1771.662,1506.522z M1791.484,1555.008v-22.185c4.194-1.187,7.977-3.346,11.09-6.224
			l18.85,11.642C1813.949,1547.047,1803.43,1553.186,1791.484,1555.008z M1810.357,1513.872c0.652-2.339,1.007-4.802,1.007-7.349
			c0-2.638-0.381-5.185-1.078-7.598l18.864-11.65c2.524,5.911,3.925,12.416,3.925,19.249c0,6.744-1.363,13.169-3.825,19.018
			L1810.357,1513.872z"/>
	</g>
	<g>
		<circle style="fill:#2D3A62;" cx="2461.201" cy="1506.522" r="87.888"/>
		<path style="fill:#98BDF4;" d="M2461.201,1452.069c-30.074,0-54.453,24.379-54.453,54.453c0,30.074,24.379,54.453,54.453,54.453
			s54.453-24.379,54.453-54.453C2515.655,1476.449,2491.275,1452.069,2461.201,1452.069z M2468.66,1458.037
			c11.859,1.809,22.311,7.874,29.775,16.576l-18.872,11.655c-3.077-2.791-6.795-4.883-10.904-6.046V1458.037z M2453.742,1458.037
			v22.185c-4.109,1.163-7.827,3.256-10.904,6.046l-18.872-11.655C2431.432,1465.911,2441.884,1459.846,2453.742,1458.037z
			 M2415.977,1525.54c-2.463-5.849-3.825-12.274-3.825-19.018c0-6.833,1.401-13.338,3.925-19.249l18.864,11.65
			c-0.697,2.413-1.078,4.961-1.078,7.598c0,2.547,0.356,5.01,1.008,7.349L2415.977,1525.54z M2453.742,1555.008
			c-11.946-1.823-22.465-7.962-29.94-16.766l18.85-11.642c3.113,2.878,6.897,5.036,11.09,6.224V1555.008z M2448.839,1506.522
			c0-6.828,5.535-12.363,12.363-12.363s12.363,5.535,12.363,12.363c0,6.828-5.535,12.363-12.363,12.363
			S2448.839,1513.35,2448.839,1506.522z M2468.66,1555.008v-22.185c4.194-1.187,7.977-3.346,11.091-6.224l18.85,11.642
			C2491.125,1547.047,2480.606,1553.186,2468.66,1555.008z M2487.533,1513.872c0.652-2.339,1.008-4.802,1.008-7.349
			c0-2.638-0.381-5.185-1.078-7.598l18.864-11.65c2.524,5.911,3.925,12.416,3.925,19.249c0,6.744-1.363,13.169-3.825,19.018
			L2487.533,1513.872z"/>
	</g>
</g>
</svg>
