<?xml version="1.0" encoding="utf-8"?>
<!-- Generator: Adobe Illustrator 27.5.0, SVG Export Plug-In . SVG Version: 6.00 Build 0)  -->
<svg version="1.1" xmlns="http://www.w3.org/2000/svg" xmlns:xlink="http://www.w3.org/1999/xlink" x="0px" y="0px"
	 viewBox="0 0 750 500" style="enable-background:new 0 0 750 500;" xml:space="preserve">
<g id="BACKGROUND">
	<rect x="0" style="fill:#FFFFFF;" width="750" height="500"/>
</g>
<g id="OBJECTS">
	<g>
		<g>
			
				<line style="fill:none;stroke:#CCCCCC;stroke-width:2;stroke-linecap:round;stroke-miterlimit:10;" x1="107.822" y1="453.112" x2="90.913" y2="453.112"/>
			
				<line style="fill:none;stroke:#CCCCCC;stroke-width:2;stroke-linecap:round;stroke-miterlimit:10;" x1="261.357" y1="453.112" x2="114.438" y2="453.112"/>
			
				<line style="fill:none;stroke:#CCCCCC;stroke-width:2;stroke-linecap:round;stroke-miterlimit:10;" x1="283.823" y1="453.112" x2="270.824" y2="453.112"/>
			
				<line style="fill:none;stroke:#CCCCCC;stroke-width:2;stroke-linecap:round;stroke-miterlimit:10;" x1="523.971" y1="453.112" x2="290.342" y2="453.112"/>
			
				<line style="fill:none;stroke:#CCCCCC;stroke-width:2;stroke-linecap:round;stroke-miterlimit:10;" x1="637.879" y1="453.112" x2="530.931" y2="453.112"/>
			
				<line style="fill:none;stroke:#CCCCCC;stroke-width:2;stroke-linecap:round;stroke-miterlimit:10;" x1="659.086" y1="453.112" x2="646.182" y2="453.112"/>
		</g>
		<g>
			<g>
				<g>
					<path style="fill:#C9F2ED;" d="M302.383,106.701c-30.871,4.895-59.566,18.72-79.833,42.924
						c-19.58,23.382-33.092,51.765-61.857,65.507c-24.443,11.677-53.743,14.165-74.814,32.414
						c-20.87,18.075-25.899,47.789-20.899,73.862c10.282,53.617,62.741,89.82,115.97,89.161c15.074-0.187,30.067-2.255,44.974-4.338
						c16.18-2.261,31.804-3.05,48.04-0.717c31.318,4.499,60.7,17.088,90.89,25.939c29.356,8.606,59.511,13.314,89.553,5.369
						c29.096-7.695,55.309-23.281,82.077-36.538c14.375-7.119,29.072-13.766,44.491-18.302c14.857-4.37,30.279-6.357,45.202-10.459
						c13.543-3.722,26.451-9.462,36.665-19.32c9.851-9.509,17.232-21.744,21.103-34.874c8.092-27.445-3.487-61.132-20.69-83.159
						c-25.708-32.918-68.651-45.038-108.545-48.796c-15.669-1.476-31.397-0.984-47.07-2.218c-13.107-1.032-26.159-3.18-38.766-6.957
						c-18.709-5.606-35.586-15.064-50.983-26.971c-12.393-9.584-23.839-20.465-37.038-28.977
						c-13.965-9.005-29.572-14.207-46.166-15.304C323.888,104.234,313.066,105.1,302.383,106.701
						c-0.634,0.095-0.365,1.059,0.266,0.964c19.745-2.959,40.259-3.141,59.18,3.981c14.654,5.516,27.046,15.077,38.993,24.964
						c12.289,10.17,24.534,20.384,38.514,28.198c18.207,10.178,38.386,15.921,59.032,18.425c14.738,1.788,29.527,1.404,44.32,2.239
						c14.265,0.805,28.509,2.488,42.475,5.547c20.089,4.4,39.877,11.718,56.616,23.878c21.995,15.978,35.198,39.193,41.477,65.274
						c2.546,10.578,3.378,20.975,1.043,31.728c-3.193,14.703-10.928,28.528-21.639,39.077
						c-22.509,22.17-55.712,21.923-84.199,30.716c-55.86,17.243-104.154,62.429-165.55,58.165
						c-60.612-4.21-115.347-43.787-177.327-35.958c-28.15,3.555-56.725,9.392-84.727,1.929
						c-26.055-6.944-50.448-20.848-66.597-42.852c-17.097-23.297-24.879-54.686-17.189-82.921
						c3.925-14.411,12.219-26.904,24.386-35.634c11.113-7.974,24.277-12.431,37.176-16.579c12.339-3.968,24.887-7.681,36.392-13.768
						c12.424-6.574,22.336-16.216,30.996-27.173c9.105-11.521,16.913-24.012,26.237-35.366
						c10.042-12.228,22.14-22.294,36.171-29.659c13.814-7.252,28.844-11.772,44.219-14.211
						C303.283,107.565,303.014,106.601,302.383,106.701z"/>
				</g>
			</g>
			<g>
				<path style="fill:#C9F2ED;" d="M306.124,114.926c-25.752,3.452-51.279,13.333-70.566,31.384
					c-20.311,19.01-32.869,46.494-55.786,61.995c-28.433,19.232-68.551,16.982-92.37,42.061
					c-19.081,20.091-21.177,52.756-11.519,79.038c14.833,40.366,49.618,60.706,86.593,68.794
					c20.966,4.586,52.541-0.117,73.854-2.594c62.671-7.283,117.196,34.27,180.185,36.826
					c57.204,2.322,106.411-41.079,162.155-54.769c25.101-6.165,52.893-6.846,73.282-23.249
					c18.567-14.937,31.048-41.17,26.071-64.926c-6.582-31.412-24.451-95.277-154.794-98.309
					C392.887,188.145,412.181,100.711,306.124,114.926z"/>
			</g>
			<g>
				<path style="fill:#FFFFFF;" d="M233.762,323.011c0.818-0.916,1.784-1.845,3.012-1.847c1.627-0.002,3.33,1.351,4.726,0.516
					c0.436-0.261,0.734-0.695,1.005-1.124c0.655-1.038,1.233-2.134,2.025-3.072c0.793-0.937,1.848-1.723,3.064-1.891
					c1.798-0.249,3.515,0.89,4.706,2.26c1.191,1.37,2.055,3.009,3.324,4.306c1.269,1.297,3.159,2.238,4.886,1.678
					c1.872-0.607,3.216-2.836,5.168-2.582c1.019,0.133,1.819,0.949,2.353,1.827c0.534,0.878,0.891,1.863,1.503,2.688
					c1.64,2.212,9.247,3.356,12.835,3.794h-60.854c1.322,0,8.046-1.008,9.205-2.052
					C232.078,326.289,232.832,324.053,233.762,323.011z"/>
			</g>
			<g>
				<path style="fill:#FFFFFF;" d="M152.068,234.507c1.154-1.292,2.517-2.604,4.25-2.606c2.295-0.003,4.698,1.906,6.667,0.728
					c0.615-0.368,1.036-0.981,1.418-1.587c0.924-1.465,1.739-3.01,2.857-4.333c1.118-1.323,2.607-2.431,4.322-2.669
					c2.536-0.352,4.958,1.256,6.639,3.188c1.68,1.932,2.899,4.244,4.69,6.075c1.791,1.83,4.457,3.157,6.893,2.367
					c2.641-0.857,4.537-4.001,7.291-3.643c1.438,0.187,2.567,1.339,3.32,2.578c0.753,1.239,1.257,2.628,2.121,3.793
					c2.314,3.121,13.046,4.735,18.108,5.353H134.79c1.865,0,11.351-1.422,12.987-2.895
					C149.693,239.13,150.756,235.976,152.068,234.507z"/>
			</g>
			<g>
				<path style="fill:#FFFFFF;" d="M463.279,226.196c1.454-1.629,3.173-3.282,5.357-3.285c2.893-0.004,5.921,2.402,8.404,0.917
					c0.775-0.464,1.306-1.236,1.788-2c1.164-1.847,2.192-3.795,3.601-5.462c1.409-1.667,3.286-3.064,5.448-3.364
					c3.197-0.443,6.25,1.583,8.368,4.019c2.118,2.436,3.655,5.35,5.912,7.657c2.257,2.307,5.618,3.98,8.688,2.984
					c3.329-1.08,5.719-5.043,9.19-4.592c1.812,0.235,3.235,1.688,4.185,3.25c0.95,1.562,1.585,3.313,2.673,4.781
					c2.917,3.933,16.445,5.969,22.825,6.747H441.5c2.351,0,14.308-1.793,16.37-3.649
					C460.285,232.024,461.626,228.048,463.279,226.196z"/>
			</g>
			<g>
				<path style="fill:#FFFFFF;" d="M209.623,167.572c1.508-1.689,3.289-3.402,5.553-3.405c2.998-0.005,6.138,2.49,8.711,0.951
					c0.803-0.48,1.354-1.281,1.853-2.073c1.207-1.914,2.272-3.934,3.733-5.661c1.461-1.728,3.406-3.176,5.647-3.486
					c3.314-0.459,6.478,1.641,8.674,4.166c2.195,2.524,3.788,5.545,6.128,7.937c2.34,2.391,5.824,4.125,9.006,3.093
					c3.451-1.12,5.928-5.228,9.526-4.76c1.879,0.244,3.353,1.749,4.337,3.368c0.984,1.619,1.643,3.434,2.771,4.955
					c3.023,4.077,17.045,6.187,23.659,6.994H187.048c2.437,0,14.83-1.858,16.968-3.783
					C206.519,173.613,207.909,169.492,209.623,167.572z"/>
			</g>
			<g>
				<g>
					<path style="fill:#7E9196;" d="M210.226,448.18c0,0,13.944,2.087,14.058,3.626c0.114,1.54-18.997,1.297-20.366,1.011
						c0,0-0.89-2.773,0.591-4.638C205.99,446.315,210.226,448.18,210.226,448.18z"/>
					<path style="fill:#7E9196;" d="M148.431,448.18c0,0,15.126,2.087,15.24,3.626c0.114,1.54-18.971,1.395-20.34,1.109
						c0,0-0.751-2.042,0.73-3.907C145.542,447.143,148.431,448.18,148.431,448.18z"/>
					<path style="fill:#FFCEB8;" d="M216.651,216.191c3.379-5.014,3.666-9.495,2.492-10.271c-1.628-1.077-3.145,6.128-6.596,8.463
						c-2.125,1.438-5.473-0.39-5.542,1.959c-0.015,0.513,3.933,0.718,5.735,3.284C212.74,219.626,216.15,216.936,216.651,216.191z"
						/>
					<path style="fill:#FFCEB8;" d="M137.139,216.488c-3.379-5.014-3.666-9.495-2.492-10.271c1.628-1.077,3.145,6.128,6.596,8.463
						c2.125,1.438,5.473-0.39,5.542,1.959c0.015,0.513-3.933,0.718-5.735,3.283C141.05,219.923,137.64,217.232,137.139,216.488z"/>
					<path style="fill:#FFCEB8;" d="M216.651,216.191c0,0-2.155,0.274-3.911,3.435c0,0,9.972,10.951,6.09,29.645
						c-2.349,11.314-12.741,20.225-23.349,22.203c-13.005,2.425-35.055,1.318-43.287,0.052
						c-7.546-1.161-16.063-13.553-16.577-27.249c-0.548-14.594,5.433-24.354,5.433-24.354s-1.55-2.593-3.911-3.435
						c0,0-9.548,11.026-12.168,27.542c-2.62,16.515,5.187,38.994,23.859,51.522c0,0,5.525,15.39,3.068,27.346
						c0,0,19.105,4.049,44.116,0c0,0,0.209-18.793,2.601-28.06c0,0,25.277-13.424,30.619-35.858
						C235.765,231.551,216.651,216.191,216.651,216.191z"/>
					<path style="fill:#715EB5;" d="M144.06,449.008c3.944,1.842,8.711,0,8.711,0c19.203-48.06,20.668-111.835,20.668-111.835
						c26.304,43.354,30.326,112.654,30.326,112.654c4.081,1.633,6.46-1.647,6.46-1.647c14.059-86.953-14.211-125.282-14.211-125.282
						c-19.545-8.348-44.116,0-44.116,0s-8.568,7.578-8.567,25.942C143.331,370.562,154.113,391.174,144.06,449.008z"/>
					<path style="fill:#FFDE80;" d="M135.53,282.763c2.222-6.364,6.594-12.513,9.097-15.832c2.408,2.536,5.039,4.206,7.567,4.595
						c8.231,1.266,30.282,2.374,43.286-0.052c2.689-0.501,5.362-1.451,7.895-2.77c4.393,5.75,7.53,12.092,9.176,16.049
						c-7.232,6.516-13.936,10.083-13.936,10.083c-2.392,9.268-2.601,28.061-2.601,28.061c-25.012,4.05-44.116,0-44.116,0
						c2.457-11.956-3.068-27.346-3.068-27.346C143.507,291.98,139.097,287.583,135.53,282.763z"/>
					<path style="fill:#F2B49C;" d="M176.037,264.207l2.344,10.601c0,0-2.883,2.557-7.412,1.026l-0.236-11.829L176.037,264.207z"/>
					<path style="fill:#FFCEB8;" d="M163.746,252.942c12.079-2.844,10.763-10.484,13.44-7.859
						c2.677,2.625,6.926,18.071-1.375,21.318c-3.058,1.196-7.767-0.469-8.8-2.05c-1.646-1.372-2.193-4.639-2.94-4.944
						c-0.747-0.305-2.188-1.399-2.13-2.295c0.068-1.049,1.456-1.216,2.006-0.849C163.947,256.263,163.466,255.146,163.746,252.942z"
						/>
					<path style="fill:#222221;" d="M178.115,252.144c-0.441,0.201-0.636,0.721-0.436,1.161c0.201,0.441,0.721,0.636,1.161,0.436
						c0.441-0.201,0.636-0.721,0.436-1.162C179.076,252.138,178.556,251.943,178.115,252.144z"/>
					<path style="fill:#222221;" d="M170.919,255.844c-0.441,0.201-0.636,0.72-0.436,1.161c0.201,0.441,0.721,0.636,1.161,0.436
						c0.441-0.2,0.636-0.72,0.436-1.161S171.36,255.643,170.919,255.844z"/>
					<g>
						<g>
							<g>
								<path style="fill:#E0AB96;" d="M176.479,256.457c-0.691-0.747-1.108-1.634-1.433-2.147c0.086,0.6,0.337,1.584,1.128,2.448
									c0.196,0.208,0.471,0.38,0.706,0.48c0.098,0.041,0.193,0.094,0.224,0.137c0.032,0.04,0.053,0.059,0.008,0.142
									c-0.195,0.306-0.582,0.527-0.818,0.699c0.298-0.074,0.699-0.128,1.078-0.529c0.101-0.092,0.148-0.353,0.036-0.506
									c-0.098-0.161-0.231-0.232-0.356-0.302C176.833,256.761,176.661,256.642,176.479,256.457z"/>
							</g>
						</g>
					</g>
					<g>
						<path style="fill:#FFFFFF;" d="M175.853,259.237c0.296,0.319,0.959,0.636,1.734,0.337c0.377-0.154,0.684-0.479,0.799-0.815
							c0.129-0.331,0.109-0.639,0.052-0.857C178.438,257.902,177.439,259.012,175.853,259.237z"/>
					</g>
					<g>
						<path style="fill:#715EB5;" d="M154.8,282.44c-0.358-4.166-4.361-7.273-5.13-11.383c-0.474-2.534,0.137-5.253,1.65-7.341
							c1.283-1.771,3.282-3.391,3.139-5.573c-0.052-0.795-0.398-1.535-0.704-2.27c-0.9-2.165-1.495-4.504-1.322-6.842
							c0.308-4.178,3.114-7.92,6.732-10.032c2.842-1.659,6.197-2.425,9.478-2.164c2.844,0.226,5.709,1.276,7.66,3.357
							c1.648,1.758,2.499,4.319,2.045,6.651c-0.392-0.785-0.791-1.397-1.161-1.759c-2.677-2.625-1.362,5.014-13.44,7.859
							c-0.28,2.204,0.201,3.321,0.201,3.321c-0.549-0.366-1.938-0.2-2.006,0.849c-0.058,0.896,1.382,1.99,2.13,2.295
							c0.747,0.305,1.294,3.572,2.94,4.944c0.073,0.111,0.168,0.222,0.275,0.333c-0.805,2.114-1.933,3.909-2.101,5.542
							c-0.425,4.134-0.353,3.989,2.854,11.527c3.207,7.538,2.256,19.073-5.283,19.417c-7.538,0.345-14.53-5.042-14.53-5.042
							C152.925,293.617,155.328,288.592,154.8,282.44z"/>
					</g>
				</g>
				<g>
					<path style="fill:#C64934;" d="M152.117,146.816c-0.977-1.564,16.94-23.844,23.06-24.188
						c7.125-0.401,20.549,15.542,20.549,15.542s5.378-3.381,5.892-2.878c0.514,0.503-0.695,17.225-3.151,18.96
						c-2.456,1.734-18.044-4.412-18.304-5.248c-0.26-0.837,4.412-4.291,4.412-4.291c-0.87-2.735-7.928-7.936-7.928-7.936
						s-8.05,9.337-13.713,16.192C161.657,154.951,152.883,148.042,152.117,146.816z"/>
					<path style="fill:#C64934;" d="M207.826,156.285c1.843-0.039,11.817,26.755,8.981,32.19
						c-3.302,6.326-23.868,9.701-23.868,9.701s0.153,6.35-0.543,6.535c-0.695,0.184-14.443-9.412-14.676-12.409
						c-0.233-2.997,13.024-13.245,13.876-13.04c0.852,0.205,1.429,5.986,1.429,5.986c2.795,0.652,10.875-2.75,10.875-2.75
						s-3.902-11.694-6.894-20.068C195.955,160.318,206.38,156.316,207.826,156.285z"/>
					<path style="fill:#C64934;" d="M169.547,201.764c-0.996,1.552-28.799-5.112-31.728-10.497
						c-3.41-6.269,5.259-25.222,5.259-25.222s-5.356-3.415-5.122-4.095c0.235-0.68,15.867-6.74,18.485-5.262
						c2.618,1.478,3.731,18.198,3.086,18.79c-0.645,0.593-5.766-2.152-5.766-2.152c-2.1,1.956-3.782,10.561-3.782,10.561
						s11.883,3.283,20.502,5.469C172.82,189.661,170.328,200.546,169.547,201.764z"/>
					<path style="fill:#FF7550;" d="M201.618,135.292c-0.514-0.503-5.892,2.878-5.892,2.878s-13.423-15.943-20.549-15.542
						c-3.219,0.181-9.699,6.43-14.98,12.541c2.359-1.744,6.251-3.266,8.139-2.962c5.435,1.115,16.238,12.505,16.238,12.505
						s-4.672,3.455-4.412,4.291c0.26,0.837,15.848,6.983,18.304,5.249C200.923,152.517,202.132,135.795,201.618,135.292z"/>
					<path style="fill:#FF7550;" d="M192.396,204.711c0.695-0.185,0.543-6.535,0.543-6.535s20.566-3.374,23.868-9.701
						c1.492-2.858-0.561-11.624-3.11-19.288c0.291,2.919-0.393,7.041-1.619,8.508c-3.739,4.099-19.054,7.552-19.054,7.552
						s-0.577-5.781-1.429-5.986c-0.852-0.205-14.109,10.043-13.876,13.04C177.952,195.299,191.7,204.895,192.396,204.711z"/>
					<path style="fill:#FF7550;" d="M137.956,161.949c-0.235,0.68,5.122,4.095,5.122,4.095s-8.669,18.953-5.259,25.222
						c1.541,2.832,9.961,6.017,17.744,8.175c-2.585-1.386-5.625-4.253-6.159-6.089c-1.317-5.389,4.358-20.027,4.358-20.027
						s5.121,2.745,5.766,2.152c0.645-0.593-0.468-17.312-3.086-18.79C153.823,155.209,138.191,161.269,137.956,161.949z"/>
				</g>
			</g>
			<g>
				<g>
					<g>
						<path style="fill:#99C96B;" d="M603.55,206.706c0,0,29.939,9.319,33.273-23.414c0.245-2.406-1.571-4.55-3.982-4.741
							C623.377,177.8,601.556,179.025,603.55,206.706z"/>
						<path style="fill:#7AA54E;" d="M619.613,192.325c3.057-2.279,5.785-4.169,7.922-5.482c-2.982,3.232-8.014,7.885-13.993,12.853
							c3.39,0.086,6.349,0.326,8.328,0.671c-2.291,0.391-5.882,0.641-9.95,0.665c-2.647,2.161-5.191,4.141-7.544,5.897
							c-0.526-0.132-0.824-0.223-0.824-0.223c-0.028-0.389-0.034-0.754-0.053-1.134c2.343-2.119,4.98-4.4,7.835-6.749
							c2.331-1.917,4.594-3.707,6.724-5.33c0.606-3.508,1.373-6.566,2.092-8.471C620.208,186.784,620.019,189.383,619.613,192.325z"
							/>
					</g>
					<g>
						<path style="fill:#99C96B;" d="M601.529,206.706c0,0-29.939,9.319-33.273-23.414c-0.245-2.406,1.571-4.55,3.982-4.741
							C581.703,177.8,603.524,179.025,601.529,206.706z"/>
						<path style="fill:#7AA54E;" d="M585.467,192.325c-3.057-2.279-5.785-4.169-7.922-5.482c2.981,3.232,8.014,7.885,13.993,12.853
							c-3.389,0.086-6.349,0.326-8.328,0.671c2.291,0.391,5.881,0.641,9.95,0.665c2.647,2.161,5.191,4.141,7.544,5.897
							c0.526-0.132,0.824-0.223,0.824-0.223c0.028-0.389,0.034-0.754,0.054-1.134c-2.343-2.119-4.98-4.4-7.835-6.749
							c-2.331-1.917-4.594-3.707-6.725-5.33c-0.606-3.508-1.373-6.566-2.092-8.471C584.872,186.784,585.06,189.383,585.467,192.325z
							"/>
					</g>
				</g>
				<g>
					<path style="fill:#7E9196;" d="M563.818,447.865c0,0-15.048,2.252-15.171,3.913c-0.123,1.662,20.5,1.399,21.977,1.091
						c0,0,1.248-2.575,0.151-4.225C569.353,446.504,563.818,447.865,563.818,447.865z"/>
					<path style="fill:#7E9196;" d="M633.299,447.865c0,0,15.048,2.252,15.171,3.913c0.123,1.662-20.5,1.399-21.977,1.091
						c0,0-1.248-2.575-0.151-4.225C627.764,446.504,633.299,447.865,633.299,447.865z"/>
					<path style="fill:#1B7BA5;" d="M579.154,326.565c0,0-23.343,47.536-15.336,121.3c0,0,2.554,2.541,6.958,0.779
						c0,0,10.632-65.017,32.606-109.079c0,0,21.377,43.862,22.959,109.079c0,0,2.58,0.027,6.958-0.779
						c0,0,12.934-74.978-5.262-121.3C628.037,326.565,600.247,317.556,579.154,326.565z"/>
					<path style="fill:#FFCEB8;" d="M641.426,212.112c3.646-5.41,3.956-10.246,2.69-11.083c-1.757-1.162-3.394,6.613-7.118,9.133
						c-2.293,1.552-5.906-0.421-5.981,2.114c-0.016,0.554,4.244,0.775,6.189,3.543C637.205,215.818,640.884,212.915,641.426,212.112
						z"/>
					<path style="fill:#FFFFFF;" d="M558.117,213.164c0,0,2.326,0.296,4.221,3.706c0,0-11.993,12.616-7.804,32.79
						c2.535,12.209,13.573,23.393,25.197,22.686c14.149-0.861,38.486-0.403,46.712,0.056c8.226,0.458,17.223-12.566,19.164-28.131
						c1.95-15.638-8.402-28.453-8.402-28.453s1.117-2.452,4.221-3.706c0,0,16.406,15.674,17.844,33.662
						c1.484,18.558-9.588,41.663-31.747,50.006c0,0,1.285,21.017,0.514,30.785c0,0-21.891,4.37-48.883,0
						c0,0-0.514-22.816-0.257-31.556c0,0-31.103-10.661-36.867-34.87C534.983,230.538,558.117,213.164,558.117,213.164z"/>
					<path style="fill:#FFCEB8;" d="M558.117,213.164c-3.646-5.41-3.956-10.246-2.69-11.083c1.757-1.162,3.394,6.613,7.118,9.133
						c2.293,1.552,5.906-0.421,5.981,2.114c0.016,0.554-4.244,0.775-6.189,3.543C562.337,216.87,558.658,213.967,558.117,213.164z"
						/>
					<path style="fill:#F2B49C;" d="M601.978,260.87l-2.653,11.997c0,0,3.263,2.894,8.387,1.161l0.268-13.386L601.978,260.87z"/>
					<path style="fill:#1B7BA5;" d="M598.523,244.972c0,0-2.684-6.379,0.688-10.632c3.372-4.253,12.755-6.075,15.332-4.077
						c2.578,1.997-3.81,3.99-3.81,3.99s10.152-0.571,11.376,1.62s-1.746,2.601-1.746,2.601s3.605,2.206,4.791,4.663
						c1.321,2.736,0.22,6.719-1.41,8.494c-1.959,2.133-2.198-0.122-2.198-0.122s-1.167,6.291-8.123,6.665L598.523,244.972z"/>
					<path style="fill:#FFCEB8;" d="M616.202,247.87c-10.397-3.349-14.015-9.342-15.524-7.901c-3.069,2.93-7.837,20.45,1.556,24.124
						c3.461,1.353,8.79-0.531,9.959-2.319c1.862-1.553,2.481-5.939,3.327-6.285c0.846-0.345,3.512-1.863,3.366-2.869
						c-0.322-2.21-2.35-1.728-2.971-1.314C615.914,251.307,616.519,250.364,616.202,247.87z"/>
					<path style="fill:#222221;" d="M599.626,247.959c0.499,0.227,0.72,0.815,0.493,1.314c-0.227,0.499-0.815,0.72-1.314,0.493
						c-0.499-0.227-0.72-0.815-0.493-1.314C598.539,247.953,599.127,247.732,599.626,247.959z"/>
					<path style="fill:#222221;" d="M607.77,252.146c0.499,0.227,0.72,0.815,0.493,1.314c-0.227,0.499-0.815,0.72-1.314,0.493
						c-0.499-0.227-0.72-0.815-0.493-1.314C606.683,252.14,607.271,251.92,607.77,252.146z"/>
					<g>
						<g>
							<g>
								<path style="fill:#E0AB96;" d="M601.356,252.965c0.862-0.952,1.439-1.914,1.744-2.555c-0.513,0.488-1.227,1.348-2.057,2.263
									c-0.105,0.113-0.209,0.22-0.313,0.322c-0.098,0.087-0.213,0.193-0.338,0.323c-0.108,0.135-0.212,0.315-0.193,0.52
									c0.006,0.205,0.124,0.352,0.226,0.459c0.451,0.391,0.916,0.473,1.263,0.533c-0.298-0.172-0.733-0.388-1.03-0.741
									c-0.137-0.189-0.137-0.336,0.033-0.508c0.106-0.091,0.215-0.184,0.326-0.278
									C601.132,253.196,601.247,253.084,601.356,252.965z"/>
							</g>
						</g>
					</g>
					<g>
						<path style="fill:#FFFFFF;" d="M602.187,255.987c-0.334,0.361-1.085,0.719-1.963,0.381c-0.427-0.175-0.774-0.542-0.904-0.923
							c-0.146-0.375-0.123-0.723-0.059-0.97C599.26,254.475,600.391,255.732,602.187,255.987z"/>
					</g>
				</g>
				<g>
					<path style="fill:#F7C94B;" d="M602.143,119.899c12.882-0.134,23.163,7.309,22.769,22.963
						c-0.462,18.348-13.536,17.229-14.979,24.087c-1.442,6.858-0.556,7.891-0.556,7.891s-7.741,2.001-15.201-0.387
						c0,0,0.919-6.26-1.076-8.742c-1.995-2.482-13.726-9.073-12.902-23.51C580.828,131.165,585.62,120.071,602.143,119.899z"/>
					<g>
						<path style="fill:#D1A639;" d="M604.286,156.924c-0.126,0-0.252-0.046-0.352-0.139c-0.207-0.194-0.218-0.52-0.024-0.728
							c0.044-0.047,4.242-4.577,5.02-8.899l-2.189-0.185c-0.235-0.02-0.427-0.197-0.464-0.43l-0.462-2.832l-1.454,4.218
							c-0.071,0.207-0.267,0.347-0.486,0.347c-0.185-0.004-0.417-0.141-0.487-0.351l-1.082-3.216l-1.323,3.972
							c-0.072,0.217-0.289,0.37-0.51,0.352c-0.229-0.01-0.424-0.17-0.478-0.393l-0.998-4.082c-0.555,2.069-0.991,2.143-1.228,2.182
							c-0.411,0.068-1.785,0.276-2.528,0.388c0.527,3.885,3.773,8.509,3.807,8.557c0.164,0.232,0.109,0.553-0.123,0.718
							c-0.23,0.162-0.552,0.111-0.718-0.123c-0.152-0.214-3.716-5.29-4.044-9.548c-0.02-0.268,0.171-0.509,0.437-0.548
							c0,0,2.156-0.324,2.881-0.44c0.269-0.402,0.715-2.113,0.983-3.558c0.044-0.239,0.248-0.414,0.491-0.421
							c0.004,0,0.009,0,0.014,0c0.236,0,0.443,0.162,0.5,0.393l1.1,4.504l1.245-3.736c0.07-0.21,0.266-0.352,0.487-0.352
							c0.001,0,0.001,0,0.001,0c0.221,0,0.417,0.141,0.487,0.351l1.09,3.24l1.627-4.72c0.077-0.223,0.279-0.364,0.531-0.345
							c0.234,0.02,0.426,0.197,0.463,0.43l0.727,4.451l2.335,0.198c0.139,0.011,0.266,0.078,0.355,0.186
							c0.088,0.108,0.129,0.246,0.114,0.385c-0.547,4.812-5.173,9.801-5.369,10.011C604.56,156.87,604.423,156.924,604.286,156.924z
							"/>
					</g>
					<path style="fill:#FFDF8F;" d="M599.801,171.787c0,0-4.272-15.164-2.563-16.98c1.709-1.815,8.116-0.747,8.65,0
						c0.534,0.747-1.068,12.601-2.456,17.62L599.801,171.787z"/>
					<path style="fill:#677D82;" d="M592.774,172.775c0.829-1.05,4.953-1.528,9.011-1.509c3.318,0.016,7.694,0.466,8.782,1.784
						c1.088,1.317,0.824,6.69-0.123,8.08c-1.4,2.055-16.45,1.914-17.421-0.204C591.544,177.699,592.774,172.775,592.774,172.775z"/>
				</g>
			</g>
			<g>
				<g>
					<g>
						<path style="fill:#57ADC1;" d="M247.386,270.464c0,0,0,126.877,144.217,123.509c133.22-3.111,134.79-128.493,134.79-128.493
							L247.386,270.464z"/>
						<g>
							<defs>
								<path id="SVGID_1_" d="M247.386,270.464c0,0,0,126.877,144.217,123.509c133.22-3.111,134.79-128.493,134.79-128.493
									L247.386,270.464z"/>
							</defs>
							<clipPath id="SVGID_00000108302586907538680470000002449014475768141200_">
								<use xlink:href="#SVGID_1_"  style="overflow:visible;"/>
							</clipPath>
							<g style="clip-path:url(#SVGID_00000108302586907538680470000002449014475768141200_);">
								<path style="fill:#BCEA94;" d="M442.395,288.387c0.147,7.458-2.882,15.943,3.129,20.36c1.873,1.376,4.141,2.188,5.863,3.748
									c3.431,3.107,3.78,8.805,1.292,12.708c-2.488,3.903-7.286,5.981-11.913,5.87c-2.666-0.064-5.575-0.716-7.828,0.711
									c-1.174,0.744-1.973,1.962-2.538,3.232c-1.389,3.128-1.519,6.795-0.355,10.014c0.403,1.113,0.961,2.22,0.923,3.402
									c-0.088,2.726-3.073,4.262-5.584,5.326c-2.511,1.064-5.41,2.954-5.054,5.659c0.148,1.129,0.88,2.103,1.728,2.863
									c3.403,3.048,8.558,3.185,12.998,2.108c4.44-1.078,8.596-3.176,13.075-4.075c4.598-0.923,9.527-0.506,13.72,1.593
									c4.194,2.099,7.568,5.956,8.673,10.514c0,0-34.404,51.902-139.393,24.368c-5.934-1.556-7.112-10.03-9.615-15.63
									c-0.821-1.836-1.572-3.747-1.695-5.754c-0.135-2.199,0.498-4.387,1.45-6.374c3.293-6.87,10.317-11.434,17.724-13.215
									c7.407-1.781,15.194-1.09,22.679,0.328c5.75,1.089,11.652,2.602,17.37,1.362c6.013-1.304,11.233-5.808,13.405-11.565
									c0.808-2.142,1.212-4.506,0.676-6.731c-0.475-1.975-1.663-3.747-1.958-5.757c-0.708-4.814,3.995-8.891,8.736-9.986
									c4.741-1.095,9.737-0.117,14.546-0.856c19.198-2.949,15.312-10.524,14.343-15.303c-2.156-10.627,13.666-17.79,3.257-25.327
									C432.049,281.979,442.218,279.44,442.395,288.387z"/>
								<path style="fill:#BCEA94;" d="M495.937,357.28c-2.12,1.532-4.821-1.384-5.943-3.631
									c-2.637-5.283-4.142-11.154-3.639-16.994c0.503-5.84,3.129-11.635,7.771-15.616c8.239-7.066,21.327-7.581,29.09-15.103
									C523.217,305.935,514.035,344.199,495.937,357.28z"/>
								<path style="fill:#BCEA94;" d="M263.638,291.057c-2.164,5.148-3.222,11.667,0.469,15.857
									c1.572,1.785,3.788,2.857,5.992,3.751c3.306,1.342,6.731,2.391,10.221,3.132c2.445,0.518,5.152,1.018,6.704,2.977
									c3.523,4.449-2.068,11.43,0.469,16.506c1.928,3.856,7.21,4.231,11.509,3.903c7.831-0.598,15.975-1.9,22.304-6.549
									c6.329-4.65,10.149-13.556,6.753-20.637c-1.342-2.799-3.66-5.087-4.716-8.006c-0.918-2.537-0.798-5.315-0.667-8.009
									L263.638,291.057z"/>
							</g>
						</g>
					</g>
					<path style="fill:#99C96B;" d="M247.386,270.464c1.789,14.165,71.45,30.757,144.153,29.642
						c85.49-1.311,140.219-21.022,134.853-34.626c-4.098-10.39-79.181-19.411-137.242-18.887
						C331.088,247.117,245.474,255.314,247.386,270.464z"/>
					<g>
						<path style="fill:#99C96B;" d="M433.943,250.816c0,0-0.926-1.783-0.494-1.997c0.432-0.214,1.728,0.855,1.728,0.855
							s-1.111-4.277,0-4.491c1.111-0.214,2.778,3.636,2.778,3.636s0.494-7.592,1.667-7.411c1.173,0.181,2.099,7.153,2.099,7.153
							s0.432-2.308,1.234-2.255c0.803,0.053,0.985,3.956,0.985,3.956s1.36-1.337,2.163-1.123c0.802,0.214,0,2.032,0,2.032"/>
						<g>
							<path style="fill:#7CA550;" d="M438.606,242.035c-0.422,1.219-0.561,2.394-0.717,3.536c-0.071,0.57-0.128,1.129-0.176,1.674
								c-0.016,0.192-0.007,0.12-0.008,0.167l0,0.081l-0.072-0.109c-0.221-0.403-0.455-0.791-0.712-1.16
								c-0.261-0.367-0.526-0.723-0.894-1.023c-0.197-0.135-0.408-0.301-0.734-0.303c-0.155-0.023-0.319,0.058-0.463,0.145
								c-0.096,0.104-0.22,0.234-0.247,0.346c-0.179,0.469-0.156,0.874-0.142,1.265c0.026,0.389,0.072,0.761,0.136,1.117
								c0.056,0.339,0.143,0.739,0.203,0.987c0.036,0.162,0.125,0.407,0.143,0.547c-0.223-0.157-0.356-0.253-0.754-0.45
								c-0.166-0.076-0.392-0.172-0.609-0.156c-0.239-0.008-0.331,0.248-0.301,0.436c0.124,0.728,0.43,1.195,0.683,1.68
								c-0.202-0.482-0.462-1.059-0.522-1.65c-0.016-0.124,0.05-0.294,0.21-0.263c0.132,0.01,0.259,0.072,0.432,0.163
								c0.282,0.142,0.823,0.549,1.357,1.004c-0.038-0.321-0.185-0.848-0.257-1.303c-0.073-0.41-0.111-0.69-0.154-1.057
								c-0.066-0.672-0.158-1.499,0.071-2.087c0.073-0.131,0.109-0.168,0.2-0.148c0.088-0.009,0.233,0.089,0.366,0.191
								c0.27,0.235,0.513,0.572,0.741,0.918c0.228,0.35,0.441,0.727,0.643,1.121c0.38,0.719,0.77,1.643,1.182,2.589
								c0.037-0.501,0.075-1.01,0.113-1.526c0.043-0.477,0.086-0.961,0.13-1.452c0.064-0.536,0.13-1.086,0.197-1.647
								c0.16-1.107,0.322-2.298,0.692-3.356c0.06-0.169,0.136-0.322,0.21-0.435l0.038-0.051c-0.038-0.042,0.103,0.096,0.173,0.231
								c0.084,0.135,0.157,0.299,0.227,0.46c0.27,0.663,0.459,1.381,0.628,2.078c0.332,1.399,0.574,2.763,0.77,4.01l0.303,1.93
								l0.354-1.912c0.085-0.458,0.211-0.924,0.366-1.318c0.13-0.381,0.434-0.754,0.496-0.704c0.028,0.003,0.052,0.011,0.069,0.037
								c0.038,0.022,0.076,0.118,0.117,0.171c0.071,0.151,0.132,0.315,0.183,0.486c0.099,0.343,0.171,0.695,0.233,1.038
								c0.058,0.345,0.108,0.682,0.148,1.011c0.044,0.456,0.087,0.898,0.128,1.322c0.269-0.266,0.528-0.521,0.769-0.719
								c0.205-0.167,0.347-0.275,0.53-0.391c0.337-0.214,0.733-0.402,1.044-0.297c0.302,0.12,0.281,0.592,0.234,0.917
								c-0.052,0.352-0.15,0.685-0.261,0.996c0.143-0.299,0.273-0.622,0.359-0.978c0.044-0.178,0.072-0.366,0.062-0.566
								c-0.006-0.191-0.086-0.443-0.315-0.548c-0.449-0.178-0.889,0.035-1.268,0.231c-0.187,0.099-0.4,0.244-0.548,0.349
								c-0.107,0.074-0.203,0.147-0.288,0.22c-0.017-0.05-0.006-0.17-0.011-0.245c-0.005-0.108-0.01-0.219-0.014-0.331
								c-0.022-0.336-0.055-0.683-0.098-1.041c-0.047-0.358-0.104-0.727-0.197-1.107c-0.049-0.19-0.11-0.385-0.195-0.584
								c-0.066-0.104-0.091-0.202-0.198-0.311c-0.103-0.141-0.268-0.184-0.422-0.238l-0.244,0.025
								c-0.081,0.034-0.161,0.065-0.222,0.103c-0.116,0.082-0.215,0.175-0.292,0.275c-0.155,0.199-0.271,0.414-0.37,0.638
								c-0.194,0.45-0.338,0.925-0.448,1.437l0.657,0.018c-0.16-1.279-0.373-2.652-0.692-4.094
								c-0.166-0.721-0.346-1.456-0.644-2.204c-0.08-0.188-0.161-0.375-0.277-0.567c-0.129-0.18-0.205-0.406-0.606-0.583
								c-0.174-0.066-0.373-0.065-0.541,0.02c-0.173,0.07-0.319,0.244-0.38,0.334C438.769,241.634,438.679,241.836,438.606,242.035z
								"/>
						</g>
					</g>
					<g>
						<path style="fill:#99C96B;" d="M263.158,270.495c0,0-0.926-1.783-0.494-1.997c0.432-0.214,1.728,0.855,1.728,0.855
							s-1.111-4.277,0-4.491c1.111-0.214,2.778,3.636,2.778,3.636s0.494-7.592,1.667-7.411c1.173,0.181,2.099,7.153,2.099,7.153
							s0.432-2.308,1.235-2.255c0.802,0.053,0.985,3.956,0.985,3.956s1.36-1.337,2.163-1.123c0.802,0.214,0,2.032,0,2.032"/>
						<g>
							<path style="fill:#7CA550;" d="M267.821,261.714c-0.422,1.219-0.561,2.394-0.717,3.536c-0.071,0.57-0.128,1.129-0.176,1.674
								c-0.016,0.192-0.007,0.12-0.008,0.167l0,0.081l-0.072-0.109c-0.221-0.403-0.455-0.791-0.711-1.159
								c-0.261-0.367-0.526-0.723-0.895-1.023c-0.197-0.135-0.408-0.301-0.734-0.303c-0.155-0.023-0.319,0.058-0.463,0.145
								c-0.097,0.104-0.22,0.234-0.247,0.346c-0.179,0.468-0.156,0.874-0.142,1.265c0.027,0.389,0.072,0.761,0.137,1.117
								c0.056,0.339,0.143,0.739,0.203,0.987c0.036,0.162,0.125,0.406,0.143,0.547c-0.223-0.157-0.356-0.253-0.754-0.45
								c-0.166-0.076-0.392-0.172-0.609-0.156c-0.239-0.008-0.331,0.248-0.301,0.436c0.124,0.728,0.43,1.195,0.683,1.68
								c-0.202-0.482-0.462-1.059-0.522-1.65c-0.016-0.124,0.05-0.294,0.21-0.263c0.132,0.01,0.259,0.072,0.432,0.163
								c0.282,0.142,0.823,0.549,1.357,1.004c-0.038-0.321-0.185-0.848-0.257-1.303c-0.073-0.41-0.111-0.69-0.154-1.057
								c-0.066-0.672-0.158-1.499,0.071-2.087c0.074-0.131,0.109-0.168,0.2-0.148c0.088-0.009,0.233,0.089,0.366,0.191
								c0.27,0.235,0.513,0.572,0.741,0.918c0.228,0.35,0.441,0.727,0.644,1.121c0.38,0.719,0.77,1.643,1.182,2.589
								c0.037-0.501,0.075-1.01,0.113-1.526c0.043-0.477,0.086-0.961,0.13-1.452c0.064-0.536,0.13-1.086,0.197-1.647
								c0.16-1.107,0.322-2.298,0.691-3.356c0.06-0.169,0.136-0.323,0.21-0.435l0.038-0.051c-0.038-0.042,0.103,0.096,0.173,0.231
								c0.084,0.135,0.157,0.299,0.227,0.46c0.27,0.664,0.459,1.381,0.628,2.078c0.332,1.399,0.575,2.763,0.77,4.01l0.302,1.93
								l0.355-1.912c0.085-0.458,0.211-0.924,0.366-1.318c0.13-0.381,0.434-0.754,0.496-0.704c0.028,0.003,0.052,0.012,0.069,0.037
								c0.038,0.022,0.076,0.118,0.117,0.171c0.071,0.152,0.132,0.315,0.183,0.486c0.099,0.343,0.171,0.695,0.233,1.038
								c0.058,0.345,0.108,0.682,0.148,1.011c0.044,0.457,0.087,0.898,0.128,1.322c0.269-0.266,0.528-0.521,0.769-0.719
								c0.205-0.167,0.347-0.275,0.53-0.391c0.337-0.214,0.733-0.402,1.044-0.297c0.302,0.12,0.281,0.592,0.234,0.917
								c-0.052,0.352-0.15,0.685-0.261,0.996c0.143-0.299,0.273-0.622,0.359-0.978c0.044-0.178,0.072-0.366,0.062-0.566
								c-0.006-0.191-0.086-0.443-0.315-0.548c-0.449-0.178-0.889,0.035-1.268,0.231c-0.187,0.099-0.4,0.244-0.548,0.349
								c-0.107,0.074-0.203,0.147-0.287,0.22c-0.017-0.05-0.006-0.17-0.011-0.245c-0.005-0.108-0.01-0.219-0.014-0.331
								c-0.022-0.336-0.055-0.683-0.098-1.041c-0.047-0.358-0.104-0.727-0.197-1.107c-0.049-0.19-0.11-0.385-0.195-0.584
								c-0.066-0.104-0.091-0.202-0.198-0.311c-0.103-0.141-0.268-0.184-0.422-0.238l-0.244,0.025
								c-0.081,0.034-0.161,0.065-0.222,0.103c-0.116,0.082-0.215,0.175-0.292,0.275c-0.155,0.199-0.271,0.414-0.37,0.638
								c-0.194,0.45-0.338,0.925-0.448,1.437l0.657,0.017c-0.16-1.279-0.372-2.652-0.692-4.094
								c-0.166-0.721-0.346-1.456-0.644-2.204c-0.08-0.188-0.161-0.375-0.277-0.567c-0.129-0.18-0.205-0.406-0.606-0.583
								c-0.174-0.066-0.373-0.065-0.541,0.02c-0.173,0.07-0.319,0.244-0.38,0.334C267.984,261.313,267.894,261.515,267.821,261.714z
								"/>
						</g>
					</g>
					<g>
						<path style="fill:#99C96B;" d="M302.505,256.5c0,0-1.287-4.062-0.482-4.77c0.805-0.708,2.606,2.649,2.606,2.649
							s0.662-6.564,1.817-7.161c1.155-0.596,1.698,5.655,1.698,8.905"/>
						<g>
							<path style="fill:#7CA550;" d="M304.836,250.323c-0.139,0.7-0.25,1.391-0.344,2.067l-0.067,0.504l-0.03,0.25
								c-0.01,0.082-0.002,0.028-0.004,0.05l0.003,0.082c-0.017-0.019-0.013-0.003-0.073-0.083l-0.254-0.359
								c-0.103-0.14-0.206-0.278-0.315-0.41c-0.219-0.265-0.44-0.52-0.721-0.739c-0.142-0.107-0.283-0.218-0.497-0.278
								c-0.192-0.085-0.499-0.032-0.683,0.128c-0.271,0.292-0.277,0.586-0.311,0.842c-0.012,0.258,0.003,0.5,0.029,0.733
								c0.056,0.463,0.15,0.891,0.25,1.292c0.208,0.8,0.447,1.496,0.687,2.099c-0.139-0.633-0.282-1.352-0.402-2.156
								c-0.056-0.402-0.105-0.826-0.121-1.265c-0.021-0.413,0.023-0.962,0.214-1.152c0.062-0.06,0.245,0.016,0.462,0.209
								c0.206,0.181,0.401,0.426,0.587,0.68c0.094,0.127,0.185,0.261,0.276,0.398c0.103,0.163,0.207,0.329,0.312,0.495
								c0.307,0.486,0.675,1.199,1.035,1.868c0.072-0.62,0.146-1.25,0.221-1.89c0.055-0.39,0.111-0.786,0.168-1.186
								c0.103-0.664,0.218-1.341,0.353-2.023c0.132-0.638,0.276-1.265,0.462-1.849c0.095-0.289,0.202-0.572,0.332-0.801
								c0.061-0.106,0.147-0.224,0.175-0.237c0.011-0.024,0.018-0.015,0.029-0.016c-0.011-0.02,0.096,0.1,0.144,0.206
								c0.061,0.109,0.114,0.238,0.163,0.368c0.097,0.262,0.176,0.537,0.245,0.813c0.137,0.553,0.241,1.106,0.332,1.643
								c0.349,2.155,0.525,4.053,0.653,5.518c0.111-1.468,0.133-3.385-0.084-5.595c-0.059-0.553-0.134-1.124-0.251-1.713
								c-0.061-0.295-0.132-0.593-0.232-0.899c-0.051-0.153-0.106-0.307-0.188-0.467c-0.089-0.16-0.146-0.317-0.408-0.511
								c-0.236-0.18-0.587-0.154-0.805,0.024c-0.237,0.163-0.313,0.315-0.421,0.474c-0.186,0.315-0.307,0.628-0.417,0.945
								C305.124,249.018,304.972,249.665,304.836,250.323z"/>
						</g>
					</g>
					<g>
						<path style="fill:#99C96B;" d="M335.21,279.967c0,0,1.627-5.136,0.61-6.031c-1.018-0.895-3.295,3.35-3.295,3.35
							s-0.837-8.301-2.297-9.055c-1.46-0.754-2.148,7.151-2.148,11.261"/>
						<g>
							<path style="fill:#7CA550;" d="M331.258,272.358c0.171,0.861,0.316,1.718,0.447,2.558l0.095,0.626
								c0.043,0.318,0.085,0.634,0.127,0.947c0.095,0.81,0.188,1.608,0.28,2.392c0.465-0.861,0.909-1.733,1.333-2.412
								c0.137-0.219,0.273-0.435,0.407-0.649c0.115-0.172,0.229-0.342,0.348-0.502c0.236-0.321,0.48-0.631,0.739-0.858
								c0.123-0.112,0.265-0.22,0.363-0.249c0.102-0.058,0.132-0.031,0.199-0.005c0.098,0.071,0.19,0.358,0.228,0.611
								c0.034,0.271,0.041,0.55,0.034,0.827c-0.019,0.554-0.08,1.089-0.149,1.597c-0.148,1.016-0.326,1.924-0.498,2.726
								c0.307-0.761,0.611-1.64,0.877-2.65c0.128-0.507,0.247-1.046,0.32-1.633c0.034-0.294,0.054-0.601,0.04-0.928
								c-0.047-0.328-0.039-0.692-0.397-1.081c-0.138-0.062-0.263-0.188-0.422-0.198c-0.157-0.005-0.335-0.033-0.453,0.028
								c-0.276,0.076-0.457,0.217-0.639,0.353c-0.358,0.278-0.639,0.601-0.918,0.937c-0.139,0.168-0.27,0.342-0.401,0.52
								l-0.192,0.27l-0.095,0.137l-0.021,0.026c-0.037,0.04-0.06,0.063-0.072,0.072l0.004-0.107l0.002-0.014l-0.036-0.293
								l-0.084-0.638c-0.119-0.855-0.259-1.73-0.435-2.617c-0.163-0.779-0.34-1.547-0.573-2.274
								c-0.128-0.365-0.243-0.717-0.421-1.061c-0.07-0.169-0.18-0.342-0.3-0.508c-0.088-0.166-0.28-0.322-0.539-0.513
								c-0.266-0.109-0.576-0.143-0.833,0.012c-0.124,0.078-0.243,0.158-0.336,0.281c-0.083,0.091-0.124,0.169-0.178,0.253
								c-0.19,0.328-0.291,0.636-0.387,0.941c-0.179,0.608-0.289,1.195-0.379,1.767c-0.175,1.144-0.262,2.225-0.316,3.238
								c-0.102,2.026-0.064,3.783,0.054,5.205c0.126-1.421,0.299-3.158,0.567-5.147c0.137-0.993,0.296-2.052,0.523-3.145
								c0.116-0.545,0.25-1.102,0.43-1.635c0.092-0.261,0.198-0.526,0.324-0.723c0.031-0.043,0.064-0.101,0.09-0.12
								c0,0,0.008-0.006,0.012-0.008c0.011-0.002,0.023,0.002,0.03,0.007c-0.023,0.011,0.06,0.038,0.126,0.172
								c0.069,0.104,0.142,0.214,0.2,0.366c0.134,0.27,0.236,0.6,0.347,0.929C330.934,270.862,331.101,271.604,331.258,272.358z"/>
						</g>
					</g>
					<g>
						<path style="fill:#99C96B;" d="M485.931,270.436c0,0,1.287-4.062,0.482-4.77c-0.805-0.708-2.606,2.649-2.606,2.649
							s-0.662-6.564-1.817-7.161c-1.155-0.596-1.698,5.655-1.698,8.905"/>
						<g>
							<path style="fill:#7CA550;" d="M482.827,264.416c0.135,0.681,0.25,1.359,0.353,2.022c0.057,0.4,0.113,0.796,0.168,1.186
								c0.075,0.64,0.149,1.27,0.221,1.89c0.36-0.669,0.728-1.382,1.035-1.868c0.105-0.167,0.209-0.332,0.312-0.495
								c0.091-0.136,0.181-0.271,0.276-0.398c0.187-0.254,0.381-0.499,0.587-0.68c0.217-0.192,0.4-0.269,0.462-0.209
								c0.19,0.19,0.235,0.739,0.214,1.152c-0.016,0.439-0.066,0.863-0.121,1.265c-0.12,0.804-0.263,1.523-0.402,2.156
								c0.24-0.603,0.478-1.299,0.687-2.1c0.1-0.401,0.193-0.828,0.25-1.292c0.027-0.232,0.042-0.475,0.029-0.733
								c-0.034-0.256-0.04-0.55-0.311-0.842c-0.184-0.159-0.491-0.213-0.683-0.127c-0.214,0.06-0.355,0.171-0.497,0.278
								c-0.281,0.219-0.502,0.474-0.721,0.739c-0.11,0.133-0.213,0.27-0.315,0.41l-0.254,0.359
								c-0.059,0.079-0.056,0.064-0.073,0.083l0.003-0.083c-0.002-0.022,0.006,0.032-0.004-0.05l-0.031-0.25l-0.067-0.504
								c-0.094-0.676-0.205-1.367-0.344-2.067c-0.136-0.658-0.289-1.305-0.501-1.939c-0.11-0.317-0.231-0.631-0.417-0.945
								c-0.108-0.159-0.185-0.311-0.421-0.475c-0.218-0.178-0.569-0.204-0.805-0.024c-0.262,0.194-0.319,0.351-0.408,0.511
								c-0.081,0.16-0.137,0.313-0.188,0.466c-0.1,0.306-0.172,0.604-0.232,0.899c-0.118,0.589-0.193,1.16-0.251,1.713
								c-0.218,2.21-0.195,4.127-0.084,5.595c0.128-1.464,0.303-3.364,0.653-5.518c0.091-0.537,0.195-1.09,0.332-1.643
								c0.07-0.275,0.149-0.551,0.246-0.813c0.048-0.13,0.102-0.259,0.163-0.368c0.048-0.107,0.155-0.226,0.144-0.206
								c0.011,0,0.018-0.008,0.029,0.016c0.028,0.013,0.114,0.132,0.175,0.237c0.129,0.229,0.237,0.512,0.332,0.801
								C482.551,263.151,482.695,263.777,482.827,264.416z"/>
						</g>
					</g>
					<g>
						<path style="fill:#99C96B;" d="M435.633,285.91c0,0-1.667-5.262-0.625-6.18c1.043-0.917,3.376,3.432,3.376,3.432
							s0.857-8.505,2.354-9.277c1.496-0.772,2.2,7.326,2.2,11.537"/>
						<g>
							<path style="fill:#7CA550;" d="M439.655,278.109c-0.176,0.882-0.324,1.76-0.457,2.62c-0.074,0.519-0.146,1.031-0.218,1.536
								c-0.097,0.829-0.192,1.645-0.286,2.448c-0.466-0.867-0.943-1.791-1.341-2.42c-0.136-0.216-0.271-0.43-0.404-0.642
								c-0.118-0.177-0.235-0.351-0.357-0.515c-0.242-0.329-0.493-0.647-0.761-0.881c-0.282-0.249-0.518-0.349-0.599-0.27
								c-0.246,0.246-0.304,0.958-0.277,1.493c0.02,0.569,0.085,1.118,0.157,1.639c0.155,1.042,0.341,1.973,0.521,2.794
								c-0.311-0.782-0.62-1.684-0.89-2.72c-0.13-0.52-0.25-1.073-0.323-1.674c-0.034-0.301-0.054-0.615-0.038-0.949
								c0.043-0.332,0.052-0.712,0.402-1.091c0.238-0.206,0.636-0.276,0.885-0.165c0.278,0.077,0.46,0.221,0.644,0.36
								c0.364,0.284,0.651,0.614,0.934,0.958c0.142,0.172,0.275,0.35,0.409,0.532l0.329,0.465c0.077,0.103,0.072,0.083,0.094,0.108
								l-0.004-0.107c0.003-0.029-0.008,0.041,0.005-0.064l0.04-0.324l0.086-0.653c0.122-0.876,0.266-1.771,0.446-2.678
								c0.176-0.852,0.374-1.691,0.648-2.512c0.143-0.411,0.299-0.817,0.541-1.224c0.141-0.206,0.239-0.404,0.546-0.615
								c0.283-0.231,0.737-0.265,1.043-0.031c0.339,0.251,0.413,0.454,0.529,0.662c0.105,0.207,0.177,0.406,0.243,0.604
								c0.13,0.396,0.222,0.783,0.301,1.165c0.152,0.763,0.25,1.503,0.326,2.219c0.282,2.864,0.253,5.347,0.109,7.249
								c-0.165-1.897-0.393-4.358-0.845-7.149c-0.118-0.695-0.252-1.412-0.43-2.128c-0.09-0.357-0.193-0.714-0.318-1.053
								c-0.063-0.168-0.132-0.336-0.211-0.477c-0.063-0.138-0.201-0.293-0.186-0.267c-0.015,0.001-0.024-0.011-0.038,0.02
								c-0.036,0.018-0.147,0.17-0.227,0.308c-0.167,0.296-0.307,0.663-0.429,1.037
								C440.012,276.471,439.826,277.282,439.655,278.109z"/>
						</g>
					</g>
					<g>
						<path style="fill:#DDEFAB;" d="M388.821,298.065c-30.214,0.248-58.704-2.146-83.491-6.144
							c-12.388-2.027-23.871-4.451-34.078-7.512c-5.096-1.541-9.885-3.232-14.18-5.305c-2.145-1.036-4.163-2.182-5.937-3.538
							c-1.73-1.355-3.349-2.996-3.748-5.102c0.237,2.138,1.781,3.963,3.454,5.456c1.718,1.504,3.7,2.8,5.814,3.98
							c4.236,2.363,8.991,4.33,14.065,6.13c10.165,3.579,21.656,6.457,34.083,8.857c24.865,4.745,53.565,7.571,84.056,7.321
							c30.457-0.326,59.157-3.186,83.951-8.439c12.383-2.646,23.814-5.862,33.795-9.978c4.975-2.073,9.612-4.366,13.576-7.196
							c1.961-1.427,3.785-2.988,5.118-4.871c0.655-0.94,1.191-1.969,1.406-3.064c0.226-1.09,0.109-2.216-0.312-3.181
							c0.348,0.995,0.375,2.098,0.086,3.126c-0.28,1.035-0.859,1.982-1.548,2.843c-1.399,1.723-3.26,3.128-5.254,4.404
							c-4.026,2.529-8.694,4.54-13.689,6.349c-10.018,3.588-21.428,6.345-33.762,8.613
							C447.533,295.311,419.051,297.741,388.821,298.065z"/>
					</g>
				</g>
				<g>
					<g>
						<path style="fill:#99C96B;" d="M379.284,204.651c0,0-22.691,18.909-45.697,11.03c-23.006-7.879-12.606-22.376-46.328-28.994
							c-33.721-6.618-23.321-33.091-11.03-39.394c12.291-6.303,8.194-13.867-3.467-17.964s-22.376-18.221-13.236-33.535
							c9.139-15.314,35.297-29.181,70.279-23.508c34.982,5.673,30.883-29.361,71.924-37.401
							c49.508-9.698,63.602,11.297,59.322,31.728c-3.523,16.819-0.364,15.507,10.53,17.531
							c12.453,2.313,14.197,14.656,14.402,20.285c0.205,5.63,17.998,1.008,21.216,17.198c2.273,11.438-8.344,12.184-7.911,17.157
							c0.584,6.7,21.335,3.481,18.535,19.808c-3.246,18.929-40.325,18.687-51.537,31.67c-11.212,12.983-41.898,31.08-66.093,6.885
							L379.284,204.651z"/>
						<path style="fill:#3E9360;" d="M365.928,268.277c0,0,20.574,4.07,45.202-0.782c0,0-8.146-69.497-7.364-74.709
							c0.782-5.212,21.11-27.361,22.413-28.404l-3.388-2.345c0,0-17.982,13.29-19.676,13.29s-2.776-7.518-2.254-8.951
							c0.521-1.433,15.298-20.495,15.298-20.495l-2.215-1.954c0,0-18.64,16.991-23.989,16.547
							c-7.572-0.628-18.451-12.378-18.451-12.378l-2.476,1.173c0,0,8.251,14.343,8.496,16.424c0.245,2.081-0.7,11.472-1.557,12.084
							c-0.857,0.612-24.03-14.288-27.213-17.225l-3.55,2.081c0,0,26.321,28.89,28.158,32.072
							C375.196,197.887,365.75,266.122,365.928,268.277z"/>
						<g>
							<g>
								<path style="fill:#99C96B;" d="M364.165,147.769c0.892,1.782,2.84,2.982,4.832,2.977c2.144-0.005,4.139-1.327,5.361-3.089
									c1.221-1.762,1.76-3.915,1.99-6.047"/>
								<g>
									<path style="fill:#7AA54E;" d="M371.779,149.017c-1.43,0.949-3.044,1.199-4.429,0.811
										c-1.398-0.369-2.485-1.222-3.185-2.059c0.239,1.059,1.123,2.431,2.754,3.205c0.801,0.378,1.797,0.606,2.821,0.503
										c1.024-0.086,2.056-0.456,2.957-1.048c1.834-1.179,2.878-3.042,3.327-4.65c0.462-1.635,0.456-3.082,0.323-4.168
										c-0.372,1.032-0.788,2.36-1.466,3.729C374.203,146.704,373.223,148.089,371.779,149.017z"/>
								</g>
							</g>
							<g>
								<path style="fill:#99C96B;" d="M412.401,138.713c-0.02,2.514,0.976,5.023,2.715,6.839c1.739,1.816,4.202,2.92,6.715,3.009"
									/>
								<g>
									<path style="fill:#7AA54E;" d="M415.724,144.97c-1.965-2.048-2.847-4.55-3.323-6.257c-0.256,0.85-0.362,2.05-0.059,3.392
										c0.29,1.337,1.002,2.804,2.166,4.029c1.173,1.217,2.608,1.992,3.931,2.339c1.327,0.361,2.531,0.307,3.391,0.088
										C420.146,148.012,417.684,147.022,415.724,144.97z"/>
								</g>
							</g>
							<g>
								<path style="fill:#99C96B;" d="M420.464,156.898c-0.496,2.698,0.739,5.572,2.871,7.298c2.133,1.726,5.045,2.348,7.758,1.939
									c2.713-0.41,5.224-1.787,7.253-3.634"/>
								<g>
									<path style="fill:#7AA54E;" d="M427.21,165.152c-2.274-0.531-4.126-1.831-5.222-3.452
										c-1.127-1.607-1.533-3.382-1.524-4.801c-0.515,1.316-0.567,3.395,0.471,5.424c0.504,1.009,1.283,1.992,2.302,2.781
										c1.017,0.782,2.253,1.368,3.584,1.686c2.68,0.646,5.342,0.109,7.297-0.867c1.985-0.973,3.365-2.298,4.228-3.421
										c-1.207,0.749-2.775,1.663-4.69,2.287C431.752,165.418,429.483,165.696,427.21,165.152z"/>
								</g>
							</g>
							<g>
								<path style="fill:#99C96B;" d="M435.677,158.143c-0.132,1.997,1.026,3.995,2.776,4.964c1.751,0.969,3.999,0.91,5.75-0.059
									c1.751-0.969,2.979-2.788,3.329-4.758"/>
								<g>
									<path style="fill:#7AA54E;" d="M441.324,162.962c-1.61,0.031-3.034-0.604-3.987-1.598c-0.972-0.981-1.477-2.19-1.66-3.221
										c-0.33,0.989-0.252,2.553,0.703,3.984c0.466,0.711,1.157,1.375,2.031,1.835c0.87,0.454,1.894,0.699,2.941,0.683
										c1.048-0.018,2.051-0.293,2.908-0.747c0.857-0.461,1.543-1.089,2.044-1.759c1.013-1.35,1.302-2.809,1.229-3.848
										c-0.429,0.956-1.093,2.087-2.138,3.029C444.362,162.267,442.934,162.939,441.324,162.962z"/>
								</g>
							</g>
							<g>
								<path style="fill:#99C96B;" d="M402.736,133.024c1.472,3.699,5.49,6.14,9.469,5.996c3.979-0.144,7.708-2.725,9.488-6.286"/>
								<g>
									<path style="fill:#7AA54E;" d="M412.181,138.178c-2.226,0.064-4.334-0.636-5.945-1.657
										c-1.637-1.011-2.755-2.343-3.501-3.497c0.266,1.337,1.108,3.086,2.773,4.482c1.627,1.401,4.054,2.436,6.735,2.355
										c2.67-0.114,5.009-1.278,6.581-2.711c1.607-1.429,2.486-3.104,2.867-4.416c-0.84,1.088-2.001,2.385-3.62,3.45
										C416.476,137.258,414.417,138.079,412.181,138.178z"/>
								</g>
							</g>
							<g>
								<path style="fill:#99C96B;" d="M335.916,161.225c1.921,3.195,5.746,4.811,9.455,5.185c2.75,0.277,5.693-0.068,7.928-1.694
									c3.334-2.425,4.265-7.07,3.791-11.165"/>
								<g>
									<path style="fill:#7AA54E;" d="M349.875,165.342c-2.952,0.658-6.018,0.289-8.465-0.492
										c-2.478-0.794-4.358-2.197-5.495-3.624c0.683,1.686,2.446,3.616,5.049,4.764c2.583,1.134,5.861,1.746,9.303,0.989
										c1.702-0.405,3.322-1.247,4.464-2.465c1.173-1.186,1.874-2.63,2.28-3.988c0.794-2.757,0.522-5.221,0.078-6.975
										c-0.056,1.81-0.246,4.175-1.232,6.566c-0.498,1.179-1.204,2.359-2.22,3.279
										C352.649,164.346,351.337,164.987,349.875,165.342z"/>
								</g>
							</g>
							<g>
								<path style="fill:#99C96B;" d="M331.324,158.221c0.262,1.473,1.642,2.505,3.057,2.989c1.409,0.481,3.01,0.556,4.357-0.081
									c1.346-0.637,2.354-2.078,2.217-3.561"/>
								<g>
									<path style="fill:#7AA54E;" d="M336.562,160.748c-2.416-0.054-4.513-1.09-5.238-2.526
										c-0.146,0.794,0.301,1.972,1.294,2.793c0.979,0.835,2.372,1.396,3.938,1.416c0.783,0.003,1.563-0.158,2.243-0.475
										c0.686-0.321,1.255-0.805,1.637-1.339c0.795-1.069,0.859-2.325,0.518-3.048c-0.179,0.783-0.65,1.603-1.421,2.221
										C338.775,160.42,337.751,160.751,336.562,160.748z"/>
								</g>
							</g>
							<g>
								<path style="fill:#99C96B;" d="M348.681,109.525c0.383,1.739,1.503,3.233,2.787,4.467c3.505,3.368,8.483,5.144,13.329,4.757
									c4.845-0.388,9.478-2.933,12.403-6.816"/>
								<g>
									<path style="fill:#7AA54E;" d="M362.195,117.907c-3.359-0.273-6.411-1.482-8.759-3.057
										c-2.367-1.571-4.103-3.444-4.755-5.325c0.083,0.984,0.479,2.114,1.181,3.2c0.702,1.089,1.667,2.141,2.843,3.107
										c2.34,1.938,5.646,3.454,9.356,3.752c3.722,0.318,7.225-0.758,9.811-2.325c2.618-1.572,4.353-3.622,5.327-5.327
										c-1.383,1.402-3.331,3.035-5.907,4.25C368.732,117.394,365.554,118.191,362.195,117.907z"/>
								</g>
							</g>
							<g>
								<path style="fill:#99C96B;" d="M371.731,107.741c1.618,1.784,3.564,3.367,5.874,4.049c2.31,0.682,5.028,0.321,6.759-1.354"
									/>
								<g>
									<path style="fill:#7AA54E;" d="M377.839,110.981c-2.576-0.778-4.627-2.388-6.107-3.24c0.365,0.774,0.969,1.708,1.891,2.612
										c0.914,0.901,2.181,1.774,3.738,2.242c1.576,0.46,3.181,0.369,4.443-0.102c1.276-0.459,2.153-1.312,2.56-2.057
										c-0.771,0.382-1.73,0.748-2.857,0.869C380.386,111.436,379.109,111.349,377.839,110.981z"/>
								</g>
							</g>
							<g>
								<path style="fill:#99C96B;" d="M399.349,70.831c-0.028,4.659,2.505,9.147,6.22,11.959c3.715,2.812,8.491,4.031,13.148,3.886
									c6.215-0.193,12.882-3.371,14.868-9.263"/>
								<g>
									<path style="fill:#7AA54E;" d="M414.207,85.525c-4.532-0.759-8.497-2.935-10.972-5.849
										c-2.545-2.879-3.658-6.214-3.887-8.845c-0.287,2.619,0.425,6.318,2.936,9.616c2.428,3.347,6.755,5.933,11.638,6.737
										c2.441,0.418,4.861,0.421,7.142,0.067c2.267-0.384,4.372-1.096,6.162-2.104c1.791-1.002,3.284-2.257,4.352-3.623
										c1.067-1.371,1.699-2.822,2.007-4.11c-0.55,1.209-1.369,2.488-2.527,3.652c-1.161,1.16-2.656,2.183-4.388,2.991
										c-1.73,0.813-3.721,1.365-5.829,1.647C418.734,85.955,416.469,85.914,414.207,85.525z"/>
								</g>
							</g>
							<g>
								<path style="fill:#99C96B;" d="M427.586,70.831c1.139,2.96,3.157,5.729,6.054,7.021c2.897,1.291,6.725,0.732,8.616-1.814"/>
								<g>
									<path style="fill:#7AA54E;" d="M433.966,77.076c-1.605-0.729-2.918-1.863-3.945-3.019
										c-1.037-1.155-1.805-2.316-2.436-3.225c0.156,1.091,0.563,2.501,1.451,3.952c0.871,1.442,2.285,2.941,4.241,3.828
										c1.994,0.878,4.138,0.834,5.783,0.229c1.675-0.592,2.764-1.798,3.194-2.803c-0.853,0.707-2.038,1.383-3.518,1.622
										C437.275,77.909,435.549,77.77,433.966,77.076z"/>
								</g>
							</g>
							<g>
								<path style="fill:#99C96B;" d="M296.089,175.4c1.513,2.71,4.743,4.354,7.826,3.983c3.082-0.372,5.829-2.736,6.655-5.728"/>
								<g>
									<path style="fill:#7AA54E;" d="M303.813,178.547c-1.674,0.187-3.317-0.191-4.637-0.835
										c-1.338-0.633-2.345-1.523-3.088-2.313c0.293,1.033,1.062,2.35,2.451,3.358c1.358,1.015,3.346,1.703,5.475,1.461
										c2.126-0.271,3.893-1.411,4.971-2.72c1.109-1.309,1.543-2.77,1.583-3.844c-0.534,0.944-1.3,2.047-2.45,2.98
										C306.99,177.573,305.484,178.331,303.813,178.547z"/>
								</g>
							</g>
							<g>
								<path style="fill:#99C96B;" d="M294.453,99.161c0.616,3.962,3.441,7.465,7.114,9.075c3.673,1.61,8.07,1.347,11.617-0.525
									c3.546-1.872,6.21-5.274,7.36-9.115"/>
								<g>
									<path style="fill:#7AA54E;" d="M307.395,108.437c-1.735,0.084-3.426-0.166-4.945-0.689
										c-1.514-0.53-2.858-1.343-3.961-2.301c-2.233-1.915-3.478-4.312-4.035-6.286c0.05,2.046,0.94,4.834,3.191,7.173
										c1.109,1.166,2.556,2.195,4.255,2.878c1.697,0.674,3.62,1.002,5.579,0.906c1.96-0.101,3.828-0.615,5.458-1.415
										c1.629-0.81,3-1.895,4.078-3.074c2.174-2.368,3.188-5.015,3.529-7.034c-0.83,1.878-2.187,4.186-4.39,6.165
										c-1.094,0.987-2.4,1.873-3.879,2.526C310.793,107.931,309.13,108.347,307.395,108.437z"/>
								</g>
							</g>
							<g>
								<path style="fill:#99C96B;" d="M287.663,96.709c2.005,1.394,4.241,2.637,6.68,2.77c2.439,0.133,5.097-1.135,5.89-3.445"/>
								<g>
									<path style="fill:#7AA54E;" d="M294.375,98.637c-2.685-0.174-5.06-1.433-6.713-1.929c0.539,0.679,1.329,1.468,2.425,2.178
										c1.086,0.705,2.527,1.33,4.193,1.431c1.698,0.086,3.268-0.487,4.339-1.363c1.096-0.872,1.59-2.065,1.612-2.921
										c-0.518,0.702-1.259,1.417-2.282,1.897C296.94,98.414,295.679,98.701,294.375,98.637z"/>
								</g>
							</g>
							<g>
								<path style="fill:#99C96B;" d="M464.971,131.787c0.857,3.289,4.134,5.704,7.532,5.8c3.398,0.096,6.696-1.983,8.314-4.973"/>
								<g>
									<path style="fill:#7AA54E;" d="M472.535,136.746c-1.854-0.066-3.578-0.785-4.862-1.748
										c-1.308-0.958-2.155-2.163-2.701-3.211c0.047,1.168,0.577,2.772,1.885,4.122c1.272,1.351,3.299,2.439,5.633,2.519
										c2.322,0.049,4.397-0.877,5.791-2.068c1.425-1.188,2.208-2.62,2.537-3.746c-0.78,0.887-1.83,1.928-3.247,2.749
										C476.171,136.194,474.404,136.783,472.535,136.746z"/>
								</g>
							</g>
							<g>
								<path style="fill:#99C96B;" d="M461.346,129.319c0.773,1.95,2.667,3.408,4.75,3.657c2.083,0.249,4.267-0.723,5.478-2.436"/>
								<g>
									<path style="fill:#7AA54E;" d="M466.196,132.14c-2.195-0.272-3.885-1.687-4.85-2.821c0.028,0.749,0.355,1.756,1.146,2.648
										c0.772,0.893,2.017,1.658,3.504,1.844c1.489,0.17,2.879-0.281,3.84-0.967c0.979-0.681,1.534-1.583,1.738-2.304
										C470.369,131.416,468.393,132.393,466.196,132.14z"/>
								</g>
							</g>
							<g>
								<path style="fill:#99C96B;" d="M395.937,67.681c0.55,1.918,2.346,3.412,4.332,3.605c1.986,0.193,4.035-0.929,4.944-2.705"/>
								<g>
									<path style="fill:#7AA54E;" d="M400.35,70.448c-0.992-0.106-1.92-0.506-2.662-1.031c-0.753-0.52-1.313-1.157-1.751-1.736
										c-0.056,0.714,0.176,1.716,0.897,2.614c0.699,0.897,1.898,1.678,3.353,1.829c1.457,0.132,2.784-0.405,3.642-1.15
										c0.88-0.742,1.301-1.681,1.383-2.392c-0.54,0.484-1.213,1.002-2.052,1.367C402.332,70.32,401.344,70.535,400.35,70.448z"/>
								</g>
							</g>
							<g>
								<path style="fill:#99C96B;" d="M306.444,170.572c1.221,1.972,3.307,3.387,5.591,3.792s4.729-0.208,6.553-1.641"/>
								<g>
									<path style="fill:#7AA54E;" d="M312.182,173.535c-2.532-0.448-4.497-1.886-5.737-2.963
										c0.201,0.799,0.712,1.804,1.639,2.691c0.913,0.89,2.246,1.648,3.805,1.93c1.561,0.27,3.073,0.018,4.236-0.505
										c1.175-0.515,2-1.283,2.463-1.964C317.053,173.308,314.714,173.984,312.182,173.535z"/>
								</g>
							</g>
							<g>
								<path style="fill:#99C96B;" d="M460.399,172.636c2.016,2.023,4.686,3.48,7.535,3.678c2.849,0.199,5.847-0.986,7.496-3.318"
									/>
								<g>
									<path style="fill:#7AA54E;" d="M467.988,175.474c-3.225-0.237-5.876-1.836-7.588-2.838c0.508,0.861,1.359,1.889,2.622,2.77
										c1.248,0.884,2.937,1.606,4.849,1.747c1.923,0.127,3.73-0.399,5.05-1.244c1.34-0.836,2.157-1.982,2.509-2.913
										c-0.775,0.641-1.785,1.345-3.065,1.822C471.096,175.305,469.574,175.576,467.988,175.474z"/>
								</g>
							</g>
						</g>
					</g>
					<g>
						<path style="fill:#99C96B;" d="M382.761,270.341c0,0,1.983-3.74,1.321-4.067c-0.661-0.327-2.646,1.31-2.646,1.31
							s1.701-6.548,0-6.875c-1.701-0.327-4.252,5.565-4.252,5.565s-0.756-11.622-2.551-11.345c-1.795,0.277-3.213,10.95-3.213,10.95
							s-0.661-3.534-1.89-3.452c-1.228,0.082-1.508,6.057-1.508,6.057s-2.083-2.046-3.311-1.719c-1.229,0.327,0,3.11,0,3.11"/>
						<g>
							<path style="fill:#7CA550;" d="M375.298,256.783c0.465,1.599,0.704,3.295,0.923,4.907c0.105,0.81,0.195,1.608,0.276,2.388
								c0.059,0.661,0.117,1.314,0.174,1.959c0.055,0.756,0.109,1.501,0.162,2.234c0.599-1.392,1.269-2.913,1.699-3.704
								c0.309-0.6,0.638-1.174,0.986-1.711c0.349-0.531,0.719-1.049,1.139-1.418l0.314-0.231c0.095-0.018,0.21-0.122,0.281-0.094
								c0.173-0.036,0.235,0.011,0.354,0.211c0.2,0.41,0.235,1.019,0.231,1.564c-0.003,0.558-0.055,1.111-0.115,1.648
								c-0.065,0.537-0.143,1.06-0.232,1.565c-0.108,0.659-0.334,1.525-0.436,2.096c0.501-0.413,0.981-0.816,1.403-1.105
								c0.243-0.17,0.341-0.23,0.504-0.328c0.149-0.09,0.298-0.168,0.446-0.234c0.165-0.069,0.253-0.102,0.372-0.114
								c0.112-0.022,0.255,0.024,0.27,0.148c0.023,0.114,0.013,0.218-0.007,0.349c-0.023,0.147-0.061,0.293-0.098,0.436
								c-0.337,1.144-0.781,2.11-1.184,2.995c0.48-0.849,0.996-1.77,1.419-2.922c0.049-0.146,0.098-0.295,0.133-0.455
								c0.037-0.174,0.071-0.392,0.023-0.581c-0.107-0.446-0.76-0.316-1.064-0.187c-0.171,0.066-0.337,0.143-0.5,0.23
								c-0.15,0.077-0.363,0.204-0.429,0.243c-0.191,0.115-0.367,0.234-0.528,0.353c-0.001-0.076,0.073-0.271,0.1-0.389
								c0.037-0.139,0.074-0.281,0.112-0.425c0.117-0.509,0.223-1.037,0.315-1.586c0.088-0.549,0.166-1.118,0.194-1.716
								c0.014-0.599,0.051-1.22-0.245-1.926c-0.111-0.347-0.643-0.77-1.105-0.664c-0.249-0.011-0.401,0.112-0.605,0.175
								c-0.158,0.098-0.313,0.202-0.459,0.312c-0.548,0.458-0.947,1.001-1.338,1.56c-0.385,0.562-0.74,1.152-1.072,1.765
								l-0.153,0.272l-0.038,0.06l0-0.1l0.001-0.039c-0.001-0.019,0.003,0.019-0.002-0.045l-0.026-0.295
								c-0.071-0.789-0.154-1.597-0.253-2.42c-0.212-1.647-0.437-3.349-0.939-5.085c-0.098-0.313-0.201-0.624-0.347-0.94
								c-0.167-0.317-0.258-0.632-0.745-0.98c-0.267-0.13-0.587-0.211-0.87-0.075c-0.308,0.107-0.444,0.278-0.584,0.422
								c-0.25,0.301-0.405,0.599-0.551,0.895c-0.533,1.183-0.823,2.352-1.098,3.498c-0.525,2.294-0.867,4.484-1.127,6.523
								l0.868-0.023c-0.231-1.009-0.49-1.955-1.024-2.855c-0.149-0.22-0.293-0.446-0.549-0.635c-0.105-0.101-0.284-0.171-0.44-0.227
								c-0.173-0.035-0.402-0.046-0.576,0.029c-0.393,0.196-0.504,0.465-0.628,0.688c-0.111,0.232-0.191,0.46-0.256,0.685
								c-0.252,0.898-0.36,1.762-0.449,2.598c-0.042,0.418-0.074,0.828-0.1,1.231l-0.013,0.357
								c-0.007,0.094,0.005,0.239-0.015,0.304c-0.134-0.115-0.265-0.217-0.448-0.348c-0.277-0.204-0.559-0.393-0.853-0.556
								c-0.573-0.306-1.234-0.626-1.912-0.391c-0.349,0.138-0.491,0.516-0.506,0.809c-0.023,0.307,0.02,0.597,0.084,0.872
								c0.127,0.551,0.326,1.052,0.543,1.517c-0.176-0.481-0.331-0.997-0.413-1.542c-0.042-0.271-0.061-0.554-0.02-0.824
								c0.038-0.269,0.167-0.52,0.406-0.592c0.503-0.147,1.106,0.144,1.624,0.474c0.266,0.168,0.525,0.363,0.78,0.573
								c0.344,0.277,0.743,0.662,1.139,1.056c0.048-0.543,0.097-1.097,0.147-1.661c0.051-0.394,0.102-0.795,0.155-1.204
								c0.122-0.811,0.267-1.657,0.526-2.461c0.066-0.199,0.143-0.392,0.233-0.564c0.081-0.168,0.222-0.319,0.251-0.314
								c0.078-0.071,0.412,0.177,0.604,0.541c0.413,0.733,0.662,1.684,0.844,2.602l0.485,2.445l0.383-2.468
								c0.31-1.996,0.694-4.173,1.234-6.404c0.278-1.107,0.586-2.26,1.059-3.286c0.121-0.247,0.258-0.488,0.4-0.657
								c0.189-0.191,0.124-0.106,0.137-0.124c0.027,0.002,0.226,0.273,0.316,0.509C375.117,256.221,375.21,256.501,375.298,256.783z
								"/>
						</g>
					</g>
					<g>
						<path style="fill:#99C96B;" d="M399.729,270.341c0,0-1.582-4.993-0.593-5.863c0.989-0.87,3.203,3.257,3.203,3.257
							s0.813-8.07,2.233-8.803c1.42-0.733,2.088,6.952,2.088,10.947"/>
						<g>
							<path style="fill:#7CA550;" d="M402.554,262.74c-0.324,1.551-0.627,4.068-0.528,3.532c-0.013-0.008-0.034-0.03-0.07-0.068
								l-0.014-0.015l-0.083-0.117l-0.187-0.262c-0.127-0.173-0.255-0.342-0.391-0.505c-0.272-0.327-0.545-0.641-0.896-0.912
								c-0.178-0.132-0.356-0.269-0.627-0.343c-0.123-0.056-0.296-0.044-0.448-0.03c-0.15,0.026-0.275,0.136-0.407,0.201
								c-0.357,0.389-0.34,0.738-0.388,1.06c-0.013,0.318,0.006,0.617,0.04,0.902c0.072,0.57,0.189,1.094,0.314,1.586
								c0.261,0.982,0.558,1.835,0.858,2.573c-0.166-0.779-0.336-1.662-0.479-2.649c-0.066-0.493-0.125-1.014-0.143-1.552
								c-0.007-0.268,0.001-0.54,0.033-0.802c0.036-0.242,0.129-0.53,0.216-0.586c0.062-0.027,0.102-0.049,0.186,0.002
								c0.093,0.028,0.23,0.131,0.349,0.239c0.25,0.22,0.487,0.521,0.716,0.832c0.116,0.156,0.227,0.321,0.338,0.488l0.164,0.256
								l0.248,0.402c0.413,0.663,0.847,1.519,1.3,2.357c0.089-0.763,0.18-1.54,0.272-2.327c0.043-0.318,0.085-0.638,0.129-0.96
								l0.092-0.609c0.127-0.816,0.268-1.65,0.435-2.487c0.162-0.784,0.339-1.553,0.566-2.269c0.116-0.354,0.247-0.7,0.403-0.977
								c0.065-0.122,0.196-0.284,0.186-0.267c-0.003-0.013,0.018-0.016,0.028-0.011c0.019,0.016-0.017-0.026,0.036,0.037
								c0.036,0.056,0.077,0.107,0.112,0.18c0.074,0.131,0.139,0.289,0.199,0.447c0.119,0.319,0.217,0.657,0.302,0.995
								c0.169,0.678,0.299,1.357,0.412,2.016c0.436,2.646,0.663,4.98,0.832,6.78c0.149-1.805,0.187-4.163-0.074-6.883
								c-0.07-0.68-0.161-1.383-0.305-2.109c-0.074-0.363-0.161-0.732-0.284-1.11c-0.063-0.19-0.131-0.38-0.232-0.579
								c-0.043-0.097-0.11-0.201-0.175-0.303c-0.059-0.087-0.218-0.278-0.36-0.352c-0.295-0.209-0.701-0.186-0.993,0.03
								c-0.336,0.232-0.404,0.403-0.548,0.607c-0.232,0.391-0.381,0.778-0.518,1.169C402.909,261.133,402.721,261.93,402.554,262.74
								z"/>
						</g>
					</g>
				</g>
			</g>
			<g>
				<path style="fill:#FFFFFF;" d="M471.643,328.548c1.201-1.345,2.62-2.71,4.423-2.712c2.388-0.004,4.889,1.984,6.938,0.757
					c0.64-0.383,1.078-1.021,1.476-1.651c0.961-1.525,1.81-3.133,2.973-4.509c1.164-1.376,2.713-2.53,4.498-2.777
					c2.639-0.366,5.16,1.307,6.909,3.318c1.749,2.011,3.017,4.417,4.881,6.322c1.863,1.905,4.638,3.286,7.173,2.464
					c2.749-0.892,4.722-4.164,7.587-3.792c1.496,0.194,2.671,1.393,3.455,2.683c0.784,1.289,1.309,2.735,2.207,3.947
					c2.408,3.247,13.577,4.928,18.845,5.571h-89.348c1.941,0,11.813-1.48,13.516-3.013
					C469.171,333.36,470.278,330.077,471.643,328.548z"/>
			</g>
		</g>
	</g>
</g>
</svg>
