<svg id="visual" viewBox="0 0 600 900" width="600" height="900" xmlns="http://www.w3.org/2000/svg" xmlns:xlink="http://www.w3.org/1999/xlink" version="1.1"><path d="M0 334L20 353.5C40 373 80 412 120 398.5C160 385 200 319 240 290.5C280 262 320 271 360 280C400 289 440 298 480 313C520 328 560 349 580 359.5L600 370L600 0L580 0C560 0 520 0 480 0C440 0 400 0 360 0C320 0 280 0 240 0C200 0 160 0 120 0C80 0 40 0 20 0L0 0Z" fill="#1c4a6f"></path><path d="M0 604L20 605.5C40 607 80 610 120 592C160 574 200 535 240 518.5C280 502 320 508 360 524.5C400 541 440 568 480 574C520 580 560 565 580 557.5L600 550L600 368L580 357.5C560 347 520 326 480 311C440 296 400 287 360 278C320 269 280 260 240 288.5C200 317 160 383 120 396.5C80 410 40 371 20 351.5L0 332Z" fill="#0f314c"></path><path d="M0 721L20 736C40 751 80 781 120 782.5C160 784 200 757 240 745C280 733 320 736 360 745C400 754 440 769 480 760C520 751 560 718 580 701.5L600 685L600 548L580 555.5C560 563 520 578 480 572C440 566 400 539 360 522.5C320 506 280 500 240 516.5C200 533 160 572 120 590C80 608 40 605 20 603.5L0 602Z" fill="#092236"></path><path d="M0 901L20 901C40 901 80 901 120 901C160 901 200 901 240 901C280 901 320 901 360 901C400 901 440 901 480 901C520 901 560 901 580 901L600 901L600 683L580 699.5C560 716 520 749 480 758C440 767 400 752 360 743C320 734 280 731 240 743C200 755 160 782 120 780.5C80 779 40 749 20 734L0 719Z" fill="#0a1d2c"></path></svg>